<svg width="25" height="24" viewBox="0 0 25 24" fill="none" xmlns="http://www.w3.org/2000/svg">
<path d="M21.8199 1.99168C17.8197 4.46946 14.642 8.14224 12.1609 12.1507C10.9543 10.5182 9.57781 9.04293 8.07092 7.75661C7.14754 7.00434 5.91492 8.13094 6.5945 9.12052C8.36355 11.5579 9.63045 14.28 10.3444 17.0645C10.8359 18.9354 13.0476 18.7346 13.8154 16.8507C15.8658 11.8203 19.871 7.74353 24.0431 5.01378C26.3116 3.52956 23.9814 0.652849 21.8199 1.99168Z" fill="#CD9D5D"/>
<path d="M23.6353 9.43314C23.9071 10.5411 24.0122 11.6963 23.9456 12.8361C23.9362 13.1096 23.8992 13.4225 23.8698 13.694C23.8645 13.7582 23.7859 14.2237 23.7751 14.303C23.7373 14.4756 23.6637 14.8628 23.6165 15.0264C22.2946 20.2928 17.5317 23.9819 12.1088 23.9999C5.15708 24.0246 -0.361948 18.1822 0.018559 11.2475C0.355836 5.0849 5.38445 0.137652 11.5703 0.00256689C13.3341 -0.0346336 15.1238 0.3327 16.7066 1.09218C17.1681 1.31252 17.3637 1.86531 17.1433 2.32685C16.936 2.76204 16.4316 2.9604 15.9894 2.79764C15.2139 2.52443 14.4167 2.3396 13.6025 2.25323C13.1349 2.20497 12.6535 2.18613 12.1838 2.20265C11.2485 2.23668 10.3061 2.39875 9.41835 2.68897C5.20098 4.06234 2.39722 8.1395 2.71361 12.5772C3.03461 17.516 7.17764 21.4069 12.1191 21.4666C16.4772 21.5361 20.3442 18.6479 21.5778 14.4747C21.6273 14.3382 21.695 14.0276 21.7352 13.8864C21.753 13.8035 21.8218 13.4633 21.8357 13.388C21.8688 13.1645 21.9137 12.9069 21.9315 12.6813C21.9393 12.6087 21.9575 12.4469 21.9607 12.3763C21.9765 12.0701 21.996 11.7625 21.9875 11.4556C21.9787 10.9071 21.923 10.3592 21.8258 9.81757C21.6577 8.63954 23.3065 8.28834 23.6353 9.43314Z" fill="#CD9D5D"/>
</svg>
