<svg width="91" height="68" viewBox="0 0 91 68" fill="none" xmlns="http://www.w3.org/2000/svg">
<path d="M69.663 40.9538C70.6639 40.9538 71.6245 40.8004 72.5806 40.6606C72.2709 41.7071 71.9522 42.7718 71.4405 43.7281C70.9288 45.1175 70.1298 46.322 69.3353 47.5355C68.671 48.8482 67.4994 49.7369 66.6376 50.8601C65.7353 51.9518 64.5054 52.6781 63.5314 53.5848C62.5753 54.5321 61.323 55.0058 60.3265 55.6734C59.2851 56.2734 58.3784 56.9365 57.4088 57.2523L54.9894 58.2538L52.8618 59.1425L55.0388 67.8849L57.7185 67.2353C58.5759 67.0188 59.6217 66.7662 60.8112 66.4639C62.0277 66.2384 63.3249 65.6204 64.7703 65.0565C66.1977 64.4159 67.8495 63.9828 69.3847 62.9543C70.9288 61.9709 72.7108 61.1499 74.2818 59.8326C75.8035 58.4748 77.6394 57.2974 78.9949 55.5697C80.4762 53.9547 81.9395 52.2586 83.0752 50.3278C84.3904 48.4873 85.2836 46.4663 86.2262 44.4679C87.0791 42.4695 87.7659 40.426 88.3269 38.4411C89.3908 34.4624 89.8666 30.6821 90.0506 27.4476C90.2032 24.2087 90.1134 21.5156 89.9249 19.5668C89.8576 18.6465 89.7319 17.7533 89.6421 17.1353L89.5299 16.3775L89.4132 16.4045C88.6148 12.6566 86.777 9.21237 84.1122 6.47031C81.4475 3.72826 78.0647 1.80039 74.3553 0.909752C70.6458 0.0191193 66.7613 0.202095 63.151 1.43752C59.5407 2.67294 56.3522 4.91032 53.9543 7.89084C51.5564 10.8714 50.0472 14.4732 49.6011 18.2798C49.1551 22.0863 49.7905 25.942 51.4338 29.4008C53.0771 32.8596 55.6612 35.7802 58.8872 37.8247C62.1131 39.8692 65.8491 40.954 69.663 40.9538ZM20.2873 40.9538C21.2883 40.9538 22.2489 40.8004 23.205 40.6606C22.8952 41.7071 22.5766 42.7718 22.0648 43.7281C21.5531 45.1175 20.7541 46.322 19.9596 47.5355C19.2953 48.8482 18.1238 49.7369 17.2619 50.8601C16.3597 51.9518 15.1298 52.6781 14.1558 53.5848C13.1997 54.5321 11.9473 55.0058 10.9508 55.6734C9.90945 56.2734 9.00275 56.9365 8.03319 57.2523L5.61378 58.2538L3.48614 59.1425L5.66315 67.8849L8.34291 67.2353C9.20025 67.0188 10.2461 66.7662 11.4356 66.4639C12.6521 66.2384 13.9493 65.6204 15.3946 65.0565C16.8176 64.4114 18.4739 63.9828 20.009 62.9498C21.5531 61.9664 23.3351 61.1454 24.9062 59.8281C26.4278 58.4703 28.2637 57.2929 29.6193 55.5697C31.1006 53.9547 32.5639 52.2586 33.6995 50.3278C35.0147 48.4873 35.908 46.4663 36.8506 44.4679C37.7035 42.4695 38.3902 40.426 38.9513 38.4411C40.0151 34.4624 40.4909 30.6821 40.675 27.4476C40.8276 24.2087 40.7378 21.5156 40.5493 19.5668C40.482 18.6465 40.3563 17.7533 40.2665 17.1353L40.1543 16.3775L40.0376 16.4045C39.2392 12.6566 37.4013 9.21237 34.7366 6.47031C32.0718 3.72826 28.6891 1.80039 24.9796 0.909752C21.2702 0.0191193 17.3856 0.202095 13.7753 1.43752C10.165 2.67294 6.97653 4.91032 4.57865 7.89084C2.18078 10.8714 0.671516 14.4732 0.225464 18.2798C-0.220581 22.0863 0.41481 25.942 2.05814 29.4008C3.70146 32.8596 6.28557 35.7802 9.51153 37.8247C12.7375 39.8692 16.4735 40.954 20.2873 40.9538Z" fill="white" fill-opacity="0.28"/>
</svg>
