<svg width="32" height="32" viewBox="0 0 32 32" fill="none" xmlns="http://www.w3.org/2000/svg">
<path d="M11.1375 14.862C10.8768 14.6013 10.4555 14.6013 10.1948 14.862L6.86152 18.1953C6.60085 18.456 6.60085 18.8773 6.86152 19.138L10.1948 22.4713C10.3248 22.6013 10.4955 22.6667 10.6662 22.6667C10.8368 22.6667 11.0075 22.6013 11.1375 22.4713C11.3982 22.2107 11.3982 21.7893 11.1375 21.5287L8.27552 18.6667L11.1375 15.8047C11.3982 15.544 11.3982 15.1227 11.1375 14.862Z" fill="#CD9D5D"/>
<path d="M21.8042 14.862C21.5435 14.6013 21.1222 14.6013 20.8615 14.862C20.6008 15.1227 20.6008 15.544 20.8615 15.8047L23.7235 18.6667L20.8615 21.5287C20.6008 21.7893 20.6008 22.2107 20.8615 22.4713C20.9915 22.6013 21.1622 22.6667 21.3328 22.6667C21.5035 22.6667 21.6742 22.6013 21.8042 22.4713L25.1375 19.138C25.3982 18.8773 25.3982 18.456 25.1375 18.1953L21.8042 14.862Z" fill="#CD9D5D"/>
<path d="M18.2992 14.07C17.9705 13.9047 17.5699 14.0387 17.4045 14.368L13.4045 22.368C13.2399 22.6973 13.3732 23.098 13.7025 23.2627C13.7985 23.31 13.8999 23.3327 13.9999 23.3327C14.2445 23.3327 14.4799 23.198 14.5972 22.964L18.5972 14.964C18.7619 14.6347 18.6285 14.2347 18.2992 14.07Z" fill="#CD9D5D"/>
<path d="M27.334 4H4.66732C2.82932 4 1.33398 5.49533 1.33398 7.33333V24.6667C1.33398 26.5047 2.82932 28 4.66732 28H27.334C29.172 28 30.6673 26.5047 30.6673 24.6667V7.33333C30.6673 5.49533 29.172 4 27.334 4ZM4.66732 5.33333H27.334C28.4367 5.33333 29.334 6.23067 29.334 7.33333V9.33333H2.66732V7.33333C2.66732 6.23067 3.56465 5.33333 4.66732 5.33333ZM27.334 26.6667H4.66732C3.56465 26.6667 2.66732 25.7693 2.66732 24.6667V10.6667H29.334V24.6667C29.334 25.7693 28.4367 26.6667 27.334 26.6667Z" fill="#CD9D5D"/>
<path d="M4.66667 8.00001C5.03486 8.00001 5.33333 7.70153 5.33333 7.33334C5.33333 6.96515 5.03486 6.66667 4.66667 6.66667C4.29848 6.66667 4 6.96515 4 7.33334C4 7.70153 4.29848 8.00001 4.66667 8.00001Z" fill="#CD9D5D"/>
<path d="M7.33268 8.00001C7.70087 8.00001 7.99935 7.70153 7.99935 7.33334C7.99935 6.96515 7.70087 6.66667 7.33268 6.66667C6.96449 6.66667 6.66602 6.96515 6.66602 7.33334C6.66602 7.70153 6.96449 8.00001 7.33268 8.00001Z" fill="#CD9D5D"/>
<path d="M10.0007 8.00001C10.3688 8.00001 10.6673 7.70153 10.6673 7.33334C10.6673 6.96515 10.3688 6.66667 10.0007 6.66667C9.63246 6.66667 9.33398 6.96515 9.33398 7.33334C9.33398 7.70153 9.63246 8.00001 10.0007 8.00001Z" fill="#CD9D5D"/>
</svg>
