<svg width="32" height="32" viewBox="0 0 32 32" fill="none" xmlns="http://www.w3.org/2000/svg">
<g clip-path="url(#clip0_114_443)">
<g clip-path="url(#clip1_114_443)">
<path d="M27.5 3.5C27.7761 3.5 28 3.27614 28 3C28 2.72386 27.7761 2.5 27.5 2.5C27.2239 2.5 27 2.72386 27 3C27 3.27614 27.2239 3.5 27.5 3.5Z" fill="#CD9D5D"/>
<path d="M25.5 3.5C25.7761 3.5 26 3.27614 26 3C26 2.72386 25.7761 2.5 25.5 2.5C25.2239 2.5 25 2.72386 25 3C25 3.27614 25.2239 3.5 25.5 3.5Z" fill="#CD9D5D"/>
<path d="M23.5 3.5C23.7761 3.5 24 3.27614 24 3C24 2.72386 23.7761 2.5 23.5 2.5C23.2239 2.5 23 2.72386 23 3C23 3.27614 23.2239 3.5 23.5 3.5Z" fill="#CD9D5D"/>
<path d="M18.5 3.5C18.7761 3.5 19 3.27614 19 3C19 2.72386 18.7761 2.5 18.5 2.5C18.2239 2.5 18 2.72386 18 3C18 3.27614 18.2239 3.5 18.5 3.5Z" fill="#CD9D5D"/>
<path d="M13.5 10H3C2.724 10 2.5 10.224 2.5 10.5V27C2.5 27.276 2.724 27.5 3 27.5H13.5C13.776 27.5 14 27.276 14 27V10.5C14 10.224 13.776 10 13.5 10ZM13 11V18.793L11.8535 17.6465C11.755 17.548 11.622 17.4955 11.4805 17.5005C11.3415 17.5055 11.2105 17.569 11.12 17.6745L8.4715 20.7645L6.8535 19.1465C6.7555 19.0485 6.6165 18.9955 6.4835 19.0005C6.345 19.005 6.215 19.067 6.124 19.171L3.5 22.1695V11H13ZM3.5 26.5V23.688L6.5245 20.2315L8.1465 21.8535C8.245 21.952 8.3735 22.0025 8.5195 21.9995C8.6585 21.9945 8.7895 21.931 8.88 21.8255L11.5285 18.7355L13 20.207V26.5H3.5Z" fill="#CD9D5D"/>
<path d="M31.743 21.633C31.4105 19.9805 30.787 18.335 30 17.19V3C30 1.6215 28.8785 0.5 27.5 0.5H2.5C1.1215 0.5 0 1.6215 0 3V27.5C0 28.8785 1.1215 30 2.5 30H19.1835L20.091 31.288C20.1855 31.4215 20.3385 31.5 20.5 31.5C20.515 31.5 20.53 31.4995 20.5445 31.498L22.233 31.3465C22.389 31.3325 22.53 31.246 22.613 31.1125C22.696 30.9795 22.7115 30.815 22.655 30.6685L22.3975 30H27.5C28.402 30 29.218 29.517 29.661 28.7505C29.725 28.7585 29.7885 28.7685 29.852 28.7685C29.9525 28.7685 30.052 28.7585 30.151 28.7385C31.0095 28.566 31.629 27.675 31.895 26.229C32.133 24.9375 32.079 23.305 31.743 21.633ZM29 3V4.5H23.5C22.1215 4.5 21 3.3785 21 2V1.5H27.5C28.327 1.5 29 2.173 29 3ZM2.5 1.5H20V2C20 3.93 21.57 5.5 23.5 5.5H29V7.5H1V3C1 2.173 1.673 1.5 2.5 1.5ZM2.5 29C1.673 29 1 28.327 1 27.5V8.5H29V16.1025C28.5345 15.7555 28.039 15.5915 27.529 15.6945C26.6755 15.866 26.141 16.6935 25.8675 17.8375C24.3775 18.9285 22.754 19.815 21.041 20.4985C21.0305 20.368 20.98 20.2435 20.8795 20.157C20.7625 20.056 20.606 20.014 20.4545 20.0455L18.0415 20.5305C17.0515 20.7295 16.198 21.3025 15.6385 22.1435C15.079 22.9845 14.8805 23.993 15.0795 24.9835C15.2785 25.9735 15.8515 26.8275 16.6925 27.3865C16.9985 27.59 17.3275 27.744 17.669 27.8505L18.4795 29.0005L2.5 29ZM27.298 24.0855C27.15 23.613 27.0205 23.1175 26.9175 22.603C26.81 22.069 26.74 21.5655 26.6945 21.089C26.7715 21.059 26.848 21.035 26.9255 21.0195C27.766 20.8505 28.5835 21.3965 28.7515 22.2345C28.8335 22.6405 28.752 23.0545 28.5225 23.399C28.293 23.744 27.943 23.979 27.5365 24.0605C27.4595 24.076 27.38 24.0835 27.298 24.0855ZM16.06 24.7855C15.758 23.282 16.735 21.813 18.2385 21.5105L20.036 21.149C20.0325 22.082 20.123 23.015 20.307 23.9315C20.491 24.847 20.7675 25.743 21.132 26.603L19.3345 26.964C17.8335 27.2675 16.3625 26.2895 16.06 24.7855ZM21.8975 25.8155C21.6375 25.14 21.43 24.4445 21.2875 23.735C21.1445 23.023 21.067 22.2995 21.046 21.575C22.676 20.957 24.224 20.152 25.671 19.182C25.5945 20.3125 25.6925 21.5855 25.937 22.8005C26.1915 24.067 26.587 25.2495 27.0765 26.227C25.3715 25.8935 23.6345 25.7555 21.8975 25.8155ZM20.7425 30.4765L19.004 28.009C19.18 27.9985 19.356 27.9805 19.5315 27.945L20.462 27.758L21.4835 30.41L20.7425 30.4765ZM27.5 29H22.0125L21.457 27.558L21.945 27.46C22.0965 27.4295 22.2255 27.331 22.294 27.193C22.353 27.074 22.352 26.9395 22.311 26.8155C24.154 26.7835 25.993 26.9745 27.788 27.4045C28.0895 27.8135 28.404 28.136 28.723 28.363C28.446 28.756 27.9955 29 27.5 29ZM30.9115 26.0485C30.7325 27.0205 30.3655 27.6755 29.9535 27.7585C29.54 27.8405 28.95 27.3785 28.4095 26.5515C28.128 26.121 27.871 25.6115 27.643 25.05C27.6725 25.045 27.7045 25.047 27.7335 25.041C28.4015 24.9065 28.9775 24.5205 29.355 23.953C29.7325 23.3855 29.866 22.7055 29.732 22.037C29.4545 20.658 28.108 19.761 26.7285 20.039C26.6985 20.045 26.6685 20.0575 26.6385 20.065C26.617 18.0625 27.142 16.792 27.726 16.675C27.7575 16.6685 27.7905 16.6655 27.825 16.6655C28.65 16.6655 30.0995 18.533 30.7625 21.8305C31.074 23.3805 31.127 24.8785 30.9115 26.0485Z" fill="#CD9D5D"/>
<path d="M5 16.5C5.276 16.5 5.5 16.276 5.5 16V15.5H6.5V16C6.5 16.276 6.724 16.5 7 16.5C7.276 16.5 7.5 16.276 7.5 16V13.5C7.5 12.673 6.827 12 6 12C5.173 12 4.5 12.673 4.5 13.5V16C4.5 16.276 4.724 16.5 5 16.5ZM6 13C6.2755 13 6.5 13.2245 6.5 13.5V14.5H5.5V13.5C5.5 13.2245 5.7245 13 6 13Z" fill="#CD9D5D"/>
<path d="M9 16.5H9.75C10.9905 16.5 12 15.4905 12 14.25C12 13.0095 10.9905 12 9.75 12H9C8.724 12 8.5 12.224 8.5 12.5V16C8.5 16.276 8.724 16.5 9 16.5ZM9.5 13H9.75C10.439 13 11 13.561 11 14.25C11 14.939 10.439 15.5 9.75 15.5H9.5V13Z" fill="#CD9D5D"/>
<path d="M16 11H27C27.276 11 27.5 10.776 27.5 10.5C27.5 10.224 27.276 10 27 10H16C15.724 10 15.5 10.224 15.5 10.5C15.5 10.776 15.724 11 16 11Z" fill="#CD9D5D"/>
<path d="M16 13.5H27C27.276 13.5 27.5 13.276 27.5 13C27.5 12.724 27.276 12.5 27 12.5H16C15.724 12.5 15.5 12.724 15.5 13C15.5 13.276 15.724 13.5 16 13.5Z" fill="#CD9D5D"/>
<path d="M16 16H22.5C22.776 16 23 15.776 23 15.5C23 15.224 22.776 15 22.5 15H16C15.724 15 15.5 15.224 15.5 15.5C15.5 15.776 15.724 16 16 16Z" fill="#CD9D5D"/>
</g>
</g>
<defs>
<clipPath id="clip0_114_443">
<rect width="32" height="32" fill="white"/>
</clipPath>
<clipPath id="clip1_114_443">
<rect width="32" height="32" fill="white"/>
</clipPath>
</defs>
</svg>
