<svg width="32" height="32" viewBox="0 0 32 32" fill="none" xmlns="http://www.w3.org/2000/svg">
<g clip-path="url(#clip0_123_2197)">
<path d="M12 6.51152H11C10.724 6.51152 10.5 6.28702 10.5 6.01152H9.5C9.5 6.83852 10.173 7.51152 11 7.51152H12C12.827 7.51152 13.5 6.83852 13.5 6.01152C13.5 5.18452 12.827 4.51152 12 4.51152H11C10.724 4.51152 10.5 4.28702 10.5 4.01152C10.5 3.73602 10.724 3.51152 11 3.51152H12C12.276 3.51152 12.5 3.73602 12.5 4.01152H13.5C13.5 3.18452 12.827 2.51152 12 2.51152H11C10.173 2.51152 9.5 3.18452 9.5 4.01152C9.5 4.83852 10.173 5.51152 11 5.51152H12C12.276 5.51152 12.5 5.73602 12.5 6.01152C12.5 6.28702 12.276 6.51152 12 6.51152Z" fill="#CD9D5D"/>
<path d="M16 7.51152H17.5V6.51152H16C15.724 6.51152 15.5 6.28702 15.5 6.01152V5.51152H17.5V4.51152H15.5V4.01152C15.5 3.73602 15.724 3.51152 16 3.51152H17.5V2.51152H16C15.173 2.51152 14.5 3.18452 14.5 4.01152V6.01152C14.5 6.83852 15.173 7.51152 16 7.51152Z" fill="#CD9D5D"/>
<path d="M20 7.51152H21C21.827 7.51152 22.5 6.83852 22.5 6.01152V4.01152C22.5 3.18452 21.827 2.51152 21 2.51152H20C19.173 2.51152 18.5 3.18452 18.5 4.01152V6.01152C18.5 6.83852 19.173 7.51152 20 7.51152ZM19.5 4.01152C19.5 3.73602 19.724 3.51152 20 3.51152H21C21.276 3.51152 21.5 3.73602 21.5 4.01152V6.01152C21.5 6.28702 21.276 6.51152 21 6.51152H20C19.724 6.51152 19.5 6.28702 19.5 6.01152V4.01152Z" fill="#CD9D5D"/>
<path d="M31.5 11.5H29.5V10C29.5 8.6215 28.3785 7.5 27 7.5H24.5V2.0115C24.5 1.1845 23.827 0.511499 23 0.511499H9C8.173 0.511499 7.5 1.1845 7.5 2.0115V7.5H5C3.6215 7.5 2.5 8.6215 2.5 10V13.041C1.3065 13.734 0.5 15.0235 0.5 16.5C0.5 17.9765 1.3065 19.266 2.5 19.959V24C2.5 25.3785 3.6215 26.5 5 26.5H11V28.5H10.5C9.1215 28.5 8 29.6215 8 31V31.5H24V31C24 29.6215 22.8785 28.5 21.5 28.5H21V26.5H27C28.3785 26.5 29.5 25.3785 29.5 24V20.5H31.5V11.5ZM8.5 2.0115C8.5 1.736 8.724 1.5115 9 1.5115H23C23.276 1.5115 23.5 1.736 23.5 2.0115V8.0115C23.5 8.287 23.276 8.5115 23 8.5115H17.849L14.9165 10.4555C14.75 10.5675 14.5 10.4325 14.5 10.2315V8.5115H9C8.724 8.5115 8.5 8.287 8.5 8.0115V2.0115ZM3.5 10C3.5 9.173 4.173 8.5 5 8.5H7.5885C7.7925 9.0865 8.3445 9.5115 9 9.5115H13.5V10.2315C13.5 10.931 14.069 11.5 14.7685 11.5C15.0185 11.5 15.2605 11.427 15.469 11.289L18.1505 9.5115H23C23.655 9.5115 24.2075 9.0865 24.4115 8.5H27C27.827 8.5 28.5 9.173 28.5 10V11.5H24.5V16H21.5V13.5H18.5V19.5H17.5V12.5H14.5V19.5H13.5V14.5H10.5V16H8.4655C8.218 14.03 6.536 12.5 4.5 12.5C4.154 12.5 3.8205 12.5485 3.5 12.6315V10ZM19.5 19.5V14.5H20.5V19.5H19.5ZM16.5 19.5H15.5V13.5H16.5V19.5ZM12.5 19.5H11.5V15.5H12.5V19.5ZM1.5 16.5C1.5 14.8455 2.8455 13.5 4.5 13.5C6.1545 13.5 7.5 14.8455 7.5 16.5C7.5 18.1545 6.1545 19.5 4.5 19.5C2.8455 19.5 1.5 18.1545 1.5 16.5ZM22.9145 30.5H9.0855C9.292 29.918 9.848 29.5 10.5 29.5H21.5C22.152 29.5 22.708 29.918 22.9145 30.5ZM20 28.5H12V26.5H20V28.5ZM27 25.5H5C4.173 25.5 3.5 24.827 3.5 24V22.5H28.5V24C28.5 24.827 27.827 25.5 27 25.5ZM28.5 21.5H3.5V20.3685C3.8205 20.4515 4.154 20.5 4.5 20.5C6.536 20.5 8.218 18.97 8.4655 17H10.5V19.5H9.5V20.5H22.5V19.5H21.5V17H24.5V20.5H28.5V21.5ZM30.5 19.5H25.5V12.5H30.5V19.5Z" fill="#CD9D5D"/>
<path d="M14 24.5C14.2761 24.5 14.5 24.2762 14.5 24C14.5 23.7239 14.2761 23.5 14 23.5C13.7239 23.5 13.5 23.7239 13.5 24C13.5 24.2762 13.7239 24.5 14 24.5Z" fill="#CD9D5D"/>
<path d="M16 24.5C16.2761 24.5 16.5 24.2762 16.5 24C16.5 23.7239 16.2761 23.5 16 23.5C15.7239 23.5 15.5 23.7239 15.5 24C15.5 24.2762 15.7239 24.5 16 24.5Z" fill="#CD9D5D"/>
<path d="M18 24.5C18.2761 24.5 18.5 24.2762 18.5 24C18.5 23.7239 18.2761 23.5 18 23.5C17.7239 23.5 17.5 23.7239 17.5 24C17.5 24.2762 17.7239 24.5 18 24.5Z" fill="#CD9D5D"/>
<path d="M6.5 16.5C6.5 15.397 5.603 14.5 4.5 14.5C3.397 14.5 2.5 15.397 2.5 16.5C2.5 17.603 3.397 18.5 4.5 18.5C5.603 18.5 6.5 17.603 6.5 16.5ZM3.5 16.5C3.5 15.9485 3.9485 15.5 4.5 15.5C5.0515 15.5 5.5 15.9485 5.5 16.5C5.5 17.0515 5.0515 17.5 4.5 17.5C3.9485 17.5 3.5 17.0515 3.5 16.5Z" fill="#CD9D5D"/>
<path d="M26.5 13.5H29.5V14.5H26.5V13.5Z" fill="#CD9D5D"/>
<path d="M26.5 15.5H29.5V16.5H26.5V15.5Z" fill="#CD9D5D"/>
<path d="M26.5 17.5H29.5V18.5H26.5V17.5Z" fill="#CD9D5D"/>
</g>
<defs>
<clipPath id="clip0_123_2197">
<rect width="32" height="32" fill="white"/>
</clipPath>
</defs>
</svg>
