<svg width="32" height="32" viewBox="0 0 32 32" fill="none" xmlns="http://www.w3.org/2000/svg">
<g clip-path="url(#clip0_123_2185)">
<path d="M28.1608 4.87274C28.796 4.87274 29.3099 4.3588 29.3099 3.72365C29.3099 3.08849 28.796 2.57455 28.1608 2.57455C27.5257 2.57455 27.0117 3.08849 27.0117 3.72365C27.0117 4.3588 27.5305 4.87274 28.1608 4.87274ZM28.1608 3.39395C28.3451 3.39395 28.4954 3.54425 28.4954 3.72849C28.4954 3.91274 28.3451 4.06304 28.1608 4.06304C27.9717 4.06304 27.8263 3.91758 27.8263 3.72849C27.8263 3.5394 27.9766 3.39395 28.1608 3.39395Z" fill="#CD9D5D"/>
<path d="M29.4349 0.71759H5.81312C4.91615 0.71759 4.18403 1.44971 4.18403 2.34668V4.83395H2.56464C1.66767 4.83395 0.935547 5.56608 0.935547 6.46305V26.8897C0.935547 27.7867 1.66767 28.5188 2.56464 28.5188H13.3913V30.8752C13.3913 31.0982 13.5755 31.2824 13.7986 31.2824H21.4495C21.6725 31.2824 21.8568 31.0982 21.8568 30.8752V28.5188H26.1865C27.0834 28.5188 27.8155 27.7867 27.8155 26.8897V24.4024H29.4349C30.3319 24.4024 31.064 23.6703 31.064 22.7733V2.34668C31.064 1.44971 30.3319 0.71759 29.4349 0.71759ZM4.99858 2.34668C4.99858 1.89577 5.36706 1.53214 5.81312 1.53214H29.4349C29.8859 1.53214 30.2495 1.90062 30.2495 2.34668V5.92001H14.7925L12.9743 4.03395C12.8337 3.8885 12.6398 3.80608 12.441 3.80608H8.43615C8.02888 3.80608 7.69433 4.14062 7.69433 4.54789V5.92001H4.99858V2.34668ZM2.56464 27.7091C2.11373 27.7091 1.75009 27.3406 1.75009 26.8946V6.46305C1.75009 6.01214 2.11858 5.6485 2.56464 5.6485H4.18403V22.7782C4.18403 23.6752 4.91615 24.4073 5.81312 24.4073H14.6568C14.8168 24.7176 14.8895 25.0667 14.8604 25.4255H14.2301C13.7646 25.4255 13.3913 25.8037 13.3913 26.2643V27.7091H2.56464ZM17.2216 19.1806C17.304 19.0352 17.4543 18.943 17.624 18.943C17.8762 18.943 18.0798 19.1467 18.0798 19.3988C18.0798 19.5637 17.9925 19.714 17.8519 19.7964C17.6968 19.8885 17.5125 19.8788 17.3234 19.7721C17.2992 19.7576 17.2749 19.7382 17.2652 19.714C17.1101 19.4667 17.1731 19.2727 17.2216 19.1806ZM17.2168 18.2061C16.921 18.3079 16.6689 18.5067 16.5137 18.7879C16.281 19.2049 16.3101 19.714 16.5816 20.1503C16.6689 20.2861 16.7852 20.3976 16.9258 20.48C17.1489 20.6061 17.3913 20.674 17.6289 20.674C17.8519 20.674 18.0701 20.6158 18.264 20.5043C18.6519 20.2764 18.8943 19.8546 18.8943 19.4037C18.8943 18.8461 18.5307 18.3758 18.0313 18.2061V16.1115L21.6337 22.6133C21.6289 22.6182 21.624 22.6279 21.6095 22.6327C20.3343 22.9624 19.5004 24.1552 19.5683 25.4255H15.6846C15.7574 24.1503 14.9186 22.9576 13.6192 22.594L17.2168 16.1115V18.2061ZM21.0422 30.4679H14.2058L14.2301 26.2352H21.018C21.0325 26.2352 21.0422 26.2449 21.0422 26.2594V30.4679ZM27.001 26.8897C27.001 27.3406 26.6325 27.7043 26.1865 27.7043H21.8568V26.2594C21.8568 25.794 21.4786 25.4206 21.018 25.4206H20.3877C20.3586 25.0618 20.4362 24.7127 20.5913 24.4024H27.001V26.8897ZM29.4349 23.5927H21.3816C21.5125 23.52 21.6531 23.457 21.8083 23.4182C22.0652 23.3503 22.2737 23.1709 22.3804 22.9285C22.4822 22.6909 22.4677 22.4243 22.3416 22.1964L18.1719 14.6861C18.0652 14.4873 17.8568 14.3612 17.6289 14.3612C17.3962 14.3661 17.1877 14.4824 17.0762 14.6812L12.9016 22.1964C12.7755 22.4243 12.7659 22.6958 12.8677 22.9333C12.9695 23.1758 13.178 23.3503 13.4349 23.4182C13.5901 23.457 13.7259 23.52 13.8616 23.5927H5.81312C5.36221 23.5927 4.99858 23.2243 4.99858 22.7782V6.73456H7.76221C8.16949 6.73456 8.50403 6.40001 8.50403 5.99274V4.62062H12.4071L14.2252 6.50668C14.3659 6.65214 14.5598 6.73456 14.7586 6.73456H30.2495V22.7733C30.2495 23.2243 29.8859 23.5927 29.4349 23.5927Z" fill="#CD9D5D"/>
<path d="M25.3874 4.87274C26.0225 4.87274 26.5365 4.3588 26.5365 3.72365C26.5365 3.08849 26.0225 2.57455 25.3874 2.57455C24.7522 2.57455 24.2383 3.08849 24.2383 3.72365C24.2383 4.3588 24.7522 4.87274 25.3874 4.87274ZM25.3874 3.39395C25.5716 3.39395 25.7219 3.54425 25.7219 3.72849C25.7219 3.91274 25.5716 4.06304 25.3874 4.06304C25.1983 4.06304 25.0528 3.91758 25.0528 3.72849C25.0528 3.5394 25.2031 3.39395 25.3874 3.39395Z" fill="#CD9D5D"/>
<path d="M22.6081 4.87274C23.2432 4.87274 23.7572 4.3588 23.7572 3.72365C23.7572 3.08849 23.2432 2.57455 22.6081 2.57455C21.9729 2.57455 21.459 3.08849 21.459 3.72365C21.459 4.3588 21.9729 4.87274 22.6081 4.87274ZM22.6081 3.39395C22.7923 3.39395 22.9426 3.54425 22.9426 3.72849C22.9426 3.91274 22.7923 4.06304 22.6081 4.06304C22.419 4.06304 22.2735 3.91758 22.2735 3.72849C22.2735 3.5394 22.4238 3.39395 22.6081 3.39395Z" fill="#CD9D5D"/>
<path d="M25.4739 10.2836C25.2364 10.5212 25.0861 10.8218 25.0279 11.1418H19.3309V10.5018C19.3309 10.0655 18.977 9.71152 18.5406 9.71152H16.703C16.2667 9.71152 15.9127 10.0655 15.9127 10.5018V11.1418H10.2206C10.1673 10.8267 10.017 10.5261 9.77455 10.2788C9.15879 9.67273 8.10667 9.68243 7.50546 10.2836C7.2 10.5891 7.03516 10.9915 7.03516 11.4182C7.03516 11.8497 7.20485 12.257 7.50546 12.5527C7.81091 12.8679 8.21819 13.0279 8.64 13.0279C8.90667 13.0279 9.17819 12.9649 9.43516 12.8339C9.71152 12.6933 9.9394 12.4606 10.0752 12.1745C10.1091 12.1018 10.1382 12.0291 10.1624 11.9564H14.1139C11.9661 13.0036 10.3467 14.9721 9.78425 17.3479H9.15394C8.71758 17.3479 8.36364 17.7018 8.36364 18.1382V19.9758C8.36364 20.4121 8.71758 20.7661 9.15394 20.7661H10.9915C11.4279 20.7661 11.7818 20.4121 11.7818 19.9758V18.1382C11.7818 17.7018 11.4279 17.3479 10.9915 17.3479H10.623C11.3018 14.7879 13.3527 12.7806 15.9273 12.16V12.3345C15.9273 12.7709 16.2812 13.1249 16.7176 13.1249H18.5552C18.9915 13.1249 19.3455 12.7709 19.3455 12.3345V12.16C21.9152 12.7806 23.9661 14.7879 24.6497 17.3479H24.3152C23.8788 17.3479 23.5249 17.7018 23.5249 18.1382V19.9758C23.5249 20.4121 23.8788 20.7661 24.3152 20.7661H26.1527C26.5891 20.7661 26.943 20.4121 26.943 19.9758V18.1382C26.943 17.7018 26.5891 17.3479 26.1527 17.3479H25.4885C24.9212 14.9721 23.3018 12.9988 21.1588 11.9564H25.12C25.1976 12.1794 25.3236 12.383 25.4933 12.5527C25.7988 12.8679 26.2061 13.0279 26.6279 13.0279C26.8945 13.0279 27.1661 12.9649 27.423 12.8339C27.6994 12.6933 27.9273 12.4606 28.063 12.1745C28.3782 11.5103 28.2667 10.7879 27.7673 10.2788C27.1321 9.67758 26.08 9.68243 25.4739 10.2836ZM9.33334 11.8303C9.27516 11.9467 9.17819 12.0485 9.06182 12.1067C8.64 12.32 8.27637 12.1842 8.07758 11.9758C7.92728 11.8303 7.84485 11.6315 7.84485 11.4182C7.84485 11.2097 7.92728 11.0109 8.07758 10.8558C8.22788 10.7055 8.42667 10.623 8.64 10.623C8.84849 10.623 9.05213 10.7055 9.19758 10.8509C9.4497 11.1127 9.49819 11.4764 9.33334 11.8303ZM10.9818 19.9515L9.16849 19.9758L9.14425 18.1624H10.9576L10.9818 19.9515ZM26.1382 19.9515L24.3249 19.9758L24.3006 18.1624H26.1139L26.1382 19.9515ZM16.7321 12.3394L16.7224 11.7285C16.7321 11.6849 16.7321 11.6412 16.7273 11.5927V11.5879C16.7273 11.5733 16.737 11.5636 16.737 11.5491C16.737 11.5249 16.7273 11.5055 16.7224 11.4861L16.7079 10.5309H18.5212L18.5358 11.4861C18.5309 11.5103 18.5212 11.5297 18.5212 11.5539C18.5212 11.5685 18.5261 11.5782 18.5309 11.5927V11.5976C18.5212 11.6606 18.5261 11.7188 18.5406 11.7721L18.5503 12.32L16.7321 12.3394ZM27.3067 11.8303C27.2485 11.9467 27.1515 12.0485 27.0352 12.1067C26.6133 12.32 26.2497 12.1842 26.0509 11.9758C25.9006 11.8303 25.8182 11.6315 25.8182 11.4182C25.8182 11.2097 25.9006 11.0109 26.0509 10.8558C26.2012 10.7055 26.4 10.623 26.6133 10.623C26.8218 10.623 27.0255 10.7055 27.1709 10.8509C27.423 11.1127 27.4715 11.4764 27.3067 11.8303Z" fill="#CD9D5D"/>
</g>
<defs>
<clipPath id="clip0_123_2185">
<rect width="32" height="32" fill="white"/>
</clipPath>
</defs>
</svg>
