<svg width="32" height="32" viewBox="0 0 32 32" fill="none" xmlns="http://www.w3.org/2000/svg">
<path d="M26.8985 0.5H5.10247C3.19572 0.5 1.64453 2.05119 1.64453 3.95794V30.0281C1.64453 30.8397 2.30484 31.5 3.11647 31.5H22.9686C23.7802 31.5 24.4405 30.8397 24.4405 30.0281V16.9436L25.2647 15.5162C25.7698 14.6413 25.469 13.5185 24.5941 13.0134L24.4406 12.9248V10.5173H28.8845C29.6962 10.5173 30.3565 9.857 30.3565 9.04537V3.95794C30.3564 2.05119 28.8052 0.5 26.8985 0.5ZM24.3987 15.0162L17.8808 26.3056L15.9777 25.2068L22.4956 13.9175C22.6063 13.7258 22.7859 13.5885 23.0013 13.5308C23.2166 13.4731 23.4409 13.5022 23.6325 13.6129L24.0941 13.8793C24.4914 14.1088 24.6281 14.6188 24.3987 15.0162ZM15.7947 26.2559L17.0638 26.9886L15.7947 27.7213V26.2559ZM23.4405 12.5151C23.21 12.4869 22.9738 12.5029 22.7424 12.5649C22.269 12.6918 21.8738 12.9946 21.6296 13.4176L14.8617 25.1399C14.8178 25.2159 14.7947 25.3021 14.7947 25.3899V28.0872H6.83434C6.39891 28.0872 6.04466 27.733 6.04466 27.2976C6.04466 26.8621 6.39891 26.5079 6.83434 26.5079H8.59409C9.58091 26.5079 10.3837 25.7051 10.3837 24.7183C10.3837 23.7314 9.58091 22.9286 8.59409 22.9286H8.38816C7.95272 22.9286 7.59847 22.5743 7.59847 22.1389C7.59847 21.2077 7.60091 20.2659 7.60347 19.3464H8.44428C9.02391 19.3464 9.49547 18.8749 9.49547 18.2952V17.0099C9.49547 16.4302 9.02391 15.9586 8.44428 15.9586H7.61022C7.61022 15.4616 7.60966 15.0057 7.60841 14.5709H8.44434C9.02397 14.5709 9.49553 14.0993 9.49553 13.5197V12.2343C9.49553 11.6547 9.02397 11.1831 8.44434 11.1831H7.59853V10.3479H17.4371V11.4424H16.6947C16.4186 11.4424 16.1947 11.6663 16.1947 11.9424C16.1947 12.2185 16.4186 12.4424 16.6947 12.4424H17.4371V13.5369H16.6947C16.4186 13.5369 16.1947 13.7607 16.1947 14.0369C16.1947 14.313 16.4186 14.5369 16.6947 14.5369H17.4371V15.6314H16.7777C16.5015 15.6314 16.2777 15.8552 16.2777 16.1314C16.2777 16.4075 16.5015 16.6314 16.7777 16.6314H17.9371C18.2132 16.6314 18.4371 16.4075 18.4371 16.1314V9.84781C18.4371 9.57169 18.2132 9.34781 17.9371 9.34781H12.3928V7.61619H15.6003C16.1495 7.61619 16.5963 7.16937 16.5963 6.62012V5.134C16.5963 4.58481 16.1496 4.138 15.6003 4.138H8.18528C7.63609 4.138 7.18922 4.58481 7.18922 5.134V6.62019C7.18922 7.16944 7.63603 7.61625 8.18528 7.61625H11.3928V9.34787H7.09847C6.82234 9.34787 6.59847 9.57175 6.59847 9.84787V11.1831H5.75266C5.17303 11.1831 4.70147 11.6547 4.70147 12.2343V13.5197C4.70147 14.0993 5.17303 14.5709 5.75266 14.5709H6.60841C6.60972 15.0056 6.61028 15.4615 6.61022 15.9586H5.75266C5.17303 15.9586 4.70147 16.4302 4.70147 17.0099V18.2952C4.70147 18.8749 5.17303 19.3464 5.75266 19.3464H6.60347C6.60084 20.2657 6.59847 21.2073 6.59847 22.1389C6.59847 23.1257 7.40134 23.9286 8.38816 23.9286H8.59409C9.02953 23.9286 9.38372 24.2828 9.38372 24.7183C9.38372 25.1537 9.02953 25.5079 8.59409 25.5079H6.83434C5.84753 25.5079 5.04466 26.3107 5.04466 27.2976C5.04466 28.2844 5.84753 29.0872 6.83434 29.0872H15.2947C15.3825 29.0872 15.4687 29.0641 15.5447 29.0203L18.3138 27.4216C18.3898 27.3777 18.453 27.3146 18.4968 27.2386L23.4406 18.6758V30.0281C23.4406 30.2884 23.2289 30.5001 22.9687 30.5001H3.11647C2.85622 30.5001 2.64447 30.2884 2.64447 30.0281V3.95794C2.64453 2.60262 3.74709 1.5 5.10247 1.5H24.4691C23.8345 2.12725 23.4405 2.99731 23.4405 3.95794V12.5151ZM8.44434 16.9586C8.47166 16.9586 8.49553 16.9826 8.49553 17.0099V18.2952C8.49553 18.3226 8.47159 18.3464 8.44434 18.3464H5.75266C5.72534 18.3464 5.70147 18.3225 5.70147 18.2952V17.0099C5.70147 16.9826 5.72541 16.9586 5.75266 16.9586H8.44434ZM8.44434 12.1831C8.47166 12.1831 8.49553 12.207 8.49553 12.2343V13.5196C8.49553 13.5469 8.47159 13.5708 8.44434 13.5708H5.75266C5.72534 13.5708 5.70147 13.5469 5.70147 13.5196V12.2343C5.70147 12.2069 5.72541 12.1831 5.75266 12.1831H8.44434ZM8.18928 6.62012L8.18534 5.13794H15.5963L15.6003 6.61613L8.18928 6.62012ZM29.3564 9.04537C29.3564 9.30562 29.1447 9.51731 28.8844 9.51731H24.4405V3.95794C24.4405 2.60262 25.5431 1.5 26.8984 1.5C28.2537 1.5 29.3563 2.60262 29.3563 3.95794V9.04537H29.3564ZM14.5213 14.0719C14.5213 14.3481 14.2974 14.5719 14.0213 14.5719H11.1618C10.8857 14.5719 10.6618 14.3481 10.6618 14.0719C10.6618 13.7958 10.8857 13.5719 11.1618 13.5719H14.0213C14.2974 13.5719 14.5213 13.7957 14.5213 14.0719ZM14.5213 16.1313C14.5213 16.4074 14.2974 16.6313 14.0213 16.6313H11.1618C10.8857 16.6313 10.6618 16.4074 10.6618 16.1313C10.6618 15.8551 10.8857 15.6313 11.1618 15.6313H14.0213C14.2974 15.6313 14.5213 15.8551 14.5213 16.1313ZM14.5213 11.9423C14.5213 12.2184 14.2974 12.4423 14.0213 12.4423H11.1618C10.8857 12.4423 10.6618 12.2184 10.6618 11.9423C10.6618 11.6662 10.8857 11.4423 11.1618 11.4423H14.0213C14.2974 11.4423 14.5213 11.6662 14.5213 11.9423Z" fill="#CD9D5D"/>
</svg>
