<svg width="32" height="32" viewBox="0 0 32 32" fill="none" xmlns="http://www.w3.org/2000/svg">
<path d="M14.9327 4.55756C7.36907 5.38181 4.02361 14.6909 9.45392 20.1212C10.666 21.3333 11.2479 22.7879 11.2963 24.4848C10.666 24.7273 10.1812 25.3091 10.1812 25.9879C10.1812 26.7636 10.7145 27.3939 11.4418 27.5394C11.3448 27.7333 11.3448 27.9273 11.3448 28.1212C11.3448 28.9454 12.0236 29.6242 12.8479 29.6242H13.5751C13.7691 30.6909 14.7388 31.4667 15.8539 31.4667H16.0963C17.2115 31.4667 18.1327 30.6909 18.3751 29.6242H19.1024C19.9266 29.6242 20.6054 28.9454 20.6054 28.0727C20.6054 27.8788 20.5569 27.6848 20.5085 27.4909C21.2357 27.3454 21.8176 26.7151 21.8176 25.8909C21.8176 25.2121 21.3812 24.5818 20.7509 24.3879C20.7994 22.7394 21.4297 21.2364 22.6903 19.9273C28.46 14.0121 23.66 3.58787 14.9327 4.55756ZM16.0963 30.5454H15.8539C15.2721 30.5454 14.7872 30.2061 14.5933 29.6727H17.3569C17.163 30.1576 16.6782 30.5454 16.0963 30.5454ZM19.1024 28.703C17.26 28.703 14.7388 28.703 12.8963 28.703C12.6054 28.703 12.363 28.4606 12.363 28.1212C12.363 27.8303 12.6054 27.5879 12.8963 27.5879H19.1024C19.3933 27.5879 19.6357 27.8303 19.6357 28.1697C19.6357 28.4606 19.3933 28.703 19.1024 28.703ZM20.1691 26.6182C18.0357 26.6182 13.866 26.6182 11.7812 26.6182C11.4418 26.6182 11.1509 26.3273 11.1509 25.9879C11.1509 25.6485 11.4418 25.3576 11.7812 25.3576H20.1691C20.5085 25.3576 20.7994 25.6485 20.7994 25.9879C20.7994 26.3273 20.5085 26.6182 20.1691 26.6182ZM21.9145 19.3454C20.5085 20.8 19.7812 22.497 19.7327 24.3879H16.4842V19.7333H16.8236C17.066 19.7333 17.26 19.5394 17.3085 19.297L17.4539 18.1818C17.6963 18.0848 17.8903 18.0364 18.1327 17.8909L19.0539 18.5697C19.2479 18.7151 19.5388 18.7151 19.6842 18.5212L20.8963 17.3576C21.0903 17.1636 21.0903 16.9212 20.9448 16.7273L20.266 15.806C20.363 15.6121 20.46 15.3697 20.5569 15.1273L21.6721 14.9818C21.9145 14.9333 22.1085 14.7394 22.1085 14.497V12.8C22.1085 12.5576 21.9145 12.3636 21.6721 12.3151L20.5569 12.1697C20.46 11.9273 20.4115 11.7333 20.266 11.4909L20.9448 10.5697C21.0903 10.3757 21.0903 10.0848 20.8963 9.93938L19.6842 8.72726C19.4903 8.53332 19.2479 8.53332 19.0539 8.67878L18.1327 9.35756C17.8903 9.26059 17.6963 9.16363 17.4539 9.06666L17.3085 7.9515C17.26 7.70908 17.066 7.51514 16.8236 7.51514H15.1266C14.8842 7.51514 14.6903 7.70908 14.6418 7.9515L14.4963 9.06666C14.2539 9.16363 14.06 9.21211 13.8176 9.35756L12.8963 8.67878C12.7024 8.53332 12.4115 8.53332 12.266 8.72726L11.1024 9.8909C10.9085 10.0848 10.9085 10.3273 11.0539 10.5212L11.7327 11.4424C11.6357 11.6364 11.5388 11.8788 11.4418 12.1212L10.3266 12.2667C10.0842 12.3151 9.89028 12.5091 9.89028 12.7515V14.4485C9.89028 14.6909 10.0842 14.8848 10.3266 14.9333L11.4418 15.0788C11.5388 15.3212 11.5872 15.5151 11.7327 15.7576L11.0539 16.6788C10.9085 16.8727 10.9085 17.1636 11.1024 17.3091L12.266 18.4727C12.46 18.6667 12.7024 18.6667 12.8963 18.5212L13.8176 17.8424C14.06 17.9394 14.2539 18.0364 14.4963 18.1333L14.6418 19.2485C14.6903 19.4909 14.8842 19.6848 15.1266 19.6848H15.5145V24.3394H12.266C12.2176 22.4485 11.5388 20.7515 10.1812 19.3939C5.18725 14.5454 8.38725 6.25453 15.0297 5.52726C22.8357 4.65453 27.1509 13.9636 21.9145 19.3454ZM12.7024 15.6121C12.5085 15.2727 12.363 14.9333 12.266 14.5939C12.2176 14.4 12.0721 14.2545 11.8782 14.2545L10.86 14.0606V13.2364L11.8782 13.0909C12.0721 13.0424 12.2176 12.897 12.266 12.7515C12.363 12.4121 12.5085 12.0242 12.7024 11.7333C12.7994 11.5879 12.7994 11.3454 12.6539 11.2L12.0236 10.3757L12.6054 9.79393L13.4297 10.4242C13.5751 10.5212 13.8176 10.5697 13.963 10.4727C14.3024 10.2788 14.6418 10.1333 14.9812 10.0364C15.1751 9.98787 15.3206 9.84241 15.3206 9.64847L15.466 8.63029H16.2903L16.4357 9.64847C16.4842 9.84241 16.6297 9.98787 16.7751 10.0364C17.1145 10.1333 17.5024 10.2788 17.7933 10.4727C17.9388 10.5697 18.1812 10.5697 18.3266 10.4242L19.1509 9.79393L19.7327 10.3757L19.2963 11.1515C19.1994 11.297 19.1509 11.5394 19.2479 11.6848C19.4418 12.0242 19.5872 12.3636 19.6842 12.703C19.7327 12.897 19.8782 13.0424 20.0721 13.0424L21.0903 13.1879V14.0606L20.0721 14.206C19.8782 14.2545 19.7327 14.4 19.6842 14.5454C19.5872 14.8848 19.4418 15.2727 19.2479 15.5636C19.1509 15.7091 19.1509 15.9515 19.2963 16.097L19.8782 16.9697L19.2963 17.5515L18.4721 16.9212C18.3266 16.8242 18.0842 16.7757 17.9388 16.8727C17.5994 17.0667 17.26 17.2121 16.9206 17.3091C16.7266 17.3576 16.5812 17.503 16.5812 17.697L16.4357 18.7151H15.6115L15.466 17.697C15.4176 17.503 15.2721 17.3576 15.1266 17.3091C14.7872 17.2121 14.3994 17.0667 14.1085 16.8727C13.963 16.7757 13.7206 16.7757 13.5751 16.9212L12.7509 17.5515L12.0721 16.9697L12.7024 16.1454C12.7994 15.9515 12.8479 15.7576 12.7024 15.6121Z" fill="#CD9D5D"/>
<path d="M16.3872 3.49092C16.6781 3.49092 16.872 3.29698 16.872 3.00608V0.969712C16.872 0.678803 16.6781 0.484863 16.3872 0.484863C16.0963 0.484863 15.9023 0.678803 15.9023 0.969712V3.00608C15.9023 3.2485 16.0963 3.49092 16.3872 3.49092Z" fill="#CD9D5D"/>
<path d="M10.1334 4.60608C10.2788 4.8485 10.5697 4.89698 10.8122 4.80002C11.0546 4.65456 11.1031 4.36365 11.0061 4.12123L9.98791 2.37577C9.84246 2.13335 9.55155 2.08486 9.30912 2.18183C9.0667 2.32729 9.01821 2.6182 9.11518 2.86062L10.1334 4.60608Z" fill="#CD9D5D"/>
<path d="M6.44766 8.00004L4.70221 6.98185C4.45978 6.8364 4.16887 6.93337 4.02342 7.17579C3.87796 7.41822 3.97493 7.70913 4.21736 7.85458L5.96281 8.87276C6.20524 9.01822 6.49615 8.92125 6.6416 8.67882C6.73857 8.4364 6.6416 8.14549 6.44766 8.00004Z" fill="#CD9D5D"/>
<path d="M4.94551 14.1576C4.94551 13.8667 4.75157 13.6727 4.46067 13.6727H2.4243C2.13339 13.6727 1.93945 13.8667 1.93945 14.1576C1.93945 14.4485 2.13339 14.6424 2.4243 14.6424H4.46067C4.70309 14.6424 4.94551 14.4485 4.94551 14.1576Z" fill="#CD9D5D"/>
<path d="M5.57606 19.5879L3.83061 20.6061C3.58818 20.7515 3.5397 21.0425 3.63667 21.2849C3.78212 21.5273 4.07303 21.5758 4.31546 21.4788L6.06091 20.4606C6.30333 20.3152 6.35182 20.0243 6.25485 19.7818C6.10939 19.4909 5.81849 19.4425 5.57606 19.5879Z" fill="#CD9D5D"/>
<path d="M27.7816 21.2364L26.0362 20.2182C25.7938 20.0727 25.5029 20.1697 25.3574 20.4121C25.2119 20.6545 25.3089 20.9455 25.5513 21.0909L27.2968 22.1091C27.5392 22.2545 27.8301 22.1576 27.9756 21.9152C28.121 21.6727 28.0241 21.3818 27.7816 21.2364Z" fill="#CD9D5D"/>
<path d="M29.5759 14.4485H27.5395C27.2486 14.4485 27.0547 14.6424 27.0547 14.9333C27.0547 15.2242 27.2486 15.4182 27.5395 15.4182H29.5759C29.8668 15.4182 30.0607 15.2242 30.0607 14.9333C30.0607 14.6424 29.8183 14.4485 29.5759 14.4485Z" fill="#CD9D5D"/>
<path d="M26.4248 9.50304L28.1703 8.48486C28.4127 8.3394 28.4612 8.0485 28.3642 7.80607C28.2188 7.56365 27.9279 7.51516 27.6854 7.61213L25.94 8.63031C25.6976 8.77577 25.6491 9.06668 25.746 9.3091C25.8915 9.55153 26.1824 9.6485 26.4248 9.50304Z" fill="#CD9D5D"/>
<path d="M21.8677 5.1394C22.1102 5.28486 22.4011 5.18789 22.5465 4.94546L23.5647 3.20001C23.7102 2.95759 23.6132 2.66668 23.3708 2.52122C23.1284 2.37577 22.8374 2.47274 22.692 2.71516L21.6738 4.46062C21.5284 4.70304 21.6253 4.99395 21.8677 5.1394Z" fill="#CD9D5D"/>
<path d="M15.9993 16.4849C17.5508 16.4849 18.8599 15.2243 18.8599 13.6243C18.8599 12.0243 17.5993 10.7637 15.9993 10.7637C14.3993 10.7637 13.1387 12.0243 13.1387 13.6243C13.1387 15.2243 14.3993 16.4849 15.9993 16.4849ZM15.9993 11.7819C17.0175 11.7819 17.8902 12.6061 17.8902 13.6728C17.8902 14.7394 17.0175 15.5152 15.9993 15.5152C14.9811 15.5152 14.1084 14.6909 14.1084 13.6243C14.1084 12.5576 14.9326 11.7819 15.9993 11.7819Z" fill="#CD9D5D"/>
</svg>
