<svg width="32" height="32" viewBox="0 0 32 32" fill="none" xmlns="http://www.w3.org/2000/svg">
<g clip-path="url(#clip0_114_601)">
<path d="M31.0796 26.8098L25.7166 21.6057C25.4514 21.3482 25.1037 21.2096 24.7293 21.215C24.4753 21.2188 24.2338 21.2913 24.0236 21.4206L21.5863 19.0555C22.4623 17.6904 23.0232 16.1051 23.1678 14.4031L24.8783 14.4074H24.8796C25.1551 14.4074 25.3788 14.1844 25.3795 13.9088C25.3803 13.6326 25.1569 13.4082 24.8808 13.4074L23.204 13.4031C23.1396 7.98245 18.8536 3.55888 13.4873 3.27545L13.4936 1.91763C13.4949 1.64145 13.272 1.41657 12.9959 1.41532C12.9951 1.41532 12.9943 1.41532 12.9935 1.41532C12.7185 1.41532 12.4948 1.6377 12.4936 1.91301L12.4873 3.27132C7.09413 3.50645 2.76806 7.92188 2.676 13.3504L1.00125 13.3461C1.00081 13.3461 1.00038 13.3461 0.999939 13.3461C0.724439 13.3461 0.500752 13.5691 0.500002 13.8448C0.499252 14.1209 0.722627 14.3453 0.998689 14.3461L2.70694 14.3504C3.11356 19.4477 7.25938 23.5075 12.3933 23.7781L12.3859 25.3684C12.3846 25.6446 12.6075 25.8694 12.8836 25.8707H12.886C13.161 25.8707 13.3847 25.6483 13.3859 25.373L13.3933 23.7821C15.5963 23.6859 17.6212 22.8924 19.2523 21.6169L21.6117 23.9064C21.4887 24.1204 21.4236 24.3639 21.4273 24.6178C21.4329 24.9893 21.5821 25.3356 21.8474 25.5931L27.2106 30.7971C27.4798 31.0583 27.8285 31.1883 28.1769 31.1883C28.5393 31.1883 28.9013 31.0476 29.173 30.7677L31.1093 28.7722C31.642 28.223 31.6288 27.3427 31.0796 26.8098ZM3.67375 13.5268C3.67375 8.41751 7.83044 4.26082 12.9398 4.26082C18.0489 4.26082 22.2056 8.41751 22.2056 13.5268C22.2056 18.6361 18.0489 22.7928 12.9398 22.7928C7.83044 22.7928 3.67375 18.6361 3.67375 13.5268ZM20.9989 19.8789L23.2957 22.1076L22.2764 23.1581L20.0123 20.9611C20.3661 20.6243 20.6958 20.2626 20.9989 19.8789ZM30.3916 28.0758L28.4553 30.0713C28.3065 30.2247 28.0604 30.2285 27.9069 30.0794L22.5438 24.8754C22.4702 24.8039 22.4288 24.7073 22.4273 24.6029C22.4258 24.4986 22.4642 24.4006 22.5356 24.327L24.4719 22.3315C24.5433 22.2579 24.6401 22.2165 24.7443 22.2149C24.7464 22.2149 24.7484 22.2149 24.7505 22.2149C24.8525 22.2149 24.9481 22.2533 25.0203 22.3233L30.3833 27.5274C30.5367 27.6763 30.5404 27.9223 30.3916 28.0758ZM21.3958 13.5268C21.3958 8.86407 17.6024 5.0707 12.9398 5.0707C8.277 5.0707 4.48363 8.86407 4.48363 13.5268C4.48363 18.1896 8.277 21.9829 12.9398 21.9829C17.6024 21.9829 21.3958 18.1895 21.3958 13.5268ZM12.9398 6.0707C17.051 6.0707 20.3958 9.41551 20.3958 13.5268C20.3958 14.2811 20.2828 15.0094 20.0736 15.6961C20.0733 15.6813 20.0728 15.6663 20.0711 15.6514C19.9501 14.5209 19.2579 13.5821 18.2988 13.1076C18.5756 12.7804 18.7431 12.3579 18.7431 11.8967C18.7431 10.8616 17.9009 10.0196 16.8659 10.0196C15.8308 10.0196 14.9888 10.8617 14.9888 11.8967C14.9888 12.3595 15.1574 12.7834 15.4361 13.1111C15.034 13.3106 14.6739 13.5929 14.3834 13.9421C14.3798 13.9403 14.3762 13.9386 14.3726 13.9368C14.6494 13.6097 14.8169 13.1871 14.8169 12.7261C14.8169 11.6909 13.9748 10.8489 12.9398 10.8489C11.9048 10.8489 11.0626 11.691 11.0626 12.7261C11.0626 13.1872 11.2301 13.6097 11.5069 13.9369C11.5033 13.9386 11.4997 13.9404 11.4961 13.9422C11.2056 13.593 10.8455 13.3107 10.4434 13.1111C10.7221 12.7835 10.8908 12.3596 10.8908 11.8968C10.8908 10.8617 10.0486 10.0196 9.01363 10.0196C7.9785 10.0196 7.13644 10.8618 7.13644 11.8968C7.13644 12.3579 7.30388 12.7804 7.58075 13.1076C6.6215 13.5821 5.92931 14.5209 5.80838 15.6515C5.80681 15.6664 5.80619 15.6813 5.80594 15.6962C5.59669 15.0094 5.48369 14.2811 5.48369 13.5269C5.48363 9.41545 8.82844 6.0707 12.9398 6.0707ZM15.0189 16.0339H10.8606C10.8769 15.9909 10.8953 15.9491 10.9141 15.9074C10.9166 15.9019 10.9189 15.8964 10.9211 15.8908C11.0825 15.5414 11.3313 15.2439 11.6383 15.0227C11.6494 15.0151 11.6603 15.0072 11.6706 14.9989C12.0315 14.7487 12.4695 14.6033 12.9398 14.6033C13.4102 14.6033 13.8483 14.7488 14.2093 14.9991C14.2193 15.0072 14.2298 15.0149 14.2406 15.0223C14.5478 15.2434 14.7968 15.541 14.9582 15.8904C14.9606 15.8963 14.9631 15.9022 14.9656 15.908C14.9843 15.9494 15.0027 15.9911 15.0189 16.0339ZM8.13638 11.8968C8.13638 11.4131 8.52988 11.0196 9.01356 11.0196C9.49719 11.0196 9.89069 11.4131 9.89069 11.8968C9.89069 12.3804 9.49719 12.7739 9.01356 12.7739C8.52988 12.7739 8.13638 12.3804 8.13638 11.8968ZM9.01356 13.7739C9.65313 13.7739 10.2604 14.0544 10.6788 14.5253C10.4743 14.726 10.2965 14.9543 10.1511 15.2046L6.93438 15.2047C7.25438 14.3599 8.06906 13.7739 9.01356 13.7739ZM12.0626 12.7261C12.0626 12.2424 12.4561 11.8489 12.9397 11.8489C13.4233 11.8489 13.8168 12.2424 13.8168 12.7261C13.8168 13.2097 13.4233 13.6032 12.9397 13.6032C12.4561 13.6032 12.0626 13.2097 12.0626 12.7261ZM15.2007 14.5252C15.6191 14.0544 16.2263 13.7739 16.8659 13.7739C17.8103 13.7739 18.625 14.3599 18.9451 15.2046L15.7284 15.2046C15.583 14.9543 15.4052 14.7259 15.2007 14.5252ZM16.8659 12.7739C16.3823 12.7739 15.9888 12.3804 15.9888 11.8968C15.9888 11.4131 16.3823 11.0196 16.8659 11.0196C17.3496 11.0196 17.7431 11.4131 17.7431 11.8968C17.7431 12.3804 17.3496 12.7739 16.8659 12.7739ZM5.90869 16.0081C5.91669 16.0185 5.92463 16.029 5.9335 16.0389C6.02838 16.1444 6.16356 16.2046 6.30538 16.2046L9.7765 16.2046C9.75888 16.2953 9.7445 16.3872 9.7345 16.4807C9.71938 16.6218 9.76488 16.7626 9.85975 16.8681C9.95463 16.9736 10.0898 17.0339 10.2316 17.0339H15.6478C15.7897 17.0339 15.9249 16.9736 16.0197 16.8681C16.1145 16.7626 16.1601 16.6218 16.1449 16.4807C16.1349 16.3873 16.1206 16.2953 16.1029 16.2046L19.5741 16.2046C19.7159 16.2046 19.8511 16.1443 19.9459 16.0388C19.9548 16.0289 19.9629 16.0184 19.9708 16.008C18.9461 18.9032 16.1814 20.9829 12.9398 20.9829C9.698 20.9829 6.93338 18.9032 5.90869 16.0081ZM1.14563 3.87357V1.32126C1.14563 1.04513 1.3695 0.821259 1.64563 0.821259H3.99025C4.26638 0.821259 4.49025 1.04513 4.49025 1.32126C4.49025 1.59738 4.26638 1.82126 3.99025 1.82126H2.14563V3.87357C2.14563 4.1497 1.92175 4.37357 1.64563 4.37357C1.3695 4.37357 1.14563 4.1497 1.14563 3.87357ZM21.8522 1.31213C21.8522 1.03601 22.0761 0.812134 22.3522 0.812134H24.6968C24.9729 0.812134 25.1968 1.03601 25.1968 1.31213V3.86451C25.1968 4.14063 24.9729 4.36451 24.6968 4.36451C24.4207 4.36451 24.1968 4.14063 24.1968 3.86451V1.81213H22.3522C22.0761 1.81213 21.8522 1.58826 21.8522 1.31213ZM4.4545 26.2179C4.4545 26.4941 4.23063 26.7179 3.9545 26.7179H1.60994C1.33381 26.7179 1.10994 26.4941 1.10994 26.2179V23.6656C1.10994 23.3894 1.33381 23.1656 1.60994 23.1656C1.88606 23.1656 2.10994 23.3894 2.10994 23.6656V25.7179H3.95456C4.23063 25.7179 4.4545 25.9418 4.4545 26.2179Z" fill="#CD9D5D"/>
</g>
<defs>
<clipPath id="clip0_114_601">
<rect width="32" height="32" fill="white"/>
</clipPath>
</defs>
</svg>
