<svg width="32" height="32" viewBox="0 0 32 32" fill="none" xmlns="http://www.w3.org/2000/svg">
<path d="M23.632 30.3613H22.6914V27.137C22.6914 26.5358 22.2017 26.051 21.6053 26.051H21.5423V25.28C21.5423 24.6982 21.0671 24.2279 20.4902 24.2279H20.4853C18.095 21.9637 18.3471 17.5904 18.4877 16.2764H19.6611C20.1944 16.2764 20.6308 15.84 20.6308 15.3067V11.554C20.6308 11.0207 20.1944 10.5843 19.6611 10.5843H18.8756C18.3423 10.5843 17.9059 11.0207 17.9059 11.554V12.4897H17.4065V11.554C17.4065 11.0207 16.9702 10.5843 16.4368 10.5843H15.5835C15.0502 10.5843 14.6138 11.0207 14.6138 11.554V12.4897H14.1144V11.554C14.1144 11.0207 13.678 10.5843 13.1447 10.5843H12.3592C11.8259 10.5843 11.3896 11.0207 11.3896 11.554V15.3067C11.3896 15.84 11.8259 16.2764 12.3592 16.2764H13.5326C13.6732 17.5904 13.9302 21.9588 11.535 24.2279H11.5302C10.9483 24.2279 10.478 24.7031 10.478 25.28V26.051H10.415C9.81379 26.051 9.32895 26.5407 9.32895 27.137V30.3613H8.38349C8.13137 30.3613 7.92773 30.5649 7.92773 30.817C7.92773 31.0691 8.13137 31.2728 8.38349 31.2728H9.7847H22.255H23.6562C23.9083 31.2728 24.112 31.0691 24.112 30.817C24.112 30.5649 23.8841 30.3613 23.632 30.3613ZM12.2914 15.3019V11.5491C12.2914 11.52 12.3156 11.4958 12.3447 11.4958H13.1302C13.1592 11.4958 13.1835 11.52 13.1835 11.5491V12.6594C13.1835 13.0667 13.5132 13.3964 13.9205 13.3964H14.7738C15.1811 13.3964 15.5108 13.0667 15.5108 12.6594V11.5491C15.5108 11.52 15.535 11.4958 15.5641 11.4958H16.4174C16.4465 11.4958 16.4708 11.52 16.4708 11.5491V12.6594C16.4708 13.0667 16.8005 13.3964 17.2077 13.3964H18.0611C18.4683 13.3964 18.798 13.0667 18.798 12.6594V11.5491C18.798 11.52 18.8223 11.4958 18.8514 11.4958H19.6368C19.6659 11.4958 19.6902 11.52 19.6902 11.5491V15.3019C19.6902 15.331 19.6659 15.3552 19.6368 15.3552H18.0611H13.9108H12.335C12.3156 15.36 12.2914 15.3358 12.2914 15.3019ZM14.4441 16.2716H17.5568C17.4114 17.697 17.2223 21.6388 19.2441 24.2231H12.7568C14.7786 21.6388 14.5896 17.697 14.4441 16.2716ZM11.375 25.28C11.375 25.2025 11.438 25.1394 11.5156 25.1394H20.4853C20.5629 25.1394 20.6259 25.2025 20.6259 25.28V26.051H11.375V25.28ZM10.2211 30.3613V27.137C10.2211 27.04 10.2986 26.9625 10.3956 26.9625H10.9192H21.0817H21.6053C21.7023 26.9625 21.7799 27.04 21.7799 27.137V30.3613H10.2211Z" fill="#CD9D5D"/>
<path d="M20.1162 28.2037H11.8835C11.6314 28.2037 11.4277 28.4073 11.4277 28.6594C11.4277 28.9116 11.6314 29.1152 11.8835 29.1152H20.1162C20.3683 29.1152 20.572 28.9116 20.572 28.6594C20.572 28.4073 20.3683 28.2037 20.1162 28.2037Z" fill="#CD9D5D"/>
<path d="M27.4677 10.9528H26.1198C25.8677 9.91517 25.4555 8.92608 24.898 8.00487L25.858 7.04487C26.3283 6.56972 26.3283 5.79881 25.858 5.32366L24.098 3.56851C23.8701 3.33578 23.5646 3.20972 23.2398 3.20972H23.2349C22.9101 3.20972 22.6046 3.33578 22.3719 3.56851L21.4167 4.52366C20.4955 3.96123 19.5064 3.55396 18.4689 3.29699V1.94426C18.4689 1.27517 17.921 0.727295 17.247 0.727295H14.7646C14.0907 0.727295 13.5428 1.27517 13.5428 1.94426V3.29699C12.5004 3.54911 11.5161 3.96123 10.5949 4.52366L9.63977 3.56851C9.16462 3.09336 8.39371 3.09336 7.91856 3.56851L6.15371 5.32851C5.68341 5.80366 5.68341 6.57942 6.15371 7.04972L7.11371 8.00972C6.55614 8.92608 6.14402 9.91517 5.89189 10.9576H4.52947C3.86038 10.9576 3.3125 11.5055 3.3125 12.1746V14.6618C3.3125 15.3309 3.86038 15.8788 4.52947 15.8788H5.8822C6.13432 16.9212 6.54644 17.9103 7.10402 18.8267L6.14886 19.7818C5.91614 20.0097 5.79008 20.32 5.79008 20.6449C5.79008 20.9697 5.91614 21.2752 6.14886 21.5079L7.90886 23.2679C8.36947 23.7285 9.17432 23.7285 9.63492 23.2679L10.5998 22.3031L10.7161 22.3709C10.9343 22.5018 11.2155 22.4291 11.3416 22.2109C11.4725 21.9928 11.3998 21.7115 11.1816 21.5855L11.0361 21.4982C10.9489 21.4497 10.8616 21.3964 10.7792 21.3431C10.5998 21.2267 10.3573 21.2461 10.207 21.4012L8.99008 22.6182C8.87371 22.7346 8.67492 22.7346 8.55856 22.6182L6.79856 20.8582C6.74038 20.8 6.70644 20.7224 6.70644 20.64C6.70644 20.5576 6.74038 20.48 6.79856 20.4218L8.01068 19.2049C8.16583 19.0497 8.18523 18.8121 8.06886 18.6327C7.40462 17.6194 6.93917 16.5091 6.69674 15.3212C6.65311 15.1079 6.46402 14.9576 6.25068 14.9576H4.52947C4.35977 14.9576 4.22402 14.8218 4.22402 14.6521V12.1697C4.22402 12 4.35977 11.8643 4.52947 11.8643H6.25068C6.46886 11.8643 6.65311 11.714 6.69674 11.5006C6.93917 10.3176 7.40462 9.2073 8.06886 8.19396C8.18523 8.01457 8.16099 7.77214 8.01068 7.62184L6.79371 6.40002C6.67735 6.28366 6.67735 6.08487 6.79371 5.96851L8.55371 4.20851C8.67492 4.0873 8.86886 4.0873 8.98523 4.20851L10.2022 5.42548C10.3573 5.58063 10.5949 5.60487 10.7792 5.48366C11.7925 4.81457 12.9028 4.35396 14.0858 4.10669C14.2992 4.06305 14.4495 3.87396 14.4495 3.66063V1.94426C14.4495 1.77457 14.5852 1.63881 14.7549 1.63881H17.2373C17.407 1.63881 17.5428 1.77457 17.5428 1.94426V3.66063C17.5428 3.87881 17.6931 4.06305 17.9064 4.10669C19.0846 4.34911 20.1998 4.81457 21.218 5.48366C21.3973 5.60487 21.6398 5.58063 21.7901 5.42548L23.0022 4.20851C23.0604 4.15033 23.1234 4.10669 23.2204 4.11639C23.3028 4.11639 23.3755 4.14548 23.4337 4.20851L25.1937 5.96366C25.3101 6.08487 25.3101 6.27881 25.1937 6.40002L23.9767 7.61699C23.8216 7.77214 23.7973 8.00972 23.9186 8.18911C24.5877 9.20729 25.0483 10.3224 25.2907 11.5006C25.3343 11.714 25.5234 11.8643 25.7367 11.8643H27.4483C27.618 11.8643 27.7537 12 27.7537 12.1697V14.657C27.7537 14.8267 27.618 14.9624 27.4483 14.9624H25.7367C25.5186 14.9624 25.3343 15.1128 25.2907 15.3261C25.0434 16.5188 24.5828 17.634 23.9186 18.6376C23.7973 18.817 23.8216 19.0594 23.9767 19.2146L25.1889 20.4267C25.3052 20.5479 25.3052 20.7418 25.1937 20.8582L23.4289 22.6182C23.3755 22.6764 23.298 22.7055 23.2155 22.7055C23.1331 22.7055 23.0555 22.6715 22.9973 22.6182L21.7852 21.4012C21.6301 21.2461 21.3925 21.2218 21.2083 21.3431C21.121 21.4012 21.0289 21.4546 20.9416 21.5031L20.801 21.5855C20.5828 21.7115 20.5101 21.9928 20.641 22.2109C20.767 22.4291 21.0483 22.497 21.2664 22.3709L21.4119 22.3031L22.3719 23.2679C22.6046 23.5006 22.9101 23.6267 23.2349 23.6267H23.2398C23.5646 23.6267 23.8701 23.4958 24.098 23.2679L25.8628 21.5079C26.3331 21.0328 26.3283 20.2618 25.8628 19.7867L24.9077 18.8315C25.4652 17.92 25.8725 16.9309 26.1295 15.8788H27.4773C28.1513 15.8788 28.6992 15.3309 28.6992 14.6618V12.1697C28.6895 11.5006 28.1416 10.9528 27.4677 10.9528Z" fill="#CD9D5D"/>
<path d="M12.1163 19.0788C12.2714 18.88 12.2375 18.5939 12.0387 18.4388C10.4872 17.2121 9.59504 15.3842 9.59504 13.4158C9.59504 9.89091 12.4653 7.02061 15.995 7.02061C19.5247 7.02061 22.395 9.89091 22.395 13.4158C22.395 15.3842 21.5078 17.217 19.9563 18.4388C19.7575 18.5939 19.7235 18.8849 19.8787 19.0788C19.9708 19.1952 20.1017 19.2533 20.2375 19.2533C20.3344 19.2533 20.4363 19.2194 20.5187 19.1564C22.2884 17.76 23.3066 15.6655 23.3066 13.4158C23.3066 9.38667 20.0241 6.10425 15.9902 6.10425C11.9563 6.10425 8.67383 9.38182 8.67383 13.4158C8.67383 15.6655 9.69201 17.7552 11.4617 19.1564C11.6702 19.3067 11.9563 19.2727 12.1163 19.0788Z" fill="#CD9D5D"/>
</svg>
