<svg width="32" height="32" viewBox="0 0 32 32" fill="none" xmlns="http://www.w3.org/2000/svg">
<g clip-path="url(#clip0_123_2231)">
<g clip-path="url(#clip1_123_2231)">
<path d="M16.7918 15.2099C16.5474 14.9655 16.1518 14.9655 15.9074 15.2099C15.6637 15.4536 15.6637 15.8493 15.9074 16.0936C16.1518 16.3374 16.5474 16.3374 16.7918 16.0936C17.0355 15.8493 17.0355 15.4536 16.7918 15.2099Z" fill="#CD9D5D"/>
<path d="M24.7472 7.25484C23.5259 6.03366 21.5489 6.03359 20.3276 7.25484C19.1095 8.4729 19.1095 10.4554 20.3278 11.6745C21.5463 12.8922 23.5288 12.8927 24.7472 11.6743C25.9683 10.4532 25.9685 8.47615 24.7472 7.25484ZM23.8633 10.7904C23.1325 11.5213 21.9429 11.5213 21.2117 10.7905C20.4807 10.0591 20.4807 8.86953 21.2115 8.13871C21.9442 7.40603 23.1305 7.4059 23.8633 8.13871C24.596 8.87134 24.5961 10.0576 23.8633 10.7904Z" fill="#CD9D5D"/>
<path d="M31.8177 0.183557C31.6949 0.0608693 31.5274 -0.00563058 31.3533 0.000931906C31.212 0.0059944 27.8473 0.141244 23.8476 1.55493C20.6426 2.68655 17.9712 4.30674 15.9075 6.37048C15.4451 6.83292 14.9951 7.32329 14.5645 7.83273C12.524 6.63161 10.8889 7.00823 9.8552 7.56142C7.47514 8.83517 6.00195 12.2937 6.00195 14.7674C6.00214 15.0202 6.15445 15.2481 6.38795 15.3448C6.46526 15.3768 6.54651 15.3924 6.62701 15.3924C6.7897 15.3924 6.94951 15.3288 7.06908 15.2093C8.32426 13.9542 9.87245 14.0327 10.3782 14.0992L10.5971 14.318C10.1663 15.343 9.81932 16.3623 9.56482 17.3536C9.47295 17.7123 9.50395 18.092 9.64051 18.4392C9.03876 18.7165 8.4582 19.1237 7.9527 19.6292C6.34389 21.2381 6.0172 25.1589 6.00408 25.3251C5.9897 25.5074 6.05583 25.6869 6.18514 25.8162C6.30283 25.9338 6.46201 25.9993 6.62701 25.9993C6.64339 25.9993 6.65983 25.9986 6.67626 25.9973C6.84239 25.9843 10.7634 25.6576 12.3722 24.0488C12.8775 23.5434 13.2846 22.9629 13.5619 22.3613C13.9296 22.5059 14.3079 22.5237 14.6482 22.4365C15.6391 22.1821 16.6582 21.8352 17.6833 21.4044L17.9022 21.6233C17.9686 22.1291 18.0471 23.6773 16.792 24.9323C16.6133 25.1111 16.5598 25.3799 16.6566 25.6134C16.7532 25.8469 16.9811 25.9992 17.2339 25.9992C19.7077 25.9992 23.1661 24.526 24.4399 22.146C24.993 21.1124 25.3697 19.4773 24.1685 17.4367C24.6777 17.0063 25.1682 16.5563 25.6308 16.0937C27.6945 14.03 29.3147 11.3585 30.4463 8.15379C31.86 4.15392 31.9952 0.78918 32.0003 0.647931C32.0065 0.474494 31.9403 0.306306 31.8177 0.183557ZM7.39933 13.4231C7.78757 11.5442 8.91526 9.48235 10.4453 8.66348C11.4677 8.11635 12.5853 8.16998 13.7735 8.82041C12.7612 10.1518 11.8811 11.5862 11.1476 13.1008C11.1383 13.0951 11.0258 12.9537 10.8168 12.9065C10.7308 12.8871 9.07713 12.5314 7.39933 13.4231ZM11.4883 23.1648C10.6289 24.0242 8.61301 24.4774 7.33883 24.6625C7.52395 23.3883 7.97726 21.3724 8.83657 20.5131C9.31782 20.0318 9.87582 19.667 10.4367 19.4615L12.5399 21.5647C12.3344 22.1256 11.9696 22.6836 11.4883 23.1648ZM14.3377 21.2256C14.1568 21.272 13.9473 21.204 13.7916 21.0485C12.983 20.2399 12.6667 19.9236 12.5674 19.8244C12.3854 19.6424 11.9391 19.1961 10.9533 18.2102C10.7974 18.054 10.7294 17.8446 10.7756 17.664C10.9758 16.8844 11.2376 16.0845 11.556 15.277L16.7244 20.4454C15.9167 20.7638 15.117 21.0256 14.3377 21.2256ZM23.3379 21.5561C22.519 23.0861 20.4573 24.2138 18.5784 24.602C19.1775 23.4747 19.3096 22.0396 19.0907 21.1695C19.0399 20.9673 18.908 20.8657 18.9006 20.8538C20.4152 20.1202 21.8495 19.2401 23.181 18.2278C23.8314 19.4162 23.885 20.5339 23.3379 21.5561ZM24.747 15.2098C24.1839 15.773 23.5774 16.317 22.9445 16.8268C21.4232 18.0518 19.7487 19.0895 17.9622 19.9155L12.0859 14.0393C12.9119 12.2527 13.9496 10.5782 15.1744 9.05704C15.6847 8.42373 16.2287 7.81723 16.7916 7.25436C18.6432 5.40273 21.0328 3.92911 23.896 2.86836L29.133 8.10535C28.0724 10.9685 26.5988 13.3582 24.747 15.2098ZM29.5827 6.78717L25.2142 2.41868C27.5943 1.67943 29.6648 1.40262 30.6983 1.30312C30.5988 2.3368 30.3219 4.40736 29.5827 6.78717Z" fill="#CD9D5D"/>
<path d="M15.0238 25.816C14.7797 25.5719 14.3839 25.5721 14.1399 25.8161L12.3724 27.5843C12.1284 27.8284 12.1285 28.2241 12.3725 28.4681C12.6167 28.7121 13.0125 28.7121 13.2565 28.468L15.024 26.6999C15.268 26.4558 15.2679 26.06 15.0238 25.816Z" fill="#CD9D5D"/>
<path d="M6.18474 16.9774C5.94075 16.7333 5.54506 16.7333 5.30087 16.9773L3.53275 18.7448C3.28863 18.9888 3.28856 19.3845 3.53256 19.6286C3.7765 19.8726 4.17219 19.8729 4.41644 19.6288L6.18456 17.8613C6.42868 17.6173 6.42874 17.2215 6.18474 16.9774Z" fill="#CD9D5D"/>
<path d="M10.6035 26.7004C10.3595 26.4564 9.9637 26.4564 9.71958 26.7004L5.48584 30.9335C5.24171 31.1776 5.24171 31.5733 5.48577 31.8174C5.72971 32.0614 6.12552 32.0616 6.36965 31.8174L10.6034 27.5843C10.8475 27.3403 10.8475 26.9445 10.6035 26.7004Z" fill="#CD9D5D"/>
<path d="M5.60345 26.7004C5.35945 26.4564 4.96364 26.4564 4.71958 26.7004L0.485836 30.9335C0.241711 31.1776 0.241711 31.5733 0.485773 31.8174C0.72971 32.0614 1.12552 32.0616 1.36965 31.8174L5.60339 27.5843C5.84751 27.3403 5.84751 26.9445 5.60345 26.7004Z" fill="#CD9D5D"/>
<path d="M5.30003 21.3966C5.05603 21.1526 4.66022 21.1526 4.41616 21.3966L0.183039 25.6304C-0.0610233 25.8745 -0.0610233 26.2702 0.183101 26.5143C0.427163 26.7584 0.822912 26.7584 1.06697 26.5142L5.30009 22.2805C5.54415 22.0364 5.54415 21.6407 5.30003 21.3966Z" fill="#CD9D5D"/>
<path d="M19.4429 12.5579C19.1988 12.3138 18.8032 12.3138 18.559 12.5579L17.6752 13.4416C17.4312 13.6857 17.4312 14.0815 17.6752 14.3256C17.9194 14.5696 18.315 14.5696 18.5592 14.3256L19.4429 13.4418C19.687 13.1978 19.687 12.802 19.4429 12.5579Z" fill="#CD9D5D"/>
</g>
</g>
<defs>
<clipPath id="clip0_123_2231">
<rect width="32" height="32" fill="white"/>
</clipPath>
<clipPath id="clip1_123_2231">
<rect width="32" height="32" fill="white" transform="translate(0 0.000488281)"/>
</clipPath>
</defs>
</svg>
