<svg width="32" height="32" viewBox="0 0 32 32" fill="none" xmlns="http://www.w3.org/2000/svg">
<path d="M15.9998 30C18.4113 30 20.7819 29.3771 22.8819 28.1917C24.9819 27.0063 26.7401 25.2985 27.9861 23.2339C29.2322 21.1693 29.9238 18.8178 29.9939 16.4074C30.0641 13.9969 29.5104 11.6092 28.3866 9.47559C28.3238 9.35948 28.2178 9.27287 28.0914 9.23465C27.9651 9.19643 27.8288 9.2097 27.7123 9.27156C27.5957 9.33342 27.5083 9.43886 27.4692 9.56489C27.43 9.69092 27.4423 9.82731 27.5033 9.94434C28.4876 11.811 29.0013 13.8897 28.9998 16C28.2873 33.2436 3.71222 33.2437 2.99985 15.9999C2.87944 6.35909 13.6 -0.102827 22.0556 4.49676C22.1728 4.55891 22.3098 4.57197 22.4366 4.53307C22.5634 4.49417 22.6695 4.4065 22.7317 4.28934C22.7938 4.17218 22.8069 4.03513 22.768 3.90834C22.7291 3.78155 22.6414 3.67541 22.5243 3.61326C20.5132 2.55239 18.2736 1.99861 15.9998 2C-2.57037 2.76728 -2.57015 29.2331 15.9998 30Z" fill="#CD9D5D"/>
<path d="M15.9995 12.0001C16.4325 11.9998 16.8624 12.0717 17.2717 12.2127C17.3971 12.2559 17.5345 12.2475 17.6536 12.1894C17.7728 12.1313 17.864 12.0282 17.9072 11.9029C18.1269 11.0184 16.5696 11.0537 15.9996 11C9.36718 11.2741 9.36748 20.7262 15.9996 21.0001C17.3252 20.9986 18.5961 20.4713 19.5334 19.534C20.4708 18.5966 20.9981 17.3257 20.9995 16.0001C20.9485 15.4197 20.9823 13.8786 20.1016 14.0974C20.0395 14.1188 19.9823 14.1522 19.9331 14.1957C19.8839 14.2392 19.8437 14.292 19.815 14.351C19.7862 14.41 19.7693 14.4741 19.7653 14.5397C19.7614 14.6052 19.7703 14.6709 19.7918 14.733C19.9309 15.1409 20.0011 15.5691 19.9995 16.0001C19.799 21.2984 12.2 21.2986 11.9995 16C12.0008 14.9395 12.4226 13.9228 13.1725 13.173C13.9223 12.4231 14.939 12.0013 15.9995 12.0001Z" fill="#CD9D5D"/>
<path d="M20.787 8.36743C20.8189 8.31001 20.8391 8.24688 20.8465 8.18165C20.854 8.11641 20.8485 8.05034 20.8304 7.98723C20.8123 7.92411 20.782 7.86517 20.7411 7.81379C20.7002 7.7624 20.6496 7.71957 20.5922 7.68775C19.1865 6.90966 17.6063 6.50099 15.9997 6.5C3.39846 7.02082 3.39862 24.9794 15.9997 25.5C17.6523 25.501 19.2765 25.0706 20.7117 24.2514C22.147 23.4322 23.3435 22.2525 24.1831 20.8291C25.0227 19.4057 25.4762 17.7878 25.4988 16.1354C25.5214 14.483 25.1123 12.8533 24.3119 11.4074C24.2802 11.3498 24.2375 11.2989 24.1861 11.2578C24.1347 11.2166 24.0757 11.1861 24.0124 11.1678C23.9492 11.1496 23.883 11.144 23.8175 11.1514C23.7521 11.1587 23.6888 11.179 23.6313 11.2109C23.5737 11.2428 23.523 11.2858 23.4821 11.3373C23.4412 11.3889 23.4108 11.448 23.3928 11.5113C23.3748 11.5747 23.3695 11.6409 23.3771 11.7063C23.3848 11.7717 23.4053 11.8349 23.4374 11.8923C26.6067 17.3887 22.3492 24.6101 15.9995 24.4999C13.746 24.4974 11.5855 23.6011 9.99197 22.0076C8.39848 20.4141 7.50216 18.2535 7.49966 16C7.39076 9.6505 14.6102 5.39254 20.1074 8.5624C20.1648 8.59435 20.2279 8.61465 20.2932 8.62214C20.3585 8.62963 20.4246 8.62416 20.4877 8.60604C20.5508 8.58793 20.6098 8.55753 20.6611 8.51658C20.7125 8.47563 20.7553 8.42495 20.787 8.36743Z" fill="#CD9D5D"/>
<path d="M21.7625 6.94927L21.9461 9.34743L15.6471 15.6465C15.5565 15.741 15.5065 15.8671 15.5078 15.9979C15.5092 16.1288 15.5618 16.2539 15.6543 16.3464C15.7468 16.4389 15.8719 16.4914 16.0027 16.4928C16.1336 16.4941 16.2597 16.4441 16.3541 16.3535L22.6532 10.0545L25.0513 10.2381C25.1232 10.2436 25.1954 10.2335 25.263 10.2085C25.3306 10.1834 25.392 10.1441 25.4429 10.0931L29.0821 6.45417C29.1483 6.38599 29.1939 6.30045 29.2135 6.20746C29.2332 6.11446 29.2261 6.0178 29.1931 5.92867C29.1601 5.83954 29.1025 5.76157 29.027 5.70378C28.9516 5.64599 28.8613 5.61075 28.7666 5.60213L26.567 5.43367L26.3985 3.23393C26.3898 3.1393 26.3546 3.04906 26.2968 2.97363C26.239 2.8982 26.161 2.84066 26.0719 2.80768C25.9828 2.77469 25.8861 2.7676 25.7931 2.78722C25.7002 2.80684 25.6146 2.85237 25.5464 2.91855L21.9076 6.55766C21.8565 6.60859 21.8172 6.66997 21.7921 6.73757C21.7671 6.80517 21.757 6.87739 21.7625 6.94927ZM25.4844 4.39458C25.6845 6.72308 25.2907 6.31319 27.606 6.51615L24.8985 9.22344L22.9281 9.07255L22.7772 7.10209L25.4844 4.39458Z" fill="#CD9D5D"/>
</svg>
