<svg width="32" height="32" viewBox="0 0 32 32" fill="none" xmlns="http://www.w3.org/2000/svg">
<g clip-path="url(#clip0_123_3406)">
<path d="M14.2069 4.79996C14.4978 4.79996 14.6917 4.60602 14.6917 4.31511C14.6917 4.0242 14.4978 3.83026 14.2069 3.83026H3.63719C3.34628 3.83026 3.15234 4.0242 3.15234 4.31511C3.15234 4.60602 3.34628 4.79996 3.63719 4.79996H14.2069Z" fill="#CD9D5D"/>
<path d="M14.205 8.96967H3.92625C3.63535 8.96967 3.44141 9.1636 3.44141 9.45451C3.44141 9.74542 3.63535 9.93936 3.92625 9.93936H14.205C14.496 9.93936 14.6899 9.74542 14.6899 9.45451C14.6899 9.1636 14.496 8.96967 14.205 8.96967Z" fill="#CD9D5D"/>
<path d="M9.40504 12.6545H3.92625C3.63535 12.6545 3.44141 12.8485 3.44141 13.1394C3.44141 13.4303 3.63535 13.6242 3.92625 13.6242H9.35656C9.64747 13.6242 9.84141 13.4303 9.84141 13.1394C9.88989 12.897 9.64747 12.6545 9.40504 12.6545Z" fill="#CD9D5D"/>
<path d="M9.40504 16.3879H3.92625C3.63535 16.3879 3.44141 16.5818 3.44141 16.8727C3.44141 17.1636 3.63535 17.3576 3.92625 17.3576H9.35656C10.0353 17.3576 10.0353 16.3879 9.40504 16.3879Z" fill="#CD9D5D"/>
<path d="M9.40504 20.0727H3.92625C3.63535 20.0727 3.44141 20.2666 3.44141 20.5575C3.44141 20.8485 3.63535 21.0424 3.92625 21.0424H9.35656C9.64747 21.0424 9.84141 20.8485 9.84141 20.5575C9.88989 20.2666 9.64747 20.0727 9.40504 20.0727Z" fill="#CD9D5D"/>
<path d="M17.8899 23.7576H3.92625C3.63535 23.7576 3.44141 23.9515 3.44141 24.2424C3.44141 24.5333 3.63535 24.7273 3.92625 24.7273H17.8899C18.1808 24.7273 18.3747 24.5333 18.3747 24.2424C18.3747 23.9515 18.1808 23.7576 17.8899 23.7576Z" fill="#CD9D5D"/>
<path d="M17.8899 27.4424H3.92625C3.63535 27.4424 3.44141 27.6363 3.44141 27.9272C3.44141 28.2181 3.63535 28.4121 3.92625 28.4121H17.8899C18.1808 28.4121 18.3747 28.2181 18.3747 27.9272C18.3747 27.6848 18.1808 27.4424 17.8899 27.4424Z" fill="#CD9D5D"/>
<path d="M30.7884 28.4606C31.5642 27.6848 31.5642 26.3757 30.7884 25.5515L26.3278 21.0909C26.1339 20.897 25.843 20.897 25.649 21.0909L25.6006 21.1394L24.34 19.8788C25.1642 18.5212 25.4551 16.8727 25.2127 15.3697C25.2612 15.1757 25.2127 15.806 25.2612 5.86665V5.81816C25.2612 5.62423 25.1642 5.47877 24.9703 5.3818C17.5521 0.193922 18.0854 0.484831 17.843 0.484831H1.11571C0.824799 0.484831 0.630859 0.67877 0.630859 0.969679V31.0303C0.630859 31.3212 0.824799 31.5151 1.11571 31.5151H24.7278C25.0187 31.5151 25.2127 31.3212 25.2127 31.0303V26.2788L27.6369 28.703C28.4612 29.5273 29.7218 29.5273 30.546 28.703L30.7884 28.4606ZM24.8733 21.8182L23.9036 22.7879L22.7884 21.6727C22.9824 21.5273 23.1278 21.3818 23.3218 21.2363C23.4672 21.0909 23.6612 20.897 23.8066 20.703L24.8733 21.8182ZM14.449 20.5576C12.1703 18.2788 12.1703 14.6424 14.449 12.3636C16.7278 10.0848 20.3642 10.0848 22.643 12.3636C24.9218 14.6424 24.8733 18.3273 22.643 20.5576C20.4127 22.7879 16.7278 22.8363 14.449 20.5576ZM23.2248 5.33332H18.3278V1.89089L23.0793 5.23635L23.2248 5.33332ZM24.243 30.5454H1.60056V1.45453H17.3581V5.81816C17.3581 6.10907 17.5521 6.30301 17.843 6.30301H24.243V12.8485C24.0006 12.4121 23.6612 12.0242 23.2733 11.6363C20.6551 9.01816 16.3884 8.96968 13.7218 11.6363C11.1036 14.2545 11.1036 18.5212 13.7218 21.1879C15.9521 23.4182 19.346 23.7576 21.9642 22.206L23.2248 23.4667L23.1763 23.5151C22.9824 23.7091 22.9824 24 23.1763 24.1939L24.243 25.2606V30.5454ZM30.1096 27.7818L29.9157 27.9757C29.5278 28.3636 28.8006 28.3636 28.3642 27.9757L24.243 23.8545L24.2915 23.806L25.94 22.1576L25.9884 22.1091L30.1096 26.2303C30.4975 26.6666 30.4975 27.3939 30.1096 27.7818Z" fill="#CD9D5D"/>
</g>
<defs>
<clipPath id="clip0_123_3406">
<rect width="32" height="32" fill="white"/>
</clipPath>
</defs>
</svg>
