<svg width="33" height="33" viewBox="0 0 33 33" fill="none" xmlns="http://www.w3.org/2000/svg">
<g clip-path="url(#clip0_114_401)">
<path d="M1.25915 32.6666H24.4899C24.7972 32.6666 25.0146 32.3829 25.0146 32.0753V20.0664L32.4526 12.6278C32.6717 12.4126 32.6749 12.0606 32.46 11.8414L29.5002 8.87777C29.2776 8.66065 28.9225 8.66038 28.6996 8.87722L25.0146 12.54V6.88918C25.0206 6.74353 24.9673 6.60168 24.8673 6.49543L19.2439 0.846789C19.1445 0.73755 19.0056 0.672604 18.8581 0.666626H1.25915C0.952089 0.666626 0.736328 0.950322 0.736328 1.25766V32.0756C0.736328 32.3829 0.952089 32.6666 1.25915 32.6666ZM19.026 20.6049L20.7407 22.3196L18.1649 23.1808L19.026 20.6049ZM21.7698 21.7745L19.5708 19.5759L26.6328 12.5297L28.8159 14.7128L21.7698 21.7745ZM29.1102 10.0579L31.2877 12.2354L29.6018 13.9251L27.4208 11.7435L29.1102 10.0579ZM19.4494 2.60114L23.1464 6.30141H19.4494V2.60114ZM1.84937 1.77967H18.3363V6.88918C18.3298 7.02994 18.3823 7.1669 18.4817 7.26663C18.5809 7.36663 18.7173 7.42016 18.8581 7.41445H23.9015V13.6506L18.3744 19.181C18.3159 19.2381 18.2725 19.3085 18.2477 19.3862L17.463 21.7449H5.44584C5.1385 21.7449 4.88932 21.9941 4.88932 22.3014C4.88932 22.6087 5.1385 22.8579 5.44584 22.8579H17.0912L16.7559 23.8737C16.689 24.0715 16.7412 24.2905 16.8901 24.437C16.9293 24.4761 16.9736 24.5275 17.0206 24.5275H5.44584C5.1385 24.5275 4.88932 24.7767 4.88932 25.084C4.88932 25.3914 5.1385 25.6405 5.44584 25.6405H20.2635C20.5711 25.6405 20.82 25.3914 20.82 25.084C20.82 24.7767 20.5711 24.5275 20.2635 24.5275H17.5719L21.9467 23.0772C22.0236 23.052 22.0931 23.0077 22.1486 22.949L23.9015 21.1818V31.5536H1.84937V1.77967Z" fill="#CD9D5D"/>
<path d="M20.2629 27.3101H5.44519C5.13786 27.3101 4.88867 27.5593 4.88867 27.8666C4.88867 28.174 5.13786 28.4232 5.44519 28.4232H20.2629C20.5705 28.4232 20.8194 28.174 20.8194 27.8666C20.8194 27.5593 20.5705 27.3101 20.2629 27.3101Z" fill="#CD9D5D"/>
<path d="M5.44519 20.0753H13.3063C13.6139 20.0753 13.8629 19.8261 13.8629 19.5188C13.8629 19.2115 13.6139 18.9623 13.3063 18.9623H5.44519C5.13786 18.9623 4.88867 19.2115 4.88867 19.5188C4.88867 19.8261 5.13786 20.0753 5.44519 20.0753Z" fill="#CD9D5D"/>
</g>
<defs>
<clipPath id="clip0_114_401">
<rect width="32" height="32" fill="white" transform="translate(0.666016 0.666748)"/>
</clipPath>
</defs>
</svg>
