<svg width="32" height="32" viewBox="0 0 32 32" fill="none" xmlns="http://www.w3.org/2000/svg">
<g clip-path="url(#clip0_123_2264)">
<path fill-rule="evenodd" clip-rule="evenodd" d="M13.2638 23.567C13.3162 23.578 13.373 23.5894 13.4341 23.6013C13.5537 23.6241 13.6608 23.69 13.7353 23.7863C13.8098 23.8827 13.8464 24.003 13.8384 24.1245V25.2615H15.6004V21.0524C12.187 21.3672 9.21115 18.6867 9.21115 15.2313C9.21147 14.3637 9.40485 13.5071 9.77728 12.7235C10.1497 11.94 10.6918 11.2491 11.3644 10.701C12.0369 10.153 12.8229 9.76145 13.6656 9.55485C14.5082 9.34825 15.3862 9.33175 16.2359 9.50655C17.0857 9.68136 17.8859 10.0431 18.5786 10.5655C19.2712 11.0879 19.8389 11.7579 20.2405 12.5269C20.6421 13.2959 20.8675 14.1447 20.9004 15.0116C20.9334 15.8785 20.7729 16.7419 20.4308 17.5392C20.5436 17.5623 20.645 17.6237 20.7178 17.713C20.7906 17.8023 20.8304 17.9139 20.8303 18.0291V22.726L21.2891 23.1848L23.011 21.4629L22.1837 20.6356C22.096 20.5479 22.0441 20.4309 22.0378 20.3072C22.0316 20.1834 22.0715 20.0617 22.1499 19.9658C22.5838 19.3161 22.926 18.6096 23.167 17.8664V14.0139H21.1904V14.0125C21.1028 14.0123 21.0169 13.9892 20.9411 13.9453C20.8653 13.9014 20.8024 13.8384 20.7587 13.7625C20.715 13.6866 20.692 13.6006 20.692 13.5131C20.692 13.4255 20.715 13.3395 20.7588 13.2636L22.2588 10.6651C22.2084 10.5857 22.1638 10.5173 22.1249 10.4598C22.06 10.364 22.0305 10.2486 22.0415 10.1334C22.0524 10.0182 22.1032 9.91042 22.185 9.82857L22.1835 9.82707L23.0112 9L21.2893 7.27813L20.462 8.10538C20.3744 8.19299 20.2574 8.24495 20.1336 8.25118C20.0099 8.25742 19.8883 8.21749 19.7923 8.13913C18.8512 7.5097 17.7935 7.07529 16.6817 6.86157C16.562 6.83868 16.4549 6.77285 16.3804 6.67646C16.3059 6.58008 16.2693 6.45979 16.2773 6.33825V5.20132H13.8384V6.37132C13.8384 6.48718 13.798 6.59941 13.7242 6.6887C13.6503 6.77799 13.5477 6.83877 13.4339 6.86057V6.86157C12.3069 7.07761 11.2358 7.52146 10.2863 8.16594C10.1902 8.23075 10.0746 8.26011 9.95916 8.24901C9.84377 8.2379 9.73583 8.18702 9.65384 8.10507L8.82646 7.27775L7.10446 9L7.93184 9.82732C8.01669 9.91218 8.06819 10.0247 8.07694 10.1444C8.08568 10.2641 8.05108 10.383 7.97946 10.4793C7.34192 11.424 6.90257 12.4883 6.68796 13.6077C6.66508 13.7273 6.59926 13.8344 6.50288 13.9089C6.40651 13.9834 6.28624 14.02 6.16471 14.012H5.02771V16.4509H6.19771C6.31358 16.4509 6.42582 16.4913 6.51513 16.5651C6.60444 16.6389 6.66522 16.7415 6.68702 16.8553H6.68802C6.90407 17.9824 7.34792 19.0534 7.9924 20.0029C8.05721 20.0991 8.08659 20.2147 8.0755 20.3301C8.0644 20.4455 8.01353 20.5534 7.93159 20.6354L7.10421 21.4628L8.2114 22.5699C8.30145 22.4938 8.41554 22.4522 8.5334 22.4524H9.5584L9.65346 22.3573C9.73836 22.2724 9.85097 22.2209 9.97071 22.2122C10.0905 22.2034 10.2093 22.2381 10.3056 22.3098L10.5233 22.4524H12.7635C12.8961 22.4524 13.0233 22.5051 13.1171 22.5988C13.2108 22.6926 13.2635 22.8198 13.2635 22.9524V23.5669L13.2638 23.567ZM15.6004 26.2615H13.3403V26.2596C13.3147 26.2595 13.2891 26.2576 13.2638 26.2537V30.3761C13.2638 30.5087 13.2111 30.6359 13.1173 30.7297C13.0236 30.8235 12.8964 30.8761 12.7638 30.8761H8.53365C8.40104 30.8761 8.27386 30.8235 8.1801 30.7297C8.08633 30.6359 8.03365 30.5087 8.03365 30.3761V23.8063L6.04396 21.8164C5.95023 21.7226 5.89757 21.5955 5.89757 21.4629C5.89757 21.3303 5.95023 21.2031 6.04396 21.1094L6.93984 20.2134C6.41483 19.3573 6.02836 18.4237 5.79471 17.4469L4.52771 17.4489C4.3951 17.4489 4.26793 17.3962 4.17416 17.3024C4.08039 17.2087 4.02771 17.0815 4.02771 16.9489V13.5139H4.02965C4.02965 13.3818 4.08212 13.2552 4.17553 13.1618C4.26893 13.0684 4.39562 13.0159 4.52771 13.0159H5.79477C6.02838 12.0392 6.41483 11.1055 6.93984 10.2494L6.04396 9.35344C5.95023 9.25968 5.89757 9.13252 5.89757 8.99994C5.89757 8.86736 5.95023 8.74021 6.04396 8.64644L8.47284 6.2175C8.5666 6.12375 8.69377 6.07108 8.82637 6.07108C8.95897 6.07108 9.08613 6.12375 9.1799 6.2175L10.0758 7.11344C10.9319 6.58844 11.8656 6.20197 12.8423 5.96832L12.8403 4.70132C12.8403 4.56871 12.893 4.44153 12.9868 4.34776C13.0806 4.254 13.2077 4.20132 13.3403 4.20132H16.7753V4.20325C16.9074 4.20327 17.0341 4.25575 17.1275 4.34916C17.2209 4.44256 17.2733 4.56923 17.2733 4.70132V5.96832C18.25 6.20149 19.1835 6.58838 20.0387 7.1145L20.9358 6.2175C21.0295 6.12377 21.1567 6.07111 21.2893 6.07111C21.4219 6.07111 21.549 6.12377 21.6428 6.2175L23.6615 8.23625L25.3473 5.3165C25.3904 5.23987 25.4531 5.176 25.5289 5.13136C25.6047 5.08673 25.6909 5.06292 25.7789 5.06233C25.8668 5.06175 25.9534 5.08442 26.0298 5.12804C26.1062 5.17167 26.1697 5.2347 26.2138 5.31075L30.7888 13.2342C30.8397 13.3094 30.8692 13.397 30.874 13.4877C30.8788 13.5783 30.8589 13.6686 30.8162 13.7488C30.7736 13.829 30.71 13.896 30.6321 13.9427C30.5542 13.9894 30.4651 14.014 30.3743 14.0139H28.3973V30.3764C28.3973 30.509 28.3446 30.6362 28.2508 30.7299C28.1571 30.8237 28.0299 30.8764 27.8973 30.8764H23.6672C23.5345 30.8764 23.4074 30.8237 23.3136 30.7299C23.2198 30.6362 23.1672 30.509 23.1672 30.3764V22.7209L21.6428 24.2453C21.549 24.3391 21.4219 24.3917 21.2893 24.3917C21.1567 24.3917 21.0295 24.3391 20.9358 24.2453L20.8305 24.1401V30.3761C20.8305 30.5087 20.7778 30.6359 20.6841 30.7297C20.5903 30.8235 20.4631 30.8761 20.3305 30.8761H16.1004C15.9678 30.8761 15.8406 30.8235 15.7468 30.7297C15.6531 30.6359 15.6004 30.5087 15.6004 30.3761V26.2615ZM16.1004 17.5291C15.9678 17.5291 15.8406 17.5818 15.7468 17.6756C15.6531 17.7693 15.6004 17.8965 15.6004 18.0291V20.0484C14.5233 20.1693 13.4368 19.9257 12.5145 19.3566C11.5921 18.7874 10.8872 17.9254 10.5124 16.9084C10.1375 15.8915 10.1144 14.7782 10.4467 13.7466C10.779 12.715 11.4475 11.8245 12.3454 11.2175C13.2433 10.6105 14.3188 10.322 15.4 10.3981C16.4811 10.4742 17.5056 10.9106 18.3096 11.6374C19.1135 12.3643 19.6507 13.3397 19.8351 14.4077C20.0196 15.4757 19.8407 16.5747 19.327 17.5291H16.1004ZM19.8306 18.5291V29.8761H16.6004V18.5291H19.8306ZM12.2638 23.4525V29.8761H9.03365V23.4525H12.2638ZM20.7364 1.87413C20.6706 1.75913 20.6532 1.62271 20.688 1.49489C20.7228 1.36706 20.807 1.25829 20.922 1.1925C21.037 1.12672 21.1734 1.10932 21.3012 1.14412C21.429 1.17892 21.5378 1.26307 21.6036 1.37807L22.8627 3.57925C22.9045 3.65208 22.9273 3.73427 22.9289 3.81821C22.9304 3.90216 22.9108 3.98516 22.8718 4.05951C22.8328 4.13386 22.7757 4.19718 22.7057 4.24359C22.6357 4.28999 22.5552 4.318 22.4715 4.325L19.9879 4.67688C19.8568 4.69501 19.724 4.66033 19.6185 4.58048C19.513 4.50063 19.4436 4.38215 19.4254 4.2511C19.4073 4.12005 19.442 3.98716 19.5218 3.88168C19.6017 3.7762 19.7202 3.70676 19.8512 3.68863L20.9361 3.53494C18.5013 2.29471 15.7365 1.85695 13.0376 2.28437C10.3388 2.71178 7.84446 3.98245 5.91202 5.91432C0.851399 10.9749 0.867024 19.1607 5.91202 24.2056C6.00211 24.3 6.05168 24.426 6.05013 24.5565C6.04858 24.6871 5.99604 24.8118 5.90374 24.9042C5.81143 24.9965 5.68668 25.049 5.55614 25.0506C5.42561 25.0521 5.29964 25.0026 5.20515 24.9125C-0.218976 19.4884 -0.251101 10.6637 5.20515 5.20713C7.24683 3.16518 9.87248 1.80798 12.7191 1.32317C15.5656 0.838363 18.4925 1.2499 21.095 2.50088L20.7364 1.87413ZM24.1672 13.5139C24.1672 13.3813 24.1145 13.2541 24.0207 13.1603C23.9269 13.0666 23.7998 13.0139 23.6672 13.0139H22.0551L25.7822 6.55838L29.5093 13.0139H27.8973C27.7647 13.0139 27.6375 13.0666 27.5437 13.1603C27.45 13.2541 27.3973 13.3813 27.3973 13.5139V29.8764H24.1672V21.6831C24.2007 21.6145 24.2181 21.5392 24.2181 21.4629C24.2181 21.3866 24.2007 21.3113 24.1672 21.2427V13.5139Z" fill="#CD9D5D"/>
</g>
<defs>
<clipPath id="clip0_123_2264">
<rect width="32" height="32" fill="white"/>
</clipPath>
</defs>
</svg>
