<svg width="32" height="32" viewBox="0 0 32 32" fill="none" xmlns="http://www.w3.org/2000/svg">
<path d="M26 22H6C5.45 22 5 22.45 5 23V25C5 25.55 5.45 26 6 26H26C26.55 26 27 25.55 27 25V23C27 22.45 26.55 22 26 22ZM6 25V23H26V25H6Z" fill="#CD9D5D"/>
<path d="M6.5 20H15C15.825 20 16.5 19.325 16.5 18.5V12.5C16.5 11.675 15.825 11 15 11H6.5C5.675 11 5 11.675 5 12.5V18.5C5 19.325 5.675 20 6.5 20ZM15.5 18.38L11.595 15.5L15.5 12.62V18.38ZM14.655 19H6.84L10.745 16.12L14.65 19H14.655ZM10.75 14.88L6.845 12H14.66L10.755 14.88H10.75ZM9.905 15.5L6 18.38V12.62L9.905 15.5Z" fill="#CD9D5D"/>
<path d="M26.5 11H18.5C18.225 11 18 11.225 18 11.5C18 11.775 18.225 12 18.5 12H26.5C26.775 12 27 11.775 27 11.5C27 11.225 26.775 11 26.5 11Z" fill="#CD9D5D"/>
<path d="M26.5 15H18.5C18.225 15 18 15.225 18 15.5C18 15.775 18.225 16 18.5 16H26.5C26.775 16 27 15.775 27 15.5C27 15.225 26.775 15 26.5 15Z" fill="#CD9D5D"/>
<path d="M26.5 19H18.5C18.225 19 18 19.225 18 19.5C18 19.775 18.225 20 18.5 20H26.5C26.775 20 27 19.775 27 19.5C27 19.225 26.775 19 26.5 19Z" fill="#CD9D5D"/>
<path d="M28.5 2H3.5C2.12 2 1 3.12 1 4.5V27.5C1 28.88 2.12 30 3.5 30H28.5C29.88 30 31 28.88 31 27.5V4.5C31 3.12 29.88 2 28.5 2ZM2 4.5C2 3.675 2.675 3 3.5 3H28.5C29.325 3 30 3.675 30 4.5V8H19.74L17.89 5.69C17.795 5.57 17.65 5.5 17.5 5.5H2V4.5ZM28.5 29H3.5C2.675 29 2 28.325 2 27.5V6.5H17.26L19.11 8.81C19.205 8.93 19.35 9 19.5 9H30V27.5C30 28.325 29.325 29 28.5 29Z" fill="#CD9D5D"/>
<path d="M27.25 6.25C27.6642 6.25 28 5.91421 28 5.5C28 5.08579 27.6642 4.75 27.25 4.75C26.8358 4.75 26.5 5.08579 26.5 5.5C26.5 5.91421 26.8358 6.25 27.25 6.25Z" fill="#CD9D5D"/>
<path d="M24.25 6.25C24.6642 6.25 25 5.91421 25 5.5C25 5.08579 24.6642 4.75 24.25 4.75C23.8358 4.75 23.5 5.08579 23.5 5.5C23.5 5.91421 23.8358 6.25 24.25 6.25Z" fill="#CD9D5D"/>
<path d="M21.25 6.25C21.6642 6.25 22 5.91421 22 5.5C22 5.08579 21.6642 4.75 21.25 4.75C20.8358 4.75 20.5 5.08579 20.5 5.5C20.5 5.91421 20.8358 6.25 21.25 6.25Z" fill="#CD9D5D"/>
</svg>
