<svg width="32" height="32" viewBox="0 0 32 32" fill="none" xmlns="http://www.w3.org/2000/svg">
<g clip-path="url(#clip0_123_2546)">
<path d="M13 3C10.9233 3 8.89323 3.61581 7.16652 4.76957C5.4398 5.92332 4.09399 7.5632 3.29927 9.48182C2.50455 11.4004 2.29661 13.5116 2.70176 15.5484C3.1069 17.5852 4.10693 19.4562 5.57538 20.9246C7.04384 22.3931 8.91476 23.3931 10.9516 23.7982C12.9884 24.2034 15.0996 23.9955 17.0182 23.2007C18.9368 22.406 20.5767 21.0602 21.7304 19.3335C22.8842 17.6068 23.5 15.5767 23.5 13.5C23.4968 10.7162 22.3896 8.04733 20.4211 6.07889C18.4527 4.11044 15.7838 3.00318 13 3ZM13 23C11.1211 23 9.28435 22.4428 7.72209 21.399C6.15982 20.3551 4.94218 18.8714 4.22315 17.1355C3.50412 15.3996 3.31599 13.4895 3.68254 11.6466C4.0491 9.80382 4.95389 8.11108 6.28249 6.78249C7.61109 5.45389 9.30383 4.5491 11.1466 4.18254C12.9895 3.81598 14.8996 4.00411 16.6355 4.72314C18.3714 5.44218 19.8551 6.65982 20.899 8.22208C21.9428 9.78435 22.5 11.6211 22.5 13.5C22.4971 16.0187 21.4953 18.4333 19.7143 20.2143C17.9333 21.9953 15.5187 22.9971 13 23Z" fill="#CD9D5D"/>
<path d="M23.0464 20.926C24.9442 18.361 25.7912 15.1682 25.4144 11.9997C25.0375 8.83127 23.4653 5.9262 21.0188 3.87785C18.5723 1.82949 15.4361 0.792381 12.2508 0.978328C9.06542 1.16428 6.07121 2.55925 3.87968 4.87836C1.68814 7.19746 0.464622 10.2657 0.459004 13.4565C0.453385 16.6473 1.66609 19.7198 3.84945 22.0466C6.0328 24.3734 9.02208 25.779 12.2068 25.9761C15.3914 26.1733 18.5313 25.1472 20.9849 23.1075L28.4379 30.5575C28.5759 30.7007 28.7409 30.8149 28.9235 30.8936C29.1061 30.9723 29.3025 31.0138 29.5013 31.0158C29.7001 31.0177 29.8973 30.9801 30.0813 30.905C30.2654 30.8299 30.4327 30.7189 30.5734 30.5785C30.7141 30.4381 30.8255 30.271 30.901 30.0871C30.9764 29.9032 31.0145 29.7061 31.013 29.5073C31.0114 29.3085 30.9703 29.112 30.892 28.9293C30.8137 28.7465 30.6998 28.5812 30.5569 28.443L23.0464 20.926ZM1.49994 13.5C1.49994 11.2255 2.1744 9.0021 3.43804 7.11094C4.70168 5.21977 6.49773 3.74579 8.59908 2.87538C10.7004 2.00497 13.0127 1.77723 15.2435 2.22096C17.4743 2.66469 19.5234 3.75996 21.1317 5.36827C22.74 6.97657 23.8352 9.02567 24.279 11.2565C24.7227 13.4872 24.495 15.7995 23.6246 17.9009C22.7541 20.0022 21.2802 21.7983 19.389 23.0619C17.4978 24.3255 15.2744 25 12.9999 25C9.95097 24.9967 7.02782 23.784 4.87187 21.6281C2.71592 19.4721 1.50325 16.549 1.49994 13.5ZM29.8499 29.854C29.757 29.9467 29.6312 29.9988 29.4999 29.9988C29.3687 29.9988 29.2428 29.9467 29.1499 29.854L21.7269 22.436C21.9659 22.2027 22.1949 21.96 22.4139 21.708L29.8499 29.15C29.8972 29.1952 29.9349 29.2495 29.9607 29.3097C29.9865 29.3698 29.9998 29.4346 29.9999 29.5C30 29.5661 29.9868 29.6314 29.961 29.6923C29.9352 29.7531 29.8974 29.8081 29.8499 29.854Z" fill="#CD9D5D"/>
<path d="M8 17H10C10.1326 17 10.2598 16.9473 10.3536 16.8536C10.4473 16.7598 10.5 16.6326 10.5 16.5V11.5C10.5 11.3674 10.4473 11.2402 10.3536 11.1464C10.2598 11.0527 10.1326 11 10 11H8C7.86739 11 7.74021 11.0527 7.64645 11.1464C7.55268 11.2402 7.5 11.3674 7.5 11.5V16.5C7.5 16.6326 7.55268 16.7598 7.64645 16.8536C7.74021 16.9473 7.86739 17 8 17ZM8.5 12H9.5V16H8.5V12Z" fill="#CD9D5D"/>
<path d="M12 17H14C14.1326 17 14.2598 16.9473 14.3536 16.8536C14.4473 16.7598 14.5 16.6326 14.5 16.5V10.5C14.5 10.3674 14.4473 10.2402 14.3536 10.1464C14.2598 10.0527 14.1326 10 14 10H12C11.8674 10 11.7402 10.0527 11.6464 10.1464C11.5527 10.2402 11.5 10.3674 11.5 10.5V16.5C11.5 16.6326 11.5527 16.7598 11.6464 16.8536C11.7402 16.9473 11.8674 17 12 17ZM12.5 11H13.5V16H12.5V11Z" fill="#CD9D5D"/>
<path d="M18 9H16C15.8674 9 15.7402 9.05268 15.6464 9.14645C15.5527 9.24021 15.5 9.36739 15.5 9.5V16.5C15.5 16.6326 15.5527 16.7598 15.6464 16.8536C15.7402 16.9473 15.8674 17 16 17H18C18.1326 17 18.2598 16.9473 18.3536 16.8536C18.4473 16.7598 18.5 16.6326 18.5 16.5V9.5C18.5 9.36739 18.4473 9.24021 18.3536 9.14645C18.2598 9.05268 18.1326 9 18 9ZM17.5 16H16.5V10H17.5V16Z" fill="#CD9D5D"/>
<path d="M24.207 3H25.5V2H24C23.8674 2.00003 23.7402 2.05273 23.6465 2.1465L22.1465 3.6465L22.8535 4.3535L24.207 3Z" fill="#CD9D5D"/>
<path d="M26.5 2H31V3H26.5V2Z" fill="#CD9D5D"/>
<path d="M26.5 4H27.5V5H26.5V4Z" fill="#CD9D5D"/>
<path d="M28.5 4H31V5H28.5V4Z" fill="#CD9D5D"/>
<path d="M26.5 6H31V7H26.5V6Z" fill="#CD9D5D"/>
<path d="M7.793 29H6.5V30H8C8.1326 30 8.25975 29.9473 8.3535 29.8535L9.8535 28.3535L9.1465 27.6465L7.793 29Z" fill="#CD9D5D"/>
<path d="M1 29H5.5V30H1V29Z" fill="#CD9D5D"/>
<path d="M4.5 27H5.5V28H4.5V27Z" fill="#CD9D5D"/>
<path d="M1 27H3.5V28H1V27Z" fill="#CD9D5D"/>
<path d="M1 25H5.5V26H1V25Z" fill="#CD9D5D"/>
<path d="M7.5 18H18.5V19H7.5V18Z" fill="#CD9D5D"/>
</g>
<defs>
<clipPath id="clip0_123_2546">
<rect width="32" height="32" fill="white"/>
</clipPath>
</defs>
</svg>
