<svg width="33" height="33" viewBox="0 0 33 33" fill="none" xmlns="http://www.w3.org/2000/svg">
<g clip-path="url(#clip0_123_2477)">
<mask id="mask0_123_2477" style="mask-type:luminance" maskUnits="userSpaceOnUse" x="0" y="0" width="33" height="33">
<path d="M32.334 0.333374H0.333984V32.3334H32.334V0.333374Z" fill="white"/>
<path d="M15.959 10.3334C16.304 10.3334 16.584 10.6134 16.584 10.9584C16.584 11.3034 16.304 11.5834 15.959 11.5834C15.614 11.5834 15.334 11.3034 15.334 10.9584C15.334 10.6134 15.614 10.3334 15.959 10.3334Z" fill="white"/>
<path d="M15.959 12.8334C16.304 12.8334 16.584 13.1134 16.584 13.4584C16.584 13.8034 16.304 14.0834 15.959 14.0834C15.614 14.0834 15.334 13.8034 15.334 13.4584C15.334 13.1134 15.614 12.8334 15.959 12.8334Z" fill="white"/>
</mask>
<g mask="url(#mask0_123_2477)">
<mask id="mask1_123_2477" style="mask-type:luminance" maskUnits="userSpaceOnUse" x="0" y="0" width="33" height="33">
<path d="M0.333984 0.333376H32.334V32.3334H0.333984V0.333376Z" fill="white"/>
</mask>
<g mask="url(#mask1_123_2477)">
<path d="M15.959 10.3334C16.304 10.3334 16.584 10.6134 16.584 10.9584C16.584 11.3034 16.304 11.5834 15.959 11.5834C15.614 11.5834 15.334 11.3034 15.334 10.9584C15.334 10.6134 15.614 10.3334 15.959 10.3334Z" fill="#CD9D5D"/>
<path d="M15.959 12.8334C16.304 12.8334 16.584 13.1134 16.584 13.4584C16.584 13.8034 16.304 14.0834 15.959 14.0834C15.614 14.0834 15.334 13.8034 15.334 13.4584C15.334 13.1134 15.614 12.8334 15.959 12.8334Z" fill="#CD9D5D"/>
<path d="M31.709 7.20837H25.459V0.958374" stroke="#CD9D5D" stroke-width="1.25" stroke-miterlimit="10" stroke-linecap="round" stroke-linejoin="round"/>
<path d="M16.334 4.70837H22.959" stroke="#CD9D5D" stroke-width="1.25" stroke-miterlimit="10" stroke-linecap="round" stroke-linejoin="round"/>
<path d="M16.334 7.20837H22.959" stroke="#CD9D5D" stroke-width="1.25" stroke-miterlimit="10" stroke-linecap="round" stroke-linejoin="round"/>
<path d="M13.459 10.9584C13.459 13.9821 11.3115 16.5046 8.45898 17.0834C8.05523 17.1652 7.63711 17.2084 7.20898 17.2084C3.75711 17.2084 0.958984 14.4102 0.958984 10.9584C0.958984 7.5065 3.75711 4.70837 7.20898 4.70837C7.63711 4.70837 8.05523 4.7515 8.45898 4.83337C11.3115 5.41212 13.459 7.93462 13.459 10.9584Z" stroke="#CD9D5D" stroke-width="1.25" stroke-miterlimit="10" stroke-linecap="round" stroke-linejoin="round"/>
<path d="M7.20898 14.7084C5.14086 14.7084 3.45898 13.0265 3.45898 10.9584" stroke="#CD9D5D" stroke-width="1.25" stroke-miterlimit="10" stroke-linecap="round" stroke-linejoin="round"/>
<path d="M7.20898 4.70837V10.9584H13.459" stroke="#CD9D5D" stroke-width="1.25" stroke-miterlimit="10" stroke-linecap="round" stroke-linejoin="round"/>
<path d="M8.45898 17.0834V30.4584C8.45898 31.149 9.01836 31.7084 9.70898 31.7084H30.459C31.1496 31.7084 31.709 31.149 31.709 30.4584V7.20837L25.459 0.958374H9.70898C9.01836 0.958374 8.45898 1.51775 8.45898 2.20837V4.83337" stroke="#CD9D5D" stroke-width="1.25" stroke-miterlimit="10" stroke-linecap="round" stroke-linejoin="round"/>
<path d="M13.459 26.3334C13.459 27.024 12.8996 27.5834 12.209 27.5834C11.5184 27.5834 10.959 27.024 10.959 26.3334C10.959 25.6427 11.5184 25.0834 12.209 25.0834C12.554 25.0834 12.8665 25.2234 13.0927 25.4496C13.319 25.6759 13.459 25.9884 13.459 26.3334Z" stroke="#CD9D5D" stroke-width="1.25" stroke-miterlimit="10" stroke-linecap="round" stroke-linejoin="round"/>
<path d="M16.0752 22.2171C15.849 21.9909 15.709 21.6784 15.709 21.3334C15.709 20.6427 16.2684 20.0834 16.959 20.0834C17.6496 20.0834 18.209 20.6427 18.209 21.3334C18.209 21.6784 18.069 21.9909 17.8427 22.2171C17.6165 22.4434 17.304 22.5834 16.959 22.5834C16.614 22.5834 16.3015 22.4434 16.0752 22.2171Z" stroke="#CD9D5D" stroke-width="1.25" stroke-miterlimit="10" stroke-linecap="round" stroke-linejoin="round"/>
<path d="M22.584 26.3334C22.584 27.024 22.0246 27.5834 21.334 27.5834C20.6434 27.5834 20.084 27.024 20.084 26.3334C20.084 25.9884 20.224 25.6759 20.4502 25.4496C20.6765 25.2234 20.989 25.0834 21.334 25.0834C22.0246 25.0834 22.584 25.6427 22.584 26.3334Z" stroke="#CD9D5D" stroke-width="1.25" stroke-miterlimit="10" stroke-linecap="round" stroke-linejoin="round"/>
<path d="M29.0215 18.8334C29.0215 19.524 28.4621 20.0834 27.7715 20.0834C27.0809 20.0834 26.5215 19.524 26.5215 18.8334C26.5215 18.1427 27.0809 17.5834 27.7715 17.5834C28.4621 17.5834 29.0215 18.1427 29.0215 18.8334Z" stroke="#CD9D5D" stroke-width="1.25" stroke-miterlimit="10" stroke-linecap="round" stroke-linejoin="round"/>
<path d="M13.0918 25.4496L16.0743 22.2171" stroke="#CD9D5D" stroke-width="1.25" stroke-miterlimit="10" stroke-linecap="round" stroke-linejoin="round"/>
<path d="M17.8418 22.2171L20.4493 25.4496" stroke="#CD9D5D" stroke-width="1.25" stroke-miterlimit="10" stroke-linecap="round" stroke-linejoin="round"/>
<path d="M22.0273 25.2934L27.0773 19.8734" stroke="#CD9D5D" stroke-width="1.25" stroke-miterlimit="10" stroke-linecap="round" stroke-linejoin="round"/>
<path d="M18.459 10.9584H27.959" stroke="#CD9D5D" stroke-width="1.25" stroke-miterlimit="10" stroke-linecap="round" stroke-linejoin="round"/>
<path d="M18.459 13.4584H27.959" stroke="#CD9D5D" stroke-width="1.25" stroke-miterlimit="10" stroke-linecap="round" stroke-linejoin="round"/>
</g>
</g>
</g>
<defs>
<clipPath id="clip0_123_2477">
<rect width="32" height="32" fill="white" transform="translate(0.333984 0.333252)"/>
</clipPath>
</defs>
</svg>
