<svg width="32" height="32" viewBox="0 0 32 32" fill="none" xmlns="http://www.w3.org/2000/svg">
<g clip-path="url(#clip0_123_3393)">
<path d="M29.7534 4.05039H19.1966C19.7305 2.76827 19.2425 1.25389 18.0083 0.541269C16.6676 -0.232919 14.9468 0.228081 14.1727 1.56902L12.7401 4.05033H2.8325C1.27069 4.05039 0 5.32102 0 6.88289V24.5343C0 26.0961 1.27069 27.3668 2.8325 27.3668H11.6097C11.7168 28.3234 11.6503 29.4676 11.425 30.5853H7.90387C7.55875 30.5853 7.27887 30.8651 7.27887 31.2103C7.27887 31.5554 7.55875 31.8353 7.90387 31.8353H24.0965C24.4416 31.8353 24.7215 31.5554 24.7215 31.2103C24.7215 30.8651 24.4416 30.5853 24.0965 30.5853H20.5408C20.2954 29.4571 20.2162 28.3124 20.3208 27.3668H29.1674C30.7293 27.3668 32 26.0961 32 24.5343V6.29733C32 5.05839 30.9922 4.05039 29.7534 4.05039ZM8.83788 14.2244L10.7437 15.3247L8.83788 16.425V14.2244ZM11.7649 14.471L9.06662 12.9131L14.1876 4.04327L16.8859 5.60114L11.7649 14.471ZM17.3834 1.62377C18.1273 2.05327 18.3831 3.00789 17.9536 3.75189L17.5109 4.51864L14.8126 2.96077L15.2553 2.19408C15.6848 1.45008 16.6394 1.19446 17.3834 1.62377ZM2.8325 5.30039H12.0184L7.67163 12.8293C7.61675 12.9244 7.58787 13.0321 7.58787 13.1418V17.5076C7.58787 17.8527 7.86775 18.1326 8.21288 18.1326H23.7871C24.1322 18.1326 24.4121 17.8527 24.4121 17.5076C24.4121 17.1625 24.1322 16.8826 23.7871 16.8826H10.5454L12.3062 15.866C12.4013 15.8111 12.4801 15.7322 12.535 15.6372L18.503 5.30039H29.7534C30.3029 5.30039 30.75 5.74758 30.75 6.29733V21.7258H1.25V6.88289C1.25 6.01027 1.95987 5.30039 2.8325 5.30039ZM19.2649 30.5853H12.6972C12.8988 29.4746 12.9595 28.3452 12.8667 27.3668H19.064C18.9743 28.3372 19.046 29.4666 19.2649 30.5853ZM29.1674 26.1168H2.8325C1.95987 26.1168 1.25 25.407 1.25 24.5343V22.9758H30.75V24.5343C30.75 25.407 30.0401 26.1168 29.1674 26.1168ZM24.4121 13.7258C24.4121 14.0709 24.1322 14.3508 23.7871 14.3508H17.3124C16.9672 14.3508 16.6874 14.0709 16.6874 13.7258C16.6874 13.3806 16.9672 13.1008 17.3124 13.1008H23.7871C24.1322 13.1008 24.4121 13.3806 24.4121 13.7258Z" fill="#CD9D5D"/>
</g>
<defs>
<clipPath id="clip0_123_3393">
<rect width="32" height="32" fill="white"/>
</clipPath>
</defs>
</svg>
