<svg width="37" height="37" viewBox="0 0 37 37" fill="none" xmlns="http://www.w3.org/2000/svg">
<path d="M19.0958 31.928C18.9052 32.0205 18.7023 32.0674 18.5001 32.0674C18.299 32.0674 18.098 32.0218 17.9112 31.9305L9.63302 27.8223L6.22779 29.5107C6.21114 29.5193 6.16797 29.5403 6.16797 29.6001C6.16797 29.6599 6.21052 29.6809 6.22655 29.6889L18.4551 35.7575C18.4834 35.7705 18.5192 35.7717 18.5519 35.7551L30.7748 29.6895C30.7915 29.6809 30.8346 29.6599 30.8346 29.6001C30.8346 29.5403 30.7921 29.5193 30.7761 29.5113L27.369 27.8223L19.0952 31.928H19.0958Z" fill="white"/>
<path d="M18.5482 25.8885L30.7761 19.8205C30.7909 19.8125 30.8322 19.7928 30.8322 19.733C30.8322 19.6732 30.7915 19.6534 30.7761 19.6454L18.5482 13.5768C18.5186 13.5626 18.4828 13.562 18.452 13.5768L6.22409 19.6448C6.20929 19.6528 6.16797 19.6725 6.16797 19.7324C6.16797 19.7922 6.20867 19.8119 6.22409 19.8199L18.452 25.8885C18.4828 25.9027 18.5186 25.9033 18.5482 25.8885Z" fill="white"/>
<path d="M6.16797 24.6666C6.16797 24.7265 6.21052 24.7474 6.22655 24.7555L18.4551 30.8241C18.4834 30.837 18.5192 30.8382 18.5519 30.8216L30.7748 24.7561C30.7915 24.7474 30.8346 24.7265 30.8346 24.6666C30.8346 24.6068 30.7921 24.5859 30.7761 24.5778L27.369 22.8882L19.0976 26.9933C18.9108 27.0858 18.706 27.1327 18.5013 27.1327C18.2966 27.1327 18.0918 27.0864 17.905 26.9939C17.7181 26.9014 9.63364 22.8882 9.63364 22.8882L6.22779 24.5772C6.21114 24.5859 6.16797 24.6068 6.16797 24.6666Z" fill="white"/>
<path d="M6.06154 23.2828L8.24454 22.2006L5.67489 20.9253C5.21794 20.6984 4.93366 20.242 4.93366 19.7333C4.93366 19.2245 5.21794 18.7688 5.67489 18.5413L17.9028 12.4726C18.2759 12.287 18.7217 12.2876 19.0954 12.4726L31.3233 18.5419C31.7802 18.7688 32.0645 19.2251 32.0645 19.7339C32.0645 20.2426 31.7802 20.6984 31.3233 20.9259L28.7536 22.2012L30.7498 23.1909C33.7123 22.401 35.7658 19.7444 35.7658 16.6512C35.7658 14.0014 34.2013 11.5785 31.7802 10.4783C31.5712 10.384 31.4324 10.1811 31.4195 9.9517C31.1401 5.06339 27.0899 1.23389 22.1991 1.23389C18.4646 1.23389 15.1179 3.45759 13.6718 6.89982C13.6052 7.05892 13.4745 7.18287 13.3117 7.24145C13.1489 7.29942 12.9688 7.28647 12.8165 7.2063C12.2905 6.93065 11.6973 6.78389 11.0991 6.78389C9.05854 6.78389 7.39909 8.44334 7.39909 10.4839C7.39909 10.8033 7.15551 11.0999 6.83854 11.1289C3.64235 11.42 1.23242 14.0587 1.23242 17.2672C1.23242 20.1662 3.25262 22.6624 6.06154 23.2828Z" fill="white"/>
</svg>
