<svg width="32" height="32" viewBox="0 0 32 32" fill="none" xmlns="http://www.w3.org/2000/svg">
<path d="M25.1389 27.6705C26.2104 27.6705 27.0783 26.8026 27.0783 25.7311V23.2729L22.6855 27.6705H25.1389Z" fill="white"/>
<path d="M26.3423 14.5212C26.5654 14.2982 26.8126 14.1091 27.0793 13.9636V6.82666H0.902344V25.7309C0.902344 26.8024 1.77022 27.6703 2.84174 27.6703H14.5605L15.1133 25.7406L26.3423 14.5212ZM15.9326 9.71151H24.7666C25.0333 9.71151 25.2514 9.92969 25.2514 10.1964C25.2514 10.463 25.0333 10.6812 24.7666 10.6812H15.9326C15.666 10.6812 15.4478 10.463 15.4478 10.1964C15.4478 9.92969 15.666 9.71151 15.9326 9.71151ZM15.9326 11.6751H24.7666C25.0333 11.6751 25.2514 11.8885 25.2514 12.16C25.2514 12.4267 25.0333 12.6448 24.7666 12.6448H15.9326C15.666 12.6448 15.4478 12.4267 15.4478 12.16C15.4478 11.8885 15.666 11.6751 15.9326 11.6751ZM15.9326 13.5951H24.7666C25.0333 13.5951 25.2514 13.8133 25.2514 14.08C25.2514 14.3467 25.0333 14.5648 24.7666 14.5648H15.9326C15.666 14.5648 15.4478 14.3467 15.4478 14.08C15.4478 13.8133 15.666 13.5951 15.9326 13.5951ZM15.9326 15.5539H19.5642C19.8308 15.5539 20.049 15.7721 20.049 16.0388C20.049 16.3103 19.8308 16.5236 19.5642 16.5236H15.9326C15.666 16.5236 15.4478 16.3103 15.4478 16.0388C15.4478 15.7721 15.666 15.5539 15.9326 15.5539ZM8.2284 8.28121C11.2054 8.28121 13.6199 10.6958 13.6199 13.6727C13.6199 16.6497 11.2054 19.0594 8.2284 19.0594C5.25143 19.0594 2.84174 16.6497 2.84174 13.6727C2.84174 10.6958 5.25143 8.28121 8.2284 8.28121ZM13.8139 25.7309H2.84174V21.3139H13.8139V25.7309Z" fill="white"/>
<path d="M7.46214 16.4896L10.8755 14.1187C11.244 13.8957 11.244 13.4448 10.8755 13.2266L7.46214 10.8557C7.01608 10.589 6.39062 10.8508 6.39062 11.3018V16.0436C6.39062 16.4945 7.01608 16.7563 7.46214 16.4896Z" fill="white"/>
<path d="M14.6133 30.9916L19.3551 29.6292L15.9757 26.2498L14.6133 30.9916Z" fill="white"/>
<path d="M30.4011 15.205C29.4702 14.2741 27.9574 14.2741 27.0217 15.205L25.9453 16.2814L29.3247 19.6608L30.4011 18.5844C31.332 17.6535 31.332 16.1408 30.4011 15.205Z" fill="white"/>
<path d="M27.0793 2.94794C27.0793 1.87642 26.2114 1.00854 25.1399 1.00854H2.84174C1.77022 1.00854 0.902344 1.87642 0.902344 2.94794V5.85703H27.0793V2.94794ZM4.29143 4.64491C3.7581 4.64491 3.32174 4.20854 3.32174 3.67521C3.32174 3.14188 3.7581 2.70551 4.29143 2.70551C4.82477 2.70551 5.26113 3.14188 5.26113 3.67521C5.26113 4.20854 4.82962 4.64491 4.29143 4.64491ZM7.85992 4.64491C7.32659 4.64491 6.89022 4.20854 6.89022 3.67521C6.89022 3.14188 7.32659 2.70551 7.85992 2.70551C8.39325 2.70551 8.82962 3.14188 8.82962 3.67521C8.82962 4.20854 8.39325 4.64491 7.85992 4.64491ZM11.4236 4.64491C10.8902 4.64491 10.4539 4.20854 10.4539 3.67521C10.4539 3.14188 10.8902 2.70551 11.4236 2.70551C11.9569 2.70551 12.3933 3.14188 12.3933 3.67521C12.3933 4.20854 11.9569 4.64491 11.4236 4.64491Z" fill="white"/>
<path d="M16.6602 25.5645L25.2573 16.9673L28.6337 20.3438L20.0366 28.9409L16.6602 25.5645Z" fill="white"/>
</svg>
