<svg width="32" height="32" viewBox="0 0 32 32" fill="none" xmlns="http://www.w3.org/2000/svg">
<g clip-path="url(#clip0_100_1070)">
<path d="M30.5863 14.9673V2.11377C30.5863 1.29527 29.9205 0.629395 29.102 0.629395H2.41519C1.59675 0.629395 0.930875 1.29527 0.930875 2.11377V18.4837H0.819125C0.401937 18.4837 0.0625 18.8231 0.0625 19.2403V20.5967C0.0625 21.0139 0.401937 21.3533 0.819062 21.3533H10.9729L9.42544 25.7982H8.05188C7.77575 25.7982 7.55188 26.0221 7.55188 26.2982C7.55188 26.5743 7.77575 26.7982 8.05188 26.7982H9.07731L7.71688 30.7059C7.66356 30.8588 7.68769 31.028 7.7815 31.16C7.87525 31.2919 8.02719 31.3703 8.18906 31.3703H10.2438C10.4566 31.3703 10.6461 31.2356 10.716 31.0346L12.1909 26.7982H19.3262L20.8011 31.0346C20.8711 31.2356 21.0605 31.3703 21.2733 31.3703H23.3281C23.49 31.3703 23.6419 31.2919 23.7357 31.16C23.8295 31.028 23.8536 30.8588 23.8004 30.7059L22.4399 26.7982H23.4653C23.7414 26.7982 23.9653 26.5743 23.9653 26.2982C23.9653 26.0221 23.7414 25.7982 23.4653 25.7982H22.0918L21.6299 24.4715C22.6841 25.18 23.9519 25.594 25.3148 25.594C28.9665 25.594 31.9375 22.623 31.9375 18.9713C31.9375 17.4678 31.4336 16.0801 30.5863 14.9673ZM11.0084 14.6209C10.7323 14.6209 10.5084 14.397 10.5084 14.1209C10.5084 13.8448 10.7323 13.6209 11.0084 13.6209H19.0776C19.3538 13.6209 19.5776 13.8448 19.5776 14.1209C19.5776 14.397 19.3538 14.6209 19.0776 14.6209H11.0084ZM18.3797 16.4036C18.3797 16.6797 18.1558 16.9036 17.8797 16.9036H11.0084C10.7323 16.9036 10.5084 16.6797 10.5084 16.4036C10.5084 16.1275 10.7323 15.9036 11.0084 15.9036H17.8797C18.1558 15.9036 18.3797 16.1274 18.3797 16.4036ZM11.0084 11.6979C10.7323 11.6979 10.5084 11.474 10.5084 11.1979C10.5084 10.9218 10.7323 10.6979 11.0084 10.6979H23.8581C24.1342 10.6979 24.3581 10.9218 24.3581 11.1979C24.3581 11.474 24.1342 11.6979 23.8581 11.6979H11.0084ZM11.0084 9.41521C10.7323 9.41521 10.5084 9.19133 10.5084 8.91521C10.5084 8.63908 10.7323 8.41521 11.0084 8.41521H26.5735C26.8496 8.41521 27.0735 8.63908 27.0735 8.91521C27.0735 9.19133 26.8496 9.41521 26.5735 9.41521H11.0084ZM10.5084 5.99221C10.5084 5.71608 10.7323 5.49221 11.0084 5.49221H23.8581C24.1342 5.49221 24.3581 5.71608 24.3581 5.99221C24.3581 6.26833 24.1342 6.49221 23.8581 6.49221H11.0084C10.7323 6.49221 10.5084 6.26833 10.5084 5.99221ZM26.5735 4.20952H11.0084C10.7323 4.20952 10.5084 3.98564 10.5084 3.70952C10.5084 3.43339 10.7323 3.20952 11.0084 3.20952H26.5735C26.8496 3.20952 27.0735 3.43339 27.0735 3.70952C27.0735 3.98571 26.8496 4.20952 26.5735 4.20952ZM8.66144 4.11339L6.50294 6.29214C6.40519 6.39077 6.2765 6.44027 6.14769 6.44027C6.02175 6.44027 5.89587 6.39302 5.79869 6.29833L4.59469 5.12458C4.39694 4.93183 4.39288 4.61527 4.58563 4.41758C4.77831 4.21989 5.09487 4.21577 5.29262 4.40852L6.1415 5.23602L7.95094 3.40958C8.14531 3.21333 8.46181 3.21196 8.65806 3.40627C8.85431 3.60064 8.85575 3.91721 8.66144 4.11339ZM8.66144 9.31908L6.50294 11.4978C6.40519 11.5965 6.2765 11.646 6.14769 11.646C6.02175 11.646 5.89587 11.5987 5.79869 11.504L4.59462 10.3303C4.39687 10.1376 4.39281 9.82102 4.58556 9.62333C4.77825 9.42564 5.09481 9.42152 5.29256 9.61427L6.14144 10.4418L7.95087 8.61533C8.14525 8.41908 8.46175 8.41771 8.658 8.61202C8.85431 8.80633 8.85575 9.12289 8.66144 9.31908ZM4.58563 14.8289C4.77831 14.6313 5.09487 14.6271 5.29262 14.8198L6.1415 15.6473L7.95094 13.8209C8.14531 13.6246 8.46181 13.6233 8.65806 13.8176C8.85425 14.0119 8.85569 14.3285 8.66138 14.5246L6.50287 16.7034C6.40512 16.802 6.27644 16.8515 6.14762 16.8515C6.02169 16.8515 5.89581 16.8043 5.79862 16.7096L4.59456 15.5359C4.39694 15.3431 4.39288 15.0266 4.58563 14.8289ZM1.0625 20.3533V19.4837H18.7116C18.7344 19.7795 18.7769 20.0696 18.8374 20.3533H1.0625ZM9.8885 30.3703H8.89256L10.1361 26.7983H11.1321L9.8885 30.3703ZM11.4803 25.7983H10.4843L12.0317 21.3533H13.0278L11.4803 25.7983ZM12.5391 25.7983L14.0866 21.3533H17.4305L18.978 25.7983H12.5391ZM18.4894 21.3533H19.1354C19.3642 21.945 19.6757 22.4957 20.0557 22.9915L21.0329 25.7983H20.0369L18.4894 21.3533ZM22.6246 30.3703H21.6286L20.385 26.7983H21.3809L22.6246 30.3703ZM25.3147 24.594C22.2143 24.594 19.6919 22.0717 19.6919 18.9713C19.6919 15.8708 22.2143 13.3485 25.3147 13.3485C28.4151 13.3485 30.9375 15.8708 30.9375 18.9713C30.9375 22.0717 28.4151 24.594 25.3147 24.594ZM25.3147 14.1976C22.6826 14.1976 20.5411 16.3391 20.5411 18.9712C20.5411 21.6033 22.6826 23.7448 25.3147 23.7448C27.9469 23.7448 30.0883 21.6033 30.0883 18.9712C30.0883 16.3391 27.9469 14.1976 25.3147 14.1976ZM25.8147 21.1922V21.5113C25.8147 21.7874 25.5908 22.0113 25.3147 22.0113C25.0386 22.0113 24.8147 21.7874 24.8147 21.5113V21.2133C24.4938 21.1368 24.205 20.9467 24.0074 20.6735C23.8456 20.4497 23.8958 20.1371 24.1195 19.9753C24.3433 19.8135 24.6559 19.8636 24.8177 20.0874C24.8918 20.1898 25.01 20.251 25.1341 20.251H25.4142C25.6291 20.251 25.8041 20.076 25.8041 19.8611C25.8041 19.6461 25.6291 19.4712 25.4142 19.4712H25.2153C24.4489 19.4712 23.8254 18.8477 23.8254 18.0813C23.8254 17.4541 24.243 16.9226 24.8147 16.7503V16.4312C24.8147 16.1551 25.0386 15.9312 25.3147 15.9312C25.5908 15.9312 25.8147 16.1551 25.8147 16.4312V16.7291C26.1356 16.8056 26.4244 16.9957 26.6221 17.2691C26.7838 17.4929 26.7336 17.8054 26.5098 17.9672C26.2859 18.129 25.9734 18.0788 25.8116 17.855C25.7376 17.7526 25.6194 17.6915 25.4954 17.6915H25.2153C25.0003 17.6915 24.8254 17.8663 24.8254 18.0814C24.8254 18.2963 25.0003 18.4713 25.2153 18.4713H25.4142C26.1806 18.4713 26.8041 19.0948 26.8041 19.8611C26.8041 20.4884 26.3865 21.0199 25.8147 21.1922Z" fill="white"/>
</g>
<defs>
<clipPath id="clip0_100_1070">
<rect width="32" height="32" fill="white"/>
</clipPath>
</defs>
</svg>
