<svg width="32" height="32" viewBox="0 0 32 32" fill="none" xmlns="http://www.w3.org/2000/svg">
<g clip-path="url(#clip0_100_1097)">
<path d="M31.8391 2.4V4.8H27.0391V2.4C27.0391 1.12 28.1591 0 29.4391 0C30.8791 0 31.8391 1.12 31.8391 2.4Z" fill="white"/>
<path d="M27.1992 8H31.9992V23.2C31.9992 24.48 30.8792 32 29.5992 32C28.3192 32 27.1992 24.48 27.1992 23.2V8Z" fill="white"/>
<path d="M17.6 0H1.6C0.64 0 0 0.64 0 1.6V30.4C0 31.36 0.8 32 1.6 32H22.4C23.36 32 24 31.36 24 30.4V6.4L17.6 0ZM4.8 4.8H14.4C15.36 4.8 16 5.44 16 6.4C16 7.36 15.36 8 14.4 8H4.8C3.84 8 3.2 7.36 3.2 6.4C3.2 5.44 3.84 4.8 4.8 4.8ZM20.32 21.92L13.92 28.32C13.28 28.96 12 28.96 11.52 28L9.44 24.8L6.08 28.16C5.44 28.8 4.48 28.8 3.84 28.16C3.2 27.52 3.2 26.56 3.84 25.92L8.64 21.12C9.28 20.48 10.56 20.48 11.04 21.44L13.12 24.64L18.08 19.68C18.72 19.04 19.68 19.04 20.32 19.68C20.96 20.32 20.96 21.28 20.32 21.92ZM19.2 14.4H4.8C3.84 14.4 3.2 13.76 3.2 12.8C3.2 11.84 3.84 11.2 4.8 11.2H19.2C20.16 11.2 20.8 11.84 20.8 12.8C20.8 13.76 20.16 14.4 19.2 14.4Z" fill="white"/>
</g>
<defs>
<clipPath id="clip0_100_1097">
<rect width="32" height="32" fill="white"/>
</clipPath>
</defs>
</svg>
