<svg width="32" height="32" viewBox="0 0 32 32" fill="none" xmlns="http://www.w3.org/2000/svg">
<path d="M11.3188 8.42783C10.5326 9.21314 10.0996 10.2573 10.0996 11.3678C10.0996 12.4783 10.5326 13.5223 11.3188 14.3077C12.9425 15.9296 15.5843 15.9296 17.208 14.3077C17.9942 13.5224 18.4272 12.4783 18.4272 11.3678C18.4272 10.2573 17.9942 9.21321 17.208 8.42783C15.5843 6.80596 12.9425 6.80596 11.3188 8.42783Z" fill="white"/>
<path d="M26.5668 28.0696H24.2519V26.2737H7.74914V28.0696H5.43427C4.91508 28.0696 4.49414 28.4894 4.49414 29.0071C4.49414 29.5249 4.91502 29.9446 5.43427 29.9446H26.5668C27.086 29.9446 27.5069 29.5249 27.5069 29.0071C27.5069 28.4894 27.086 28.0696 26.5668 28.0696Z" fill="white"/>
<path d="M31.0925 2.05542H0.9075C0.406313 2.05542 0 2.46061 0 2.96036V23.2515C0 23.7514 0.406313 24.1565 0.9075 24.1565H31.0925C31.5937 24.1565 32 23.7513 32 23.2515V2.96036C32 2.46061 31.5938 2.05542 31.0925 2.05542ZM15.9817 22.1944C15.4639 22.1944 15.0442 21.7747 15.0442 21.2569C15.0442 20.7392 15.4639 20.3194 15.9817 20.3194C16.4994 20.3194 16.9192 20.7392 16.9192 21.2569C16.9192 21.7747 16.4995 22.1944 15.9817 22.1944ZM23.5 20.5997C23.3169 20.7828 23.077 20.8744 22.8371 20.8744C22.5972 20.8744 22.3573 20.7829 22.1742 20.5997L17.8194 16.2449C16.7643 17.0135 15.5144 17.3982 14.2643 17.3982C12.7181 17.3982 11.1718 16.8102 9.99469 15.6344C8.85387 14.4948 8.22556 12.9796 8.22556 11.3679C8.22556 9.75623 8.85387 8.24104 9.99469 7.10148C12.349 4.74979 16.1797 4.74973 18.534 7.10148C19.6748 8.24104 20.3031 9.75623 20.3031 11.3679C20.3031 12.6627 19.8977 13.8951 19.1467 14.9205L23.5001 19.2739C23.8661 19.64 23.8661 20.2336 23.5 20.5997Z" fill="white"/>
</svg>
