<svg width="28" height="28" viewBox="0 0 28 28" fill="none" xmlns="http://www.w3.org/2000/svg">
<path d="M8 12H7.5V13H8C8.2755 13 8.5 12.776 8.5 12.5C8.5 12.224 8.2755 12 8 12Z" fill="white"/>
<path d="M11.5 12H11V13H11.5C11.7755 13 12 12.776 12 12.5C12 12.224 11.7755 12 11.5 12Z" fill="white"/>
<path d="M8 14H7.5V15H8C8.2755 15 8.5 14.776 8.5 14.5C8.5 14.224 8.2755 14 8 14Z" fill="white"/>
<path d="M15 12C14.7245 12 14.5 12.224 14.5 12.5V13.5H15.5V12.5C15.5 12.224 15.2755 12 15 12Z" fill="white"/>
<path d="M2.5 25H4.5V27H2.5V25Z" fill="white"/>
<path d="M14.2931 21.5001C14.4396 21.5001 14.5811 21.4711 14.7141 21.4211L12.2266 18.9336L12.9311 23.5141C14.2116 23.5986 15.4361 24.0596 16.4566 24.8366L18.8366 22.4566C18.0596 21.4361 17.5986 20.2121 17.5141 18.9316L12.9331 18.2266L15.4211 20.7146C15.4706 20.5811 15.5001 20.4401 15.5001 20.2936V20.0006H16.5001V20.2936C16.5001 20.8831 16.2706 21.4371 15.8541 21.8541C15.4376 22.2711 14.8831 22.5006 14.2931 22.5006H14.0001V21.5006L14.2931 21.5001Z" fill="white"/>
<path d="M16.7031 25.9993L19.9956 22.7068L21.7882 24.4994L18.4957 27.7919L16.7031 25.9993Z" fill="white"/>
<path d="M2.5 3H4.5V5H2.5V3Z" fill="white"/>
<path d="M26 6H25C24.724 6 24.5 5.7765 24.5 5.5V4.5H5.5V5.5C5.5 5.7765 5.276 6 5 6H4V24H5C5.276 24 5.5 24.2235 5.5 24.5V25.5H15.6665C14.7415 24.854 13.6395 24.5 12.5 24.5C12.253 24.5 12.0435 24.32 12.006 24.076L11.006 17.576C10.982 17.4185 11.034 17.259 11.1465 17.1465C11.2595 17.0335 11.42 16.9825 11.576 17.006L18.076 18.006C18.32 18.0435 18.5 18.2535 18.5 18.5C18.5 19.67 18.8705 20.8025 19.5505 21.7425L19.6465 21.6465C19.842 21.451 20.158 21.451 20.3535 21.6465L22.8535 24.1465C23.049 24.342 23.049 24.658 22.8535 24.8535L22.207 25.5H24.5V24.5C24.5 24.2235 24.724 24 25 24H26V6ZM9.5 14.5C9.5 15.327 8.827 16 8 16H7C6.724 16 6.5 15.7765 6.5 15.5V11.5C6.5 11.2235 6.724 11 7 11H8C8.827 11 9.5 11.673 9.5 12.5C9.5 12.884 9.355 13.2345 9.117 13.5C9.355 13.7655 9.5 14.116 9.5 14.5ZM13 15.914V16H12V15.914C12 15.202 11.7435 14.5305 11.2795 14H11V16H10V11.5C10 11.2235 10.224 11 10.5 11H11.5C12.327 11 13 11.673 13 12.5C13 13.015 12.739 13.47 12.342 13.74C12.77 14.378 13 15.128 13 15.914ZM16.5 16H15.5V14.5H14.5V16H13.5V12.5C13.5 11.673 14.173 11 15 11C15.827 11 16.5 11.673 16.5 12.5V16ZM20 15.5C20 15.732 19.8405 15.933 19.615 15.987C19.5765 15.996 19.538 16 19.5 16C19.3135 16 19.139 15.896 19.0525 15.7235L18 13.618V16H17V11.5C17 11.268 17.1595 11.067 17.385 11.013C17.6135 10.961 17.8435 11.0685 17.9475 11.276L19 13.3815V10.9995H20V15.5ZM23.5 14.5C23.5 15.327 22.827 16 22 16H21C20.724 16 20.5 15.7765 20.5 15.5V11.5C20.5 11.2235 20.724 11 21 11H22C22.827 11 23.5 11.673 23.5 12.5V14.5Z" fill="white"/>
<path d="M25.5 25H27.5V27H25.5V25Z" fill="white"/>
<path d="M22 12H21.5V15H22C22.2755 15 22.5 14.776 22.5 14.5V12.5C22.5 12.224 22.2755 12 22 12Z" fill="white"/>
<path d="M25.5 3H27.5V5H25.5V3Z" fill="white"/>
<path d="M3 0H4V2H3V0Z" fill="white"/>
<path d="M0 3.5H1.5V4.5H0V3.5Z" fill="white"/>
<path d="M26 0H27V2H26V0Z" fill="white"/>
<path d="M0 25.5H1.5V26.5H0V25.5Z" fill="white"/>
</svg>
