<svg width="31" height="32" viewBox="0 0 31 32" fill="none" xmlns="http://www.w3.org/2000/svg">
<path d="M28.6202 1.71315C21.0936 12.7398 27.7602 2.97315 20.2402 13.9998C21.0425 14.0368 21.8213 14.2826 22.4995 14.7129C23.1776 15.1431 23.7317 15.743 24.1069 16.4532L30.8269 3.01315C30.9616 2.72333 30.9835 2.39377 30.8886 2.08863C30.7936 1.78349 30.5885 1.52462 30.3131 1.3624C30.0378 1.20019 29.7119 1.14625 29.399 1.21109C29.0861 1.27592 28.8085 1.45489 28.6202 1.71315Z" fill="white"/>
<path d="M17.1994 16.8531C16.1994 18.3998 17.3328 22.6665 17.3328 22.6665C17.3328 22.6665 21.7928 21.9998 22.7994 20.4798C23.2804 19.7372 23.4466 18.834 23.2616 17.9688C23.0765 17.1036 22.5554 16.3474 21.8128 15.8665C21.0702 15.3855 20.1669 15.2193 19.3018 15.4044C18.4366 15.5894 17.6804 16.1105 17.1994 16.8531Z" fill="white"/>
<path d="M11.9993 27.3332C12.7357 27.3332 13.3327 26.7362 13.3327 25.9998C13.3327 25.2635 12.7357 24.6665 11.9993 24.6665C11.263 24.6665 10.666 25.2635 10.666 25.9998C10.666 26.7362 11.263 27.3332 11.9993 27.3332Z" fill="white"/>
<path d="M20.801 25.3332C19.6544 25.3332 18.3544 25.4732 17.601 23.9999L16.3477 24.1799C15.2677 20.0599 14.3877 15.7199 18.4344 14.3066L24.4944 5.39324C18.1544 -4.80009 -0.378973 2.52657 0.71436 17.1732C0.906629 19.574 1.66025 21.8959 2.91448 23.952C4.16872 26.008 5.88847 27.7406 7.93512 29.0101C9.98176 30.2796 12.298 31.0505 14.6973 31.2607C17.0965 31.4708 19.5115 31.1143 21.7477 30.2199C22.2887 29.9959 22.7357 29.5919 23.013 29.0762C23.2903 28.5605 23.381 27.9649 23.2696 27.39C23.1583 26.8152 22.8517 26.2965 22.4019 25.9217C21.952 25.5469 21.3865 25.339 20.801 25.3332ZM7.33436 7.99991C7.99363 7.99991 8.6381 8.1954 9.18626 8.56168C9.73442 8.92795 10.1617 9.44854 10.414 10.0576C10.6663 10.6667 10.7323 11.3369 10.6036 11.9835C10.475 12.6301 10.1576 13.2241 9.69138 13.6903C9.22521 14.1564 8.63126 14.4739 7.98466 14.6025C7.33806 14.7311 6.66784 14.6651 6.05875 14.4128C5.44966 14.1605 4.92907 13.7333 4.56279 13.1851C4.19652 12.637 4.00103 11.9925 4.00103 11.3332C4.00103 10.4492 4.35222 9.60134 4.97734 8.97622C5.60246 8.3511 6.45031 7.99991 7.33436 7.99991ZM6.00103 22.6666C5.47361 22.6666 4.95804 22.5102 4.51951 22.2172C4.08098 21.9241 3.73918 21.5077 3.53735 21.0204C3.33551 20.5331 3.28271 19.997 3.3856 19.4797C3.48849 18.9624 3.74247 18.4872 4.11541 18.1143C4.48835 17.7414 4.9635 17.4874 5.48079 17.3845C5.99807 17.2816 6.53425 17.3344 7.02152 17.5362C7.50879 17.7381 7.92526 18.0799 8.21828 18.5184C8.5113 18.9569 8.66769 19.4725 8.66769 19.9999C8.66769 20.7072 8.38674 21.3854 7.88665 21.8855C7.38655 22.3856 6.70827 22.6666 6.00103 22.6666ZM12.001 28.6666C11.4736 28.6666 10.958 28.5102 10.5195 28.2172C10.081 27.9241 9.73918 27.5077 9.53735 27.0204C9.33551 26.5331 9.28271 25.9969 9.3856 25.4797C9.48849 24.9624 9.74247 24.4872 10.1154 24.1143C10.4883 23.7413 10.9635 23.4874 11.4808 23.3845C11.9981 23.2816 12.5342 23.3344 13.0215 23.5362C13.5088 23.7381 13.9253 24.0799 14.2183 24.5184C14.5113 24.9569 14.6677 25.4725 14.6677 25.9999C14.6677 26.7072 14.3867 27.3854 13.8866 27.8855C13.3865 28.3856 12.7083 28.6666 12.001 28.6666ZM12.6677 5.99991C12.6677 5.34064 12.8632 4.69617 13.2295 4.14801C13.5957 3.59984 14.1163 3.1726 14.7254 2.92031C15.3345 2.66802 16.0047 2.602 16.6513 2.73062C17.2979 2.85924 17.8919 3.17671 18.358 3.64288C18.8242 4.10906 19.1417 4.703 19.2703 5.34961C19.3989 5.99621 19.3329 6.66643 19.0806 7.27552C18.8283 7.8846 18.4011 8.4052 17.8529 8.77147C17.3048 9.13774 16.6603 9.33324 16.001 9.33324C15.117 9.33324 14.2691 8.98205 13.644 8.35693C13.0189 7.73181 12.6677 6.88396 12.6677 5.99991Z" fill="white"/>
<path d="M7.33398 13.3333C8.43855 13.3333 9.33398 12.4378 9.33398 11.3333C9.33398 10.2287 8.43855 9.33325 7.33398 9.33325C6.22941 9.33325 5.33398 10.2287 5.33398 11.3333C5.33398 12.4378 6.22941 13.3333 7.33398 13.3333Z" fill="white"/>
<path d="M16 8C17.1046 8 18 7.10457 18 6C18 4.89543 17.1046 4 16 4C14.8954 4 14 4.89543 14 6C14 7.10457 14.8954 8 16 8Z" fill="white"/>
<path d="M5.99935 21.3332C6.73573 21.3332 7.33268 20.7362 7.33268 19.9998C7.33268 19.2635 6.73573 18.6665 5.99935 18.6665C5.26297 18.6665 4.66602 19.2635 4.66602 19.9998C4.66602 20.7362 5.26297 21.3332 5.99935 21.3332Z" fill="white"/>
</svg>
