<svg width="33" height="33" viewBox="0 0 33 33" fill="none" xmlns="http://www.w3.org/2000/svg">
<g clip-path="url(#clip0_123_3709)">
<path d="M17.3215 11.3684C17.002 11.3049 16.6719 11.271 16.334 11.271C13.5425 11.271 11.2715 13.542 11.2715 16.3335C11.2715 19.125 13.5425 21.396 16.334 21.396C19.1255 21.396 21.3965 19.125 21.3965 16.3335C21.3965 15.9956 21.3625 15.6655 21.2991 15.3459L18.3228 18.3223C17.7915 18.8535 17.0852 19.146 16.334 19.146C15.5828 19.146 14.8765 18.8535 14.3452 18.3223C13.814 17.791 13.5215 17.0847 13.5215 16.3335C13.5215 15.5823 13.814 14.876 14.3452 14.3447L17.3215 11.3684Z" fill="white"/>
<path d="M30.9021 9.72021L28.885 11.7373C28.6831 11.9392 28.4556 12.1067 28.21 12.2366C28.6543 13.5215 28.8965 14.8997 28.8965 16.3335C28.8965 23.2605 23.261 28.896 16.334 28.896C9.40698 28.896 3.77148 23.2605 3.77148 16.3335C3.77148 9.40649 9.40698 3.771 16.334 3.771C17.7683 3.771 19.1472 4.01343 20.4324 4.45801C20.5625 4.21216 20.7288 3.98364 20.9304 3.78223L22.9473 1.76538C20.9304 0.846191 18.6912 0.333496 16.334 0.333496C7.51147 0.333496 0.333984 7.51099 0.333984 16.3335C0.333984 25.156 7.51147 32.3335 16.334 32.3335C25.1565 32.3335 32.334 25.156 32.334 16.3335C32.334 13.9763 31.8213 11.7371 30.9021 9.72021Z" fill="white"/>
<path d="M20.3159 8.37402L20.145 6.34863C18.9607 5.89478 17.676 5.646 16.334 5.646C10.4409 5.646 5.64648 10.4404 5.64648 16.3335C5.64648 22.2266 10.4409 27.021 16.334 27.021C22.2271 27.021 27.0215 22.2266 27.0215 16.3335C27.0215 14.9915 26.7727 13.7068 26.3188 12.5225L24.2935 12.3516L22.8069 13.8379C23.1067 14.6128 23.2715 15.4541 23.2715 16.3335C23.2715 20.1589 20.1594 23.271 16.334 23.271C12.5085 23.271 9.39648 20.1589 9.39648 16.3335C9.39648 12.5081 12.5085 9.396 16.334 9.396C17.2134 9.396 18.0547 9.56079 18.8296 9.8606L20.3159 8.37402Z" fill="white"/>
<path d="M21.9846 5.84983L22.2576 9.0842L15.6711 15.6706C15.3049 16.0366 15.3049 16.6303 15.6711 16.9963C15.854 17.1794 16.094 17.271 16.334 17.271C16.574 17.271 16.814 17.1794 16.9968 16.9963L23.5833 10.4099L26.8176 10.6826C26.844 10.6848 26.8701 10.686 26.8965 10.686C27.144 10.686 27.3828 10.5879 27.5593 10.4114L31.5366 6.43381C31.7947 6.176 31.8796 5.79172 31.7544 5.44895C31.6289 5.10618 31.3162 4.86741 30.9526 4.83689L28.0732 4.59397L27.8306 1.71482C27.7998 1.35105 27.561 1.03831 27.2185 0.913061C26.8757 0.787573 26.4915 0.872778 26.2334 1.13059L22.2561 5.10813C22.0608 5.30344 21.9614 5.57468 21.9846 5.84983Z" fill="white"/>
</g>
<defs>
<clipPath id="clip0_123_3709">
<rect width="32" height="32" fill="white" transform="translate(0.333984 0.333496)"/>
</clipPath>
</defs>
</svg>
