<svg width="40" height="40" viewBox="0 0 40 40" fill="none" xmlns="http://www.w3.org/2000/svg">
<path d="M20.9309 24.2187C20.7121 24.05 20.3996 24.0562 20.1934 24.2375L15.6309 28.2062L19.4184 30.0937C19.7246 30.25 20.0996 30.1 20.2246 29.7812L21.8809 25.475C21.9746 25.2312 21.8996 24.9625 21.6934 24.8062L20.9371 24.225L20.9309 24.2187Z" fill="white"/>
<path d="M10.3176 24.2186L9.56139 24.7999C9.35514 24.9561 9.28014 25.2311 9.37389 25.4686L11.0301 29.7749C11.1551 30.0936 11.5301 30.2436 11.8364 30.0874L15.6239 28.1999L11.0614 24.2311C10.8489 24.0499 10.5426 24.0374 10.3239 24.2124L10.3176 24.2186Z" fill="white"/>
<path d="M23.932 10.1188H29.457V11.7688C29.457 12.1313 29.8945 12.3187 30.157 12.0687L32.1945 10.1188H34.057C34.7945 10.1188 35.4008 9.5125 35.4008 8.775V3.84375C35.4008 3.10625 34.7945 2.5 34.057 2.5H23.9258C23.1883 2.5 22.582 3.10625 22.582 3.84375V8.76875C22.582 9.50625 23.1883 10.1125 23.9258 10.1125L23.932 10.1188ZM25.0758 4.375H32.707C33.0508 4.375 33.332 4.65625 33.332 5C33.332 5.34375 33.0508 5.625 32.707 5.625H25.0758C24.732 5.625 24.4508 5.34375 24.4508 5C24.4508 4.65625 24.732 4.375 25.0758 4.375ZM25.0758 6.875H28.2008C28.5445 6.875 28.8258 7.15625 28.8258 7.5C28.8258 7.84375 28.5445 8.125 28.2008 8.125H25.0758C24.732 8.125 24.4508 7.84375 24.4508 7.5C24.4508 7.15625 24.732 6.875 25.0758 6.875Z" fill="white"/>
<path d="M22.1941 28.1313L21.3879 30.2313C21.1191 30.9375 20.4316 31.4063 19.6754 31.4063C19.3941 31.4063 19.1129 31.3375 18.8566 31.2125L15.6254 29.6L12.3941 31.2125C12.1379 31.3375 11.8566 31.4063 11.5754 31.4063C10.8191 31.4063 10.1316 30.9313 9.86289 30.2313L8.20664 25.925C8.14414 25.7625 8.11289 25.5938 8.09414 25.425L7.99414 25.4375C7.10039 25.5625 6.24414 25.8688 5.46914 26.3313C3.62539 27.4438 2.49414 29.4438 2.49414 31.6V36.4313C2.49414 37.0188 2.96914 37.5 3.56289 37.5H6.55664V33.75C6.55664 33.4063 6.83789 33.125 7.18164 33.125C7.52539 33.125 7.80664 33.4063 7.80664 33.75V37.5H23.4316V33.75C23.4316 33.4063 23.7129 33.125 24.0566 33.125C24.4004 33.125 24.6816 33.4063 24.6816 33.75V37.5H27.6754C28.2629 37.5 28.7441 37.025 28.7441 36.4313V35.2875C25.2816 34.5688 22.6066 31.6875 22.1879 28.125L22.1941 28.1313Z" fill="white"/>
<path d="M30.443 20.0938C26.543 20.0938 23.3867 23.2562 23.3867 27.15C23.3867 31.0437 26.5492 34.2062 30.443 34.2062C34.3367 34.2062 37.4992 31.0437 37.4992 27.15C37.4992 23.2562 34.3367 20.0938 30.443 20.0938ZM29.868 26.4625C29.868 27.0125 29.4992 27.5 28.968 27.6437L27.8492 27.95C27.7367 27.9812 27.6617 28.0812 27.6617 28.2V28.8H29.243C29.5867 28.8 29.868 29.0813 29.868 29.425C29.868 29.7688 29.5867 30.05 29.243 30.05H27.0367C26.693 30.05 26.4117 29.7688 26.4117 29.425V28.2C26.4117 27.525 26.868 26.925 27.518 26.7437L28.6367 26.4375L28.618 25.4875L27.0367 25.5125C26.693 25.5125 26.4117 25.2312 26.4117 24.8875C26.4117 24.5437 26.693 24.2625 27.0367 24.2625H28.643C29.318 24.2625 29.868 24.8125 29.868 25.4875V26.4625ZM34.468 29.425C34.468 29.7688 34.1867 30.05 33.843 30.05C33.4992 30.05 33.218 29.7688 33.218 29.425V27.7812H31.3555C31.0117 27.7812 30.7305 27.5 30.7305 27.1562V24.8875C30.7305 24.5437 31.0117 24.2625 31.3555 24.2625C31.6992 24.2625 31.9805 24.5437 31.9805 24.8875V26.5312H33.218V24.8875C33.218 24.5437 33.4992 24.2625 33.843 24.2625C34.1867 24.2625 34.468 24.5437 34.468 24.8875V29.4312V29.425Z" fill="white"/>
<path d="M5.875 17.0375H7.56875C7.925 19.9375 9.7375 22.4 12.225 23.5937L15.625 26.5499L18.9625 23.6562C19.3875 23.4625 19.8 23.2374 20.1875 22.9749H19.375H18.9563C18.9563 22.9749 18.9563 22.9749 18.95 22.9749C18.5875 22.9749 18.2437 22.875 17.9437 22.7125C17.1625 22.9937 16.3375 23.1375 15.4938 23.125C11.775 23.0562 8.75 19.8625 8.75 16V12.5H9.05C10.2125 12.5 11.3625 12.3375 12.4688 12.025C13.575 11.7062 14.6375 11.2375 15.625 10.625C17.6 11.85 19.875 12.5 22.2 12.5H22.5V16.25C22.5 16.9375 22.4 17.6125 22.2062 18.25C22.35 18.3437 22.4813 18.4437 22.6 18.5625H23.4188C23.5625 18.0687 23.6625 17.5562 23.7125 17.0312H24.2625V19.3437C24.2625 19.6 24.0562 19.8125 23.7938 19.8125H21.925C21.8125 19.4312 21.4625 19.1562 21.0437 19.1562H18.95C18.4375 19.1562 18.025 19.5687 18.025 20.0812V20.7999C18.025 21.3125 18.4375 21.7249 18.95 21.7249H21.0437C21.4625 21.7249 21.8063 21.45 21.925 21.0687H23.7938C24.7375 21.0687 25.5125 20.2999 25.5125 19.35V17.025C26.1437 16.95 26.6437 16.3375 26.6437 15.5937V13.9562C26.6437 13.1562 26.075 12.5062 25.3812 12.5062H24.3812V11.375H23.9375C22.5063 11.375 21.3438 10.2125 21.3438 8.7812V4.63745C19.8125 3.31245 17.8188 2.51245 15.6375 2.51245C10.8063 2.51245 6.8875 6.4312 6.8875 11.2625V12.5125H5.8875C5.19375 12.5125 4.625 13.1625 4.625 13.9625V15.6C4.625 16.4 5.19375 17.05 5.8875 17.05L5.875 17.0375Z" fill="white"/>
</svg>
