<svg width="40" height="40" viewBox="0 0 40 40" fill="none" xmlns="http://www.w3.org/2000/svg">
<path fill-rule="evenodd" clip-rule="evenodd" d="M32.9492 7.55622C32.9495 7.95516 33.274 8.27918 33.6722 8.27918C34.0712 8.27918 34.3951 7.95516 34.3951 7.55622C34.3953 7.15796 34.0711 6.83328 33.6723 6.83325C33.2741 6.83325 32.9492 7.15799 32.9492 7.55622Z" fill="white"/>
<path fill-rule="evenodd" clip-rule="evenodd" d="M28.041 7.55646C28.0413 7.95541 28.365 8.27943 28.764 8.27943C29.1624 8.27943 29.4869 7.95541 29.4869 7.55646C29.4871 7.15821 29.1622 6.83352 28.7642 6.8335C28.365 6.8335 28.041 7.15823 28.041 7.55646Z" fill="white"/>
<path fill-rule="evenodd" clip-rule="evenodd" d="M23.1328 7.55622C23.1329 7.95516 23.4576 8.27918 23.8558 8.27918C24.2547 8.27918 24.5788 7.95516 24.5788 7.55622C24.5788 7.15796 24.2547 6.83328 23.8559 6.83325C23.4576 6.83325 23.1328 7.15799 23.1328 7.55622Z" fill="white"/>
<path fill-rule="evenodd" clip-rule="evenodd" d="M2.87109 6.52933L2.87112 9.91146H37.1299V6.52933C37.1299 5.79709 36.5339 5.2019 35.8023 5.2019H4.19854C3.46727 5.2019 2.87109 5.79709 2.87109 6.52933ZM22.311 7.55632C22.3111 6.70488 23.004 6.01119 23.8561 6.01119C24.7086 6.01119 25.4013 6.70488 25.4013 7.55632C25.4013 8.40846 24.7082 9.10142 23.8562 9.10142C23.0042 9.10142 22.311 8.40846 22.311 7.55632ZM27.2197 7.55632C27.22 6.70488 27.9126 6.01119 28.7648 6.01119C29.6171 6.01119 30.3099 6.70488 30.3099 7.55632C30.3101 8.40846 29.617 9.10142 28.7651 9.10142C27.9127 9.10142 27.2197 8.40846 27.2197 7.55632ZM32.1277 7.55632C32.1279 6.70488 32.8214 6.01119 33.6728 6.01119C34.525 6.01119 35.2179 6.70488 35.2179 7.55632C35.218 8.40846 34.5249 9.10142 33.6729 9.10142C32.8216 9.10142 32.1277 8.40846 32.1277 7.55632Z" fill="white"/>
<path fill-rule="evenodd" clip-rule="evenodd" d="M11.3145 14.0903L11.3145 17.1923L14.3106 16.3893C13.8232 15.1531 12.6814 14.2438 11.3145 14.0903Z" fill="white"/>
<path fill-rule="evenodd" clip-rule="evenodd" d="M7.24414 17.7276C7.24444 19.7458 8.88634 21.388 10.9046 21.388C12.9231 21.388 14.5651 19.7458 14.5651 17.7276C14.5651 17.5427 14.5512 17.3611 14.5246 17.1835L11.0109 18.1251C10.9763 18.1343 10.9403 18.1386 10.9046 18.1386C10.8157 18.1386 10.7269 18.1094 10.6548 18.0537C10.5536 17.9759 10.4935 17.8553 10.4935 17.7276L10.4936 14.0903C8.66818 14.2953 7.24414 15.8483 7.24414 17.7276Z" fill="white"/>
<path fill-rule="evenodd" clip-rule="evenodd" d="M23.4121 16.2083V20.7173H27.9795V16.2083H23.4121Z" fill="white"/>
<path fill-rule="evenodd" clip-rule="evenodd" d="M18.0312 26.0984V31.4638H19.7819V26.0984H18.0312Z" fill="white"/>
<path fill-rule="evenodd" clip-rule="evenodd" d="M12.6387 24.0796V31.464H14.3887V24.0796H12.6387Z" fill="white"/>
<path fill-rule="evenodd" clip-rule="evenodd" d="M7.24414 26.0984V31.4638H8.99481V26.0984H7.24414Z" fill="white"/>
<path fill-rule="evenodd" clip-rule="evenodd" d="M2.87109 10.7336L2.87121 33.4707C2.87121 34.2023 3.46702 34.7982 4.19852 34.7982H35.8025C36.5341 34.7982 37.1298 34.2023 37.1298 33.4707L37.1299 10.7336H2.87109ZM11.8163 31.875L11.8164 23.6684C11.8164 23.4415 12.0005 23.2573 12.2274 23.2573H14.7996C15.0266 23.2573 15.2106 23.4415 15.2106 23.6684L15.2107 31.875C15.2107 32.1019 15.0265 32.2861 14.7996 32.2861H12.2274C12.0007 32.2861 11.8163 32.1019 11.8163 31.875ZM17.2103 31.875L17.2105 25.6874C17.2105 25.4597 17.3945 25.2763 17.6214 25.2763L20.1944 25.2763C20.4214 25.2763 20.6053 25.4597 20.6053 25.6874L20.6055 31.875C20.6055 32.102 20.4212 32.2861 20.1944 32.2861H17.6216C17.3945 32.2861 17.2103 32.1019 17.2103 31.875ZM22.8791 30.484H33.1684C33.3951 30.484 33.5793 30.6681 33.5793 30.8951C33.5795 31.122 33.3951 31.3062 33.1684 31.3061H22.8792C22.6521 31.3061 22.468 31.122 22.468 30.8951C22.4681 30.6681 22.6521 30.484 22.8791 30.484ZM22.8791 27.361L33.1684 27.3609C33.3951 27.3609 33.5793 27.5451 33.5793 27.772C33.5795 27.999 33.3951 28.1831 33.1684 28.1831H22.8792C22.6521 28.1831 22.468 27.999 22.468 27.772C22.4681 27.5451 22.6521 27.361 22.8791 27.361ZM22.468 24.6482C22.4682 24.4213 22.6521 24.2372 22.8791 24.2372H33.1684C33.3951 24.2372 33.5793 24.4213 33.5793 24.6482C33.5795 24.8752 33.3951 25.0593 33.1684 25.0593H22.8792C22.6521 25.0593 22.468 24.8752 22.468 24.6482ZM6.83272 25.2763L9.4058 25.2763C9.63251 25.2763 9.81664 25.4597 9.81664 25.6874L9.81687 31.875C9.81687 32.1019 9.63249 32.2861 9.40579 32.2861H6.83302C6.60595 32.2861 6.42164 32.1019 6.42164 31.875L6.42194 25.6874C6.42194 25.4597 6.60579 25.2763 6.83272 25.2763ZM28.3909 21.5395H23.0013C22.7742 21.5395 22.5901 21.3553 22.5901 21.1284L22.5902 15.7972C22.5902 15.5702 22.7742 15.3861 23.0012 15.3861L28.3909 15.3861C28.618 15.3861 28.8019 15.5702 28.8019 15.7972L28.802 21.1284C28.802 21.3553 28.6178 21.5395 28.3909 21.5395ZM33.1684 20.8629H29.9832C29.7562 20.8629 29.572 20.6795 29.572 20.4518C29.5721 20.2249 29.7562 20.0407 29.9831 20.0407H33.1684C33.3952 20.0407 33.5793 20.2249 33.5793 20.4518C33.5795 20.6795 33.3952 20.8629 33.1684 20.8629ZM33.1684 17.7712H29.9832C29.7562 17.7712 29.572 17.5871 29.572 17.3602C29.5721 17.1332 29.7562 16.9491 29.9831 16.9491L33.1684 16.9491C33.3952 16.9491 33.5793 17.1332 33.5793 17.3602C33.5795 17.5871 33.3952 17.7712 33.1684 17.7712ZM10.9043 22.2103C8.43302 22.2103 6.42166 20.1999 6.42166 17.7277C6.42196 15.2562 8.43282 13.2451 10.9043 13.2451C13.3766 13.2451 15.3869 15.2562 15.3869 17.7277C15.387 20.1999 13.3764 22.2103 10.9043 22.2103ZM33.1684 14.0672H22.453C22.2253 14.0672 22.042 13.8838 22.042 13.6561C22.042 13.4292 22.2253 13.2451 22.453 13.2451H33.1684C33.3952 13.2451 33.5793 13.4292 33.5793 13.6561C33.5795 13.8838 33.3952 14.0672 33.1684 14.0672Z" fill="white"/>
</svg>
