<svg width="34" height="34" viewBox="0 0 34 34" fill="none" xmlns="http://www.w3.org/2000/svg">
<path d="M9.42769 6.43563C9.55313 6.76806 9.86902 6.97286 10.2044 6.97286C10.3018 6.97286 10.4009 6.95559 10.4974 6.91913C10.9263 6.75723 11.1428 6.27838 10.9809 5.84946L9.00421 0.611602C9.00136 0.604031 8.99837 0.596461 8.99532 0.588957C8.84816 0.231094 8.50318 0 8.1163 0C8.11596 0 8.11563 0 8.1153 0C7.72802 0.000398437 7.3831 0.232289 7.23655 0.59075C7.23396 0.596926 7.2315 0.603234 7.22911 0.609477L5.23427 5.84714C5.07111 6.27559 5.28613 6.75511 5.71451 6.91834C6.14297 7.08143 6.62255 6.86647 6.78571 6.43809L7.0789 5.66824H9.13802L9.42769 6.43563ZM7.71122 4.00802L8.11324 2.95249L8.51155 4.00802H7.71122Z" fill="white"/>
<path d="M3.06857 1.6604C3.52697 1.6604 3.89864 1.28872 3.89864 0.830322C3.89864 0.37192 3.52697 0.000244141 3.06857 0.000244141H0.830078C0.371676 0.000244141 0 0.371854 0 0.830322V6.14282C0 6.60122 0.371676 6.9729 0.830078 6.9729H3.06857C3.52697 6.9729 3.89864 6.60122 3.89864 6.14282C3.89864 5.68442 3.52697 5.31274 3.06857 5.31274H1.66016V4.31665H2.90348C3.36195 4.31665 3.73356 3.94504 3.73356 3.48657C3.73356 3.0281 3.36195 2.65649 2.90348 2.65649H1.66016V1.6604H3.06857Z" fill="white"/>
<path d="M20.3956 3.67504L20.3896 6.14064C20.3884 6.5991 20.7592 6.97164 21.2176 6.97277H21.2196C21.6771 6.97277 22.0485 6.60249 22.0497 6.14475L22.0558 3.67637L23.605 1.29657C23.855 0.912339 23.7463 0.398156 23.3621 0.14807C22.9779 -0.10195 22.4637 0.00662456 22.2136 0.390918L21.2252 1.9091L20.2244 0.376375C19.9738 -0.00745355 19.4594 -0.115563 19.0756 0.135187C18.6917 0.385804 18.5837 0.900187 18.8344 1.28402L20.3956 3.67504Z" fill="white"/>
<path d="M17.3888 5.13972C17.5327 4.33395 17.1753 3.28439 15.741 2.75534C15.1195 2.5261 14.5389 2.27701 14.3308 2.1863C14.2734 2.13059 14.2684 2.06059 14.2759 2.0082C14.2946 1.87771 14.4055 1.77272 14.58 1.72013C15.2017 1.53273 15.6732 1.84019 15.7679 1.90905C16.0132 2.213 16.4473 2.30975 16.8045 2.11903C17.2089 1.90301 17.3615 1.40005 17.1454 0.995703C16.8592 0.459938 15.5611 -0.309312 14.1013 0.130496C13.3064 0.369891 12.7436 0.999024 12.6327 1.77226C12.528 2.5018 12.8444 3.20378 13.4585 3.60414C13.4952 3.62805 13.5337 3.64903 13.5737 3.66683C13.6045 3.68064 14.3394 4.00769 15.1666 4.31283C15.4766 4.42718 15.7939 4.62779 15.7546 4.84786C15.7212 5.0352 15.4562 5.31244 14.9936 5.31244C14.5133 5.31244 14.0527 5.12066 13.7616 4.79939C13.4537 4.45965 12.9287 4.43382 12.5891 4.74168C12.2494 5.04954 12.2236 5.57448 12.5314 5.91415C13.141 6.58678 14.0384 6.97253 14.9936 6.97253C16.1919 6.97266 17.1992 6.20175 17.3888 5.13972Z" fill="white"/>
<path d="M11.0898 14.0781H8.43359C7.88348 14.0781 7.4375 14.5241 7.4375 15.0742V32.3398C7.4375 32.89 7.88348 33.3359 8.43359 33.3359H11.0898C11.64 33.3359 12.0859 32.89 12.0859 32.3398V15.0742C12.0859 14.5241 11.64 14.0781 11.0898 14.0781Z" fill="white"/>
<path d="M31.7588 20.5526H31.0947C32.3325 20.5526 33.3359 19.5492 33.3359 18.3114C33.3359 17.0736 32.3325 16.0702 31.0947 16.0702H26.417L27.9094 10.5005C28.2297 9.30495 27.5201 8.07597 26.3246 7.75563C25.129 7.43528 23.9001 8.14483 23.5797 9.34041L23.0293 11.3944C22.2904 14.1524 19.7911 16.0702 16.9357 16.0702H14.0781V31.3437H15.9043L16.4023 32.0077C17.3429 33.2618 18.8191 33.9999 20.3867 33.9999H29.1025C30.3404 33.9999 31.3438 32.9965 31.3438 31.7587C31.3438 30.5209 30.3404 29.5175 29.1025 29.5175H30.4307C31.6685 29.5175 32.6719 28.5141 32.6719 27.2763C32.6719 26.0385 31.6685 25.0351 30.4307 25.0351H31.7588C32.9966 25.0351 34 24.0317 34 22.7939C34 21.556 32.9966 20.5526 31.7588 20.5526Z" fill="white"/>
</svg>
