<svg width="40" height="38" viewBox="0 0 40 38" fill="none" xmlns="http://www.w3.org/2000/svg">
<path d="M18.418 35H8.66797C8.0013 35 7.41797 35.5833 7.41797 36.25C7.41797 36.9167 8.0013 37.5 8.66797 37.5H18.418C19.0846 37.5 19.668 36.9167 19.668 36.25C19.668 35.5833 19.168 35 18.418 35Z" fill="white"/>
<path d="M13.0011 0.500005C6.16775 0.750005 0.501081 6.58334 0.417747 13.4167C0.334414 16.9167 1.66775 20.25 4.08441 22.75C6.25108 25 7.41775 28 7.41775 31.3333C7.41775 31.6667 7.58441 32 7.75108 32.25C7.91775 32.5 8.33441 32.5833 8.66775 32.5833H12.3344V17.4167L8.33441 13.1667C7.83441 12.6667 7.83441 11.8333 8.33441 11.25C8.83441 10.6667 9.58442 10.75 10.0844 11.25L13.5844 14.9167L17.0844 11.1667C17.5844 10.6667 18.3344 10.6667 18.8344 11.1667C19.3344 11.6667 19.3344 12.5 18.8344 13.0833L14.7511 17.4167V32.5833H18.4177C19.0844 32.5833 19.6677 32 19.6677 31.3333C19.6677 28.0833 20.9177 25 23.1677 22.5C25.4177 20.0833 26.6677 16.9167 26.6677 13.5833C26.6677 10 25.2511 6.58334 22.6677 4.08334C20.0844 1.66667 16.6677 0.416672 13.0011 0.500005Z" fill="white"/>
<path d="M29 8.6665H39.5833V28.4998H29V8.6665Z" fill="white"/>
<path d="M33 36.9167C33.25 37.25 33.5833 37.5 34.0833 37.5C34.5 37.5 34.9167 37.25 35.1667 36.9167L39 31H29.5L33 36.9167Z" fill="white"/>
<path d="M34.2513 0.5C31.3346 0.5 28.918 2.91667 28.918 5.83333V6.25H39.5013V5.83333C39.5846 2.91667 37.168 0.5 34.2513 0.5Z" fill="white"/>
</svg>
