<svg width="31" height="31" viewBox="0 0 31 31" fill="none" xmlns="http://www.w3.org/2000/svg">
<g clip-path="url(#clip0_123_1558)">
<path d="M6.98681 29.4179C7.33749 29.0673 7.61568 28.651 7.80548 28.1929C7.99529 27.7347 8.09299 27.2436 8.09302 26.7477C8.09305 26.2518 7.9954 25.7608 7.80565 25.3026C7.61589 24.8444 7.33775 24.4281 6.98711 24.0774C6.63646 23.7267 6.22018 23.4485 5.76202 23.2587C5.30387 23.0689 4.81282 22.9712 4.3169 22.9712C3.82099 22.9712 3.32992 23.0688 2.87175 23.2586C2.41357 23.4483 1.99726 23.7265 1.64657 24.0771C0.596083 25.127 0.180731 26.7551 0.0505553 28.2294C-0.0240145 29.0635 -0.0191488 29.9028 0.0650865 30.736C0.0874889 30.9449 0.288504 30.9922 0.323016 30.9982H0.333309C0.417469 30.9982 1.62417 31.0255 1.99593 29.8478C2.0627 29.6282 2.16078 29.4194 2.28716 29.2278C2.33955 29.1523 2.41591 29.0966 2.50387 29.0699C2.59184 29.0432 2.68625 29.0469 2.77181 29.0806C2.85737 29.1142 2.92906 29.1758 2.97528 29.2552C3.02149 29.3347 3.03952 29.4274 3.02643 29.5184C2.96604 29.9657 3.05888 30.4203 3.28981 30.8081C3.31505 30.8513 3.35266 30.8859 3.39777 30.9075C3.44289 30.9291 3.49344 30.9366 3.5429 30.9292C4.80712 30.7354 6.10161 30.3031 6.98681 29.4179Z" fill="white"/>
<path d="M30.971 2.8323C30.8796 1.25263 29.748 0.121012 28.1683 0.0295857C22.8027 -0.290102 16.823 1.98525 12.1597 6.64857L10.9161 7.8922C10.4676 8.34025 10.0418 8.8 9.63855 9.27146H5.71754C4.88502 9.30355 4.14877 9.78369 3.73221 10.4885L1.42719 15.0991C1.36563 15.2646 1.32258 15.4364 1.29883 15.6113C1.30246 15.908 1.42211 16.1914 1.63216 16.4008C1.8422 16.6103 2.12594 16.7292 2.42258 16.732H5.33367C4.95586 18.0035 5.20773 19.255 6.01604 20.0621L10.9379 24.984C11.7456 25.7923 12.9965 26.0442 14.268 25.6663V28.5805C14.2716 28.8766 14.3908 29.1595 14.6002 29.3689C14.8096 29.5783 15.0926 29.6976 15.3887 29.7012C15.5636 29.6774 15.7354 29.6344 15.9009 29.5728L20.5116 27.2678C21.2163 26.8512 21.6965 26.1174 21.7286 25.2825V21.3621C22.1988 20.9584 22.6586 20.5326 23.1078 20.0845L24.3514 18.8409C29.0154 14.1776 31.2907 8.19796 30.971 2.8323ZM24.438 12.1753C23.883 12.7304 23.1758 13.1084 22.4059 13.2615C21.636 13.4147 20.838 13.3361 20.1128 13.0357C19.3876 12.7353 18.7677 12.2266 18.3316 11.5739C17.8955 10.9213 17.6627 10.1539 17.6627 9.36894C17.6627 8.58397 17.8955 7.81663 18.3316 7.16395C18.7677 6.51128 19.3876 6.00258 20.1128 5.70219C20.838 5.4018 21.636 5.32321 22.4059 5.47636C23.1758 5.62952 23.883 6.00753 24.438 6.56259C25.1823 7.30689 25.6004 8.31636 25.6004 9.36894C25.6004 10.4215 25.1823 11.431 24.438 12.1753Z" fill="white"/>
<path d="M4.79098 6.18913C4.57465 5.97272 4.45312 5.67925 4.45312 5.37326C4.45312 5.06727 4.57465 4.7738 4.79098 4.55739L7.77958 1.5688C7.99636 1.35201 8.29038 1.23022 8.59696 1.23022C8.90354 1.23022 9.19756 1.35201 9.41434 1.5688C9.63112 1.78558 9.75291 2.0796 9.75291 2.38618C9.75291 2.69276 9.63112 2.98678 9.41434 3.20356L6.42575 6.19215C6.31834 6.29953 6.19079 6.38464 6.05042 6.44262C5.91005 6.5006 5.75961 6.5303 5.60774 6.53001C5.45586 6.52973 5.30554 6.49948 5.16538 6.44098C5.02523 6.38248 4.89799 6.2969 4.79098 6.18913Z" fill="white"/>
<path d="M0.457742 5.50409C0.242151 5.28778 0.121094 4.99483 0.121094 4.68943C0.121094 4.38403 0.242151 4.09109 0.457742 3.87478L1.99018 2.33991C2.20795 2.13031 2.49925 2.0145 2.80149 2.01739C3.10373 2.02027 3.39277 2.14162 3.6065 2.35534C3.82022 2.56906 3.94156 2.85811 3.94445 3.16034C3.94733 3.46258 3.83153 3.75389 3.62192 3.97165L2.08948 5.50409C1.98257 5.61164 1.85545 5.69699 1.71543 5.75524C1.57541 5.81348 1.42526 5.84346 1.27361 5.84346C1.12196 5.84346 0.971811 5.81348 0.831793 5.75524C0.691775 5.69699 0.564654 5.61164 0.457742 5.50409Z" fill="white"/>
<path d="M24.7144 26.1111C24.6068 26.0042 24.5215 25.8771 24.4632 25.7371C24.405 25.597 24.375 25.4469 24.375 25.2952C24.375 25.1436 24.405 24.9934 24.4632 24.8534C24.5215 24.7134 24.6068 24.5863 24.7144 24.4794L27.7024 21.4938C27.9187 21.277 28.2124 21.1551 28.5187 21.1548C28.825 21.1545 29.1188 21.2759 29.3356 21.4923C29.5524 21.7087 29.6743 22.0023 29.6746 22.3086C29.6749 22.6149 29.5535 22.9088 29.3371 23.1255L26.3491 26.1141C26.2417 26.2215 26.1142 26.3066 25.9738 26.3646C25.8334 26.4226 25.683 26.4523 25.5311 26.452C25.3792 26.4517 25.2289 26.4215 25.0888 26.363C24.9486 26.3045 24.8214 26.2189 24.7144 26.1111Z" fill="white"/>
<path d="M25.3984 30.4434C25.1821 30.227 25.0605 29.9335 25.0605 29.6275C25.0605 29.3215 25.1821 29.028 25.3984 28.8116L26.9308 27.2792C27.038 27.1719 27.1652 27.0867 27.3053 27.0285C27.4453 26.9703 27.5955 26.9403 27.7472 26.9402C27.8988 26.94 28.049 26.9698 28.1892 27.0277C28.3294 27.0856 28.4568 27.1705 28.5641 27.2777C28.6714 27.3848 28.7566 27.5121 28.8148 27.6521C28.873 27.7922 28.903 27.9423 28.9031 28.094C28.9033 28.2457 28.8735 28.3959 28.8156 28.536C28.7577 28.6762 28.6728 28.8036 28.5656 28.9109L27.0332 30.4434C26.926 30.551 26.7986 30.6364 26.6584 30.6947C26.5181 30.753 26.3677 30.783 26.2158 30.783C26.0639 30.783 25.9135 30.753 25.7732 30.6947C25.633 30.6364 25.5056 30.551 25.3984 30.4434Z" fill="white"/>
</g>
<defs>
<clipPath id="clip0_123_1558">
<rect width="31" height="31" fill="white"/>
</clipPath>
</defs>
</svg>
