<svg width="35" height="35" viewBox="0 0 35 35" fill="none" xmlns="http://www.w3.org/2000/svg">
<g clip-path="url(#clip0_126_755)">
<path d="M28.4375 0H6.5625C4.82357 0.00504982 3.1573 0.698076 1.92769 1.92769C0.698076 3.1573 0.00504982 4.82357 0 6.5625L0 28.4375C0.00504982 30.1764 0.698076 31.8427 1.92769 33.0723C3.1573 34.3019 4.82357 34.9949 6.5625 35H28.4375C30.1764 34.9949 31.8427 34.3019 33.0723 33.0723C34.3019 31.8427 34.9949 30.1764 35 28.4375V6.5625C34.9949 4.82357 34.3019 3.1573 33.0723 1.92769C31.8427 0.698076 30.1764 0.00504982 28.4375 0ZM19.6875 17.7734C19.6875 21.4512 17.3879 24.0625 13.6719 24.0625C11.9314 24.0625 10.2622 23.3711 9.03149 22.1404C7.80078 20.9097 7.10938 19.2405 7.10938 17.5C7.10938 15.7595 7.80078 14.0903 9.03149 12.8596C10.2622 11.6289 11.9314 10.9375 13.6719 10.9375C15.4109 10.9375 16.7398 11.6977 17.8609 12.7449L16.1328 14.4922C15.8199 14.1504 15.4398 13.8769 15.0164 13.6887C14.593 13.5005 14.1352 13.4017 13.6719 13.3984C12.5841 13.3984 11.5408 13.8306 10.7716 14.5998C10.0024 15.3689 9.57031 16.4122 9.57031 17.5C9.57031 18.5878 10.0024 19.6311 10.7716 20.4002C11.5408 21.1694 12.5841 21.6016 13.6719 21.6016C16.2203 21.6016 17.0789 19.8133 17.2266 18.8672H13.3984V16.6797H19.6875C19.7152 17.0437 19.7152 17.4094 19.6875 17.7734ZM27.8906 18.8672H25.7031V21.0547H23.5156V18.8672H21.3281V16.6797H23.5156V14.4922H25.7031V16.6797H27.8906V18.8672Z" fill="white"/>
</g>
<defs>
<clipPath id="clip0_126_755">
<rect width="35" height="35" fill="white"/>
</clipPath>
</defs>
</svg>
