<svg width="32" height="32" viewBox="0 0 32 32" fill="none" xmlns="http://www.w3.org/2000/svg">
<g clip-path="url(#clip0_126_575)">
<path d="M27.8512 5.97512C26.8447 5.97512 26.0255 5.15588 26.0255 4.14937V0H11.9176C11.0937 0 10.4238 0.669875 10.4238 1.49375V7.27763C12.0019 6.35881 13.8011 5.86881 15.6753 5.86881C18.4676 5.86881 21.0933 6.95694 23.0685 8.93206C23.9694 9.833 24.6851 10.8687 25.1983 11.994H26.9662C27.1766 11.3188 27.8067 10.8289 28.551 10.8289C29.4678 10.8289 30.2107 11.5717 30.2107 12.4886C30.2107 13.4055 29.4678 14.1484 28.551 14.1484C27.8094 14.1484 27.1806 13.6617 26.9682 12.9899H25.5906C25.9106 13.9439 26.0925 14.9477 26.1257 15.9774H29.8097C30.0846 15.9774 30.3076 16.2005 30.3076 16.4754C30.3076 16.7502 30.0846 16.9733 29.8097 16.9733H26.1118C26.0493 18.0063 25.8369 19.0102 25.485 19.9609H29.8096C30.0845 19.9609 30.3076 20.1839 30.3076 20.4588C30.3076 20.7337 30.0845 20.9568 29.8096 20.9568H25.0555C24.5562 21.9666 23.889 22.8993 23.0684 23.7192C22.992 23.7956 22.9144 23.8706 22.836 23.9443H29.8096C30.0845 23.9443 30.3076 24.1674 30.3076 24.4422C30.3076 24.7171 30.0845 24.9402 29.8096 24.9402H21.6059C19.8751 26.1379 17.8243 26.7825 15.6753 26.7825C13.8004 26.7825 12.0013 26.2919 10.4238 25.3731V27.1868C10.4238 28.0107 11.0937 28.6806 11.9176 28.6806H30.5068C31.3307 28.6806 32.0006 28.0107 32.0006 27.1868V5.97512H27.8512ZM16.2993 3.3195H13.2454C12.9705 3.3195 12.7475 3.09644 12.7475 2.82156C12.7475 2.54669 12.9705 2.32363 13.2454 2.32363H16.2993C16.5742 2.32363 16.7973 2.54669 16.7973 2.82156C16.7973 3.09644 16.5742 3.3195 16.2993 3.3195ZM20.8803 3.3195H19.2205C18.9456 3.3195 18.7226 3.09644 18.7226 2.82156C18.7226 2.54669 18.9456 2.32363 19.2205 2.32363H20.8803C21.1551 2.32363 21.3782 2.54669 21.3782 2.82156C21.3782 3.09644 21.1551 3.3195 20.8803 3.3195ZM27.0213 0.704375V4.14937C27.0213 4.60681 27.3938 4.97925 27.8512 4.97925H31.2962L27.0213 0.704375Z" fill="white"/>
<path d="M31.2964 4.97922H27.8514C27.3939 4.97922 27.0215 4.60678 27.0215 4.14935V0.704346L31.2964 4.97922Z" fill="white"/>
<path d="M8.28047 23.7194C8.43784 23.8767 8.59916 24.0287 8.76447 24.1748L7.10672 25.8319L6.16797 24.8931L7.82509 23.2354C7.97109 23.4007 8.12316 23.562 8.28047 23.7194Z" fill="white"/>
<path d="M6.87206 27.7099L3.11706 31.4656C2.77181 31.8102 2.31369 32.0001 1.82575 32.0001C1.33781 32.0001 0.879687 31.8102 0.534437 31.4656C0.189875 31.1204 0 30.6623 0 30.1743C0 29.6863 0.189875 29.2282 0.534437 28.883L4.29012 25.128C4.38775 25.0304 4.51519 24.9819 4.64262 24.9819C4.77006 24.9819 4.89756 25.0304 4.9945 25.128L6.872 27.0055C7.06656 27.1994 7.06656 27.5154 6.87206 27.7099Z" fill="white"/>
<path d="M20.9562 21.6072C18.0443 24.5191 13.3054 24.5191 10.3929 21.6072C7.48102 18.6947 7.48102 13.9558 10.3929 11.0439C11.8495 9.58798 13.7622 8.86035 15.6749 8.86035C17.587 8.86035 19.5003 9.58866 20.9562 11.0439C21.486 11.5737 21.9188 12.1632 22.2555 12.792L18.9552 16.0915C18.833 16.0484 18.7016 16.0245 18.5648 16.0245C18.369 16.0245 18.1851 16.0729 18.0238 16.1579L15.9099 14.5725C15.9251 14.4982 15.9331 14.4205 15.9331 14.3409C15.9331 13.6995 15.4126 13.179 14.7713 13.179C14.1293 13.179 13.6095 13.6995 13.6095 14.3409C13.6095 14.4205 13.6175 14.4982 13.6321 14.5725L11.5182 16.1579C11.3569 16.0729 11.173 16.0245 10.9771 16.0245C10.3358 16.0245 9.81533 16.545 9.81533 17.1863C9.81533 17.8283 10.3358 18.3481 10.9771 18.3481C11.6191 18.3481 12.139 17.8283 12.139 17.1863C12.139 17.1073 12.131 17.0296 12.1157 16.9546L14.2296 15.3692C14.3916 15.4549 14.5755 15.5027 14.7713 15.5027C14.9665 15.5027 15.1504 15.4549 15.3124 15.3692L17.4263 16.9546C17.411 17.0296 17.403 17.1073 17.403 17.1863C17.403 17.8283 17.9228 18.3481 18.5648 18.3481C19.2061 18.3481 19.7266 17.8283 19.7266 17.1863C19.7266 17.0495 19.7028 16.918 19.6596 16.7959L22.6903 13.7652C23.651 16.4089 23.0728 19.4907 20.9562 21.6072Z" fill="white"/>
<path d="M22.3648 9.63587C20.5776 7.84931 18.2022 6.86475 15.6754 6.86475C13.148 6.86475 10.7725 7.84931 8.98528 9.63587C7.19872 11.4231 6.21484 13.7985 6.21484 16.326C6.21484 18.8528 7.19872 21.2282 8.98528 23.0154C10.7725 24.802 13.1479 25.7866 15.6754 25.7866C18.2022 25.7866 20.5777 24.802 22.3648 23.0154C24.1514 21.2282 25.136 18.8527 25.136 16.326C25.136 13.7985 24.1514 11.4231 22.3648 9.63587ZM21.6605 22.3111C20.0107 23.9615 17.843 24.7861 15.6754 24.7861C13.5078 24.7861 11.3402 23.9615 9.68966 22.3111C6.38941 19.0101 6.38941 13.6405 9.68966 10.3402C12.9899 7.04 18.3602 7.04 21.6605 10.3402C23.3103 11.9901 24.1355 14.1577 24.1355 16.3253C24.1355 18.4929 23.3103 20.6606 21.6605 22.3111Z" fill="white"/>
</g>
<defs>
<clipPath id="clip0_126_575">
<rect width="32" height="32" fill="white"/>
</clipPath>
</defs>
</svg>
