<svg width="36" height="36" viewBox="0 0 36 36" fill="none" xmlns="http://www.w3.org/2000/svg">
<path d="M28.1246 1.9126H7.87461C6.29417 1.91557 4.77931 2.54472 3.66177 3.66226C2.54423 4.7798 1.91508 6.29466 1.91211 7.8751V28.1251C1.91508 29.7055 2.54423 31.2204 3.66177 32.3379C4.77931 33.4555 6.29417 34.0846 7.87461 34.0876H28.1246C29.705 34.0846 31.2199 33.4555 32.3374 32.3379C33.455 31.2204 34.0841 29.7055 34.0871 28.1251V7.8751C34.0841 6.29466 33.455 4.7798 32.3374 3.66226C31.2199 2.54472 29.705 1.91557 28.1246 1.9126ZM20.1596 25.6726L17.9996 27.8213C17.3548 28.4716 16.587 28.987 15.7411 29.3375C14.8951 29.6881 13.9878 29.8668 13.0721 29.8632H12.9371C11.9856 29.8468 11.0478 29.634 10.1825 29.2381C9.31711 28.8422 8.54289 28.2718 7.90836 27.5626C6.70918 26.2016 6.07945 24.4314 6.1496 22.6188C6.21976 20.8062 6.98444 19.09 8.28523 17.8257L10.299 15.812C10.6542 15.4703 11.128 15.2794 11.6209 15.2794C12.1137 15.2794 12.5875 15.4703 12.9427 15.812C13.1166 15.9854 13.2545 16.1915 13.3485 16.4183C13.4426 16.6451 13.4911 16.8883 13.4911 17.1338C13.4911 17.3794 13.4426 17.6226 13.3485 17.8494C13.2545 18.0762 13.1166 18.2823 12.9427 18.4557L10.884 20.5145C10.3078 21.0701 9.95268 21.8157 9.88441 22.6132C9.81615 23.4107 10.0394 24.2059 10.5127 24.8513C10.7916 25.2188 11.1466 25.5216 11.5534 25.7391C11.9602 25.9566 12.4092 26.0836 12.8696 26.1113C13.3287 26.1403 13.7886 26.0716 14.2192 25.9097C14.6497 25.7477 15.041 25.4963 15.3671 25.172L17.5159 23.0232C17.8724 22.6841 18.3457 22.495 18.8377 22.495C19.3298 22.495 19.803 22.6841 20.1596 23.0232C20.5093 23.3743 20.7056 23.8496 20.7056 24.3451C20.7056 24.8406 20.5093 25.3159 20.1596 25.667V25.6726ZM16.3346 22.2976C15.9792 22.6245 15.5113 22.8015 15.0285 22.7916C14.5457 22.7818 14.0854 22.5859 13.7435 22.2448C13.4017 21.9037 13.2049 21.4438 13.194 20.961C13.1831 20.4783 13.3591 20.01 13.6852 19.6538L19.6365 13.6913C19.8101 13.5178 20.0162 13.3801 20.243 13.2861C20.4698 13.1922 20.7129 13.1438 20.9584 13.1438C21.2039 13.1438 21.4469 13.1922 21.6738 13.2861C21.9006 13.3801 22.1066 13.5178 22.2802 13.6913C22.4538 13.8649 22.5915 14.071 22.6855 14.2978C22.7794 14.5246 22.8278 14.7677 22.8278 15.0132C22.8278 15.2587 22.7794 15.5018 22.6855 15.7286C22.5915 15.9554 22.4538 16.1615 22.2802 16.3351L16.3346 22.2976ZM27.849 18.0001L25.8746 19.9632C25.524 20.3138 25.0485 20.5108 24.5527 20.5108C24.0569 20.5108 23.5814 20.3138 23.2309 19.9632C22.8803 19.6126 22.6833 19.1371 22.6833 18.6413C22.6833 18.1455 22.8803 17.6701 23.2309 17.3195L25.1321 15.4182C25.7221 14.8478 26.0841 14.0819 26.1502 13.2638C26.1862 12.7589 26.1032 12.2526 25.9078 11.7856C25.7124 11.3186 25.4101 10.904 25.0252 10.5751C24.3808 10.0635 23.5692 9.80961 22.7481 9.86262C21.927 9.91563 21.1548 10.2718 20.5815 10.862L18.6859 12.752C18.3306 13.0937 17.8569 13.2845 17.364 13.2845C16.8711 13.2845 16.3974 13.0937 16.0421 12.752C15.6938 12.4002 15.4984 11.9251 15.4984 11.4301C15.4984 10.935 15.6938 10.46 16.0421 10.1082L17.8984 8.25197C19.1597 6.95843 20.8694 6.19822 22.6747 6.1281C24.4801 6.05798 26.2436 6.68329 27.6015 7.8751C28.3061 8.50943 28.8738 9.28084 29.27 10.1421C29.6662 11.0034 29.8825 11.9365 29.9056 12.8843C29.9288 13.8321 29.7584 14.7746 29.4047 15.6542C29.0511 16.5339 28.5217 17.3321 27.849 18.0001Z" fill="white"/>
</svg>
