<svg width="40" height="40" viewBox="0 0 40 40" fill="none" xmlns="http://www.w3.org/2000/svg">
<path d="M18.418 36H8.66797C8.0013 36 7.41797 36.5833 7.41797 37.25C7.41797 37.9167 8.0013 38.5 8.66797 38.5H18.418C19.0846 38.5 19.668 37.9167 19.668 37.25C19.668 36.5833 19.168 36 18.418 36Z" fill="white"/>
<path d="M13.0011 1.50001C6.16775 1.75001 0.501081 7.58334 0.417747 14.4167C0.334414 17.9167 1.66775 21.25 4.08441 23.75C6.25108 26 7.41775 29 7.41775 32.3333C7.41775 32.6667 7.58441 33 7.75108 33.25C7.91775 33.5 8.33441 33.5833 8.66775 33.5833H12.3344V18.4167L8.33441 14.1667C7.83441 13.6667 7.83441 12.8333 8.33441 12.25C8.83441 11.6667 9.58442 11.75 10.0844 12.25L13.5844 15.9167L17.0844 12.1667C17.5844 11.6667 18.3344 11.6667 18.8344 12.1667C19.3344 12.6667 19.3344 13.5 18.8344 14.0833L14.7511 18.4167V33.5833H18.4177C19.0844 33.5833 19.6677 33 19.6677 32.3333C19.6677 29.0833 20.9177 26 23.1677 23.5C25.4177 21.0833 26.6677 17.9167 26.6677 14.5833C26.6677 11 25.2511 7.58334 22.6677 5.08334C20.0844 2.66667 16.6677 1.41667 13.0011 1.50001Z" fill="white"/>
<path d="M29 9.6665H39.5833V29.4998H29V9.6665Z" fill="white"/>
<path d="M33 37.9167C33.25 38.25 33.5833 38.5 34.0833 38.5C34.5 38.5 34.9167 38.25 35.1667 37.9167L39 32H29.5L33 37.9167Z" fill="white"/>
<path d="M34.2513 1.5C31.3346 1.5 28.918 3.91667 28.918 6.83333V7.25H39.5013V6.83333C39.5846 3.91667 37.168 1.5 34.2513 1.5Z" fill="white"/>
</svg>
