<svg width="32" height="28" viewBox="0 0 32 28" fill="none" xmlns="http://www.w3.org/2000/svg">
<path d="M11.3188 6.42783C10.5326 7.21314 10.0996 8.25727 10.0996 9.36777C10.0996 10.4783 10.5326 11.5223 11.3188 12.3077C12.9425 13.9296 15.5843 13.9296 17.208 12.3077C17.9942 11.5224 18.4272 10.4783 18.4272 9.36777C18.4272 8.25727 17.9942 7.21321 17.208 6.42783C15.5843 4.80596 12.9425 4.80596 11.3188 6.42783Z" fill="white"/>
<path d="M26.5668 26.0696H24.2519V24.2737H7.74914V26.0696H5.43427C4.91508 26.0696 4.49414 26.4894 4.49414 27.0071C4.49414 27.5249 4.91502 27.9446 5.43427 27.9446H26.5668C27.086 27.9446 27.5069 27.5249 27.5069 27.0071C27.5069 26.4894 27.086 26.0696 26.5668 26.0696Z" fill="white"/>
<path d="M31.0925 0.0554199H0.9075C0.406313 0.0554199 0 0.460607 0 0.960357V21.2515C0 21.7514 0.406313 22.1565 0.9075 22.1565H31.0925C31.5937 22.1565 32 21.7513 32 21.2515V0.960357C32 0.460607 31.5938 0.0554199 31.0925 0.0554199ZM15.9817 20.1944C15.4639 20.1944 15.0442 19.7747 15.0442 19.2569C15.0442 18.7392 15.4639 18.3194 15.9817 18.3194C16.4994 18.3194 16.9192 18.7392 16.9192 19.2569C16.9192 19.7747 16.4995 20.1944 15.9817 20.1944ZM23.5 18.5997C23.3169 18.7828 23.077 18.8744 22.8371 18.8744C22.5972 18.8744 22.3573 18.7829 22.1742 18.5997L17.8194 14.2449C16.7643 15.0135 15.5144 15.3982 14.2643 15.3982C12.7181 15.3982 11.1718 14.8102 9.99469 13.6344C8.85387 12.4948 8.22556 10.9796 8.22556 9.36792C8.22556 7.75623 8.85387 6.24104 9.99469 5.10148C12.349 2.74979 16.1797 2.74973 18.534 5.10148C19.6748 6.24104 20.3031 7.75623 20.3031 9.36792C20.3031 10.6627 19.8977 11.8951 19.1467 12.9205L23.5001 17.2739C23.8661 17.64 23.8661 18.2336 23.5 18.5997Z" fill="white"/>
</svg>
