<svg width="32" height="32" viewBox="0 0 32 32" fill="none" xmlns="http://www.w3.org/2000/svg">
<g clip-path="url(#clip0_113_1284)">
<path d="M24.6091 2.48411C24.3252 2.05474 23.7439 1.93386 23.3099 2.21768C22.8778 2.50243 22.7588 3.08468 23.0435 3.5168C23.9508 4.89286 24.4305 6.49774 24.4305 8.16036C24.4305 9.82299 23.9508 11.4288 23.0435 12.8039C22.7588 13.2361 22.8778 13.8174 23.3099 14.1031C23.7461 14.3888 24.325 14.2662 24.6091 13.8366C25.7187 12.153 26.3056 10.191 26.3056 8.16036C26.3056 6.12974 25.7187 4.16774 24.6091 2.48411Z" fill="white"/>
<path d="M7.56452 8.16036C7.56452 6.49774 8.04427 4.89193 8.95152 3.5168C9.2362 3.08468 9.1172 2.5033 8.68508 2.21768C8.25202 1.93386 7.67158 2.05474 7.38595 2.48411C6.27633 4.16774 5.68945 6.12974 5.68945 8.16036C5.68945 10.191 6.27633 12.153 7.38595 13.8366C7.67002 14.2662 8.24895 14.3888 8.68508 14.1031C9.1172 13.8183 9.2362 13.2361 8.95152 12.8039C8.0442 11.4279 7.56452 9.82299 7.56452 8.16036Z" fill="white"/>
<path d="M3.81641 8.1605C3.81641 5.76 4.50947 3.44094 5.82053 1.45332C6.10528 1.02119 5.98622 0.439816 5.55409 0.154191C5.12016 -0.129621 4.54059 -0.0106214 4.25497 0.420629C2.74159 2.71582 1.94141 5.39194 1.94141 8.1605C1.94141 10.9291 2.74159 13.6051 4.25497 15.9003C4.53903 16.3299 5.11797 16.4525 5.55409 16.1668C5.98622 15.8811 6.10522 15.2998 5.82053 14.8676C4.50947 12.88 3.81641 10.561 3.81641 8.1605Z" fill="white"/>
<path d="M27.7399 0.420613C27.4552 -0.0105749 26.8757 -0.129637 26.4408 0.154175C26.0087 0.4398 25.8897 1.02118 26.1744 1.4533C27.4854 3.44093 28.1784 5.75992 28.1784 8.16043C28.1784 10.5609 27.4854 12.88 26.1744 14.8675C25.8896 15.2997 26.0086 15.8811 26.4408 16.1667C26.8788 16.4537 27.4571 16.328 27.7399 15.9003C29.2533 13.606 30.0534 10.929 30.0534 8.16043C30.0534 5.39186 29.2533 2.7158 27.7399 0.420613Z" fill="white"/>
<path d="M28.6523 20.3481C27.8757 20.3481 27.2461 20.9777 27.2461 21.7544C27.2461 21.9493 27.2461 22.0186 27.2461 22.0441C27.2461 22.0505 27.2461 22.0542 27.2461 22.0566C27.2461 22.0588 27.2461 22.0601 27.2461 22.0596C27.2461 22.0959 27.2461 22.2935 27.2461 23.1606C27.2461 23.6784 26.8263 24.0981 26.3086 24.0981C25.7908 24.0981 25.3711 23.6784 25.3711 23.1606C25.3711 21.9673 25.3711 21.0631 25.3711 19.8794C25.3711 19.1027 24.7415 18.4731 23.9648 18.4731C23.1882 18.4731 22.5586 19.1027 22.5586 19.8794C22.5586 21.0631 22.5586 21.9673 22.5586 23.1606C22.5586 23.6784 22.1388 24.0981 21.6211 24.0981C21.1033 24.0981 20.6836 23.6784 20.6836 23.1606C20.6836 21.0894 20.6836 19.7874 20.6836 18.0044C20.6836 17.2277 20.054 16.5981 19.2773 16.5981C18.5007 16.5981 17.8711 17.2277 17.8711 18.0044C17.8711 20.9616 17.8711 19.4163 17.8711 21.2856C17.8711 21.8034 17.4513 22.2231 16.9336 22.2231C16.4158 22.2231 15.9961 21.8034 15.9961 21.2856C15.9961 19.4078 15.9961 19.8005 15.9961 8.62939C15.9961 7.85271 15.3665 7.22314 14.5898 7.22314C13.8132 7.22314 13.1836 7.85271 13.1836 8.62939C13.1836 18.8557 13.1836 14.7831 13.1836 25.0356C13.1836 25.5534 12.7638 25.9731 12.2461 25.9731C11.7283 25.9731 11.3086 25.5534 11.3086 25.0356V20.443C9.17166 20.8786 7.55859 22.7721 7.55859 25.0356V31.0626C7.55859 31.5804 7.97834 32.0001 8.49609 32.0001H29.1211C29.6388 32.0001 30.0586 31.5804 30.0586 31.0626V21.7544C30.0586 20.9776 29.4289 20.3481 28.6523 20.3481Z" fill="white"/>
<path d="M22.0561 5.60858C21.3208 3.77971 19.7087 2.35458 17.8054 1.84165C13.4137 0.658083 9.43359 3.9539 9.43359 8.16065C9.43359 9.91202 10.1353 11.546 11.3086 12.7478V8.43783C11.3086 5.98627 13.0672 3.74715 15.506 3.49821C18.3094 3.21202 20.6836 5.41452 20.6836 8.16065C20.6836 10.0291 19.5617 11.7011 17.8711 12.4421V14.4027C17.9745 14.4027 18.0798 14.3853 18.1833 14.3496C21.5888 13.1465 23.5391 9.29796 22.0561 5.60858Z" fill="white"/>
</g>
<defs>
<clipPath id="clip0_113_1284">
<rect width="32" height="32" fill="white"/>
</clipPath>
</defs>
</svg>
