<svg width="37" height="38" viewBox="0 0 37 38" fill="none" xmlns="http://www.w3.org/2000/svg">
<path d="M32.3577 4.56982H4.64234C4.02478 4.57095 3.43282 4.81677 2.99613 5.25346C2.55945 5.69015 2.31362 6.2821 2.3125 6.89967V22.1275H34.6875V6.89967C34.6864 6.2821 34.4406 5.69015 34.0039 5.25346C33.5672 4.81677 32.9752 4.57095 32.3577 4.56982ZM11.4758 15.19C11.4214 18.2359 6.70904 18.2477 6.65422 15.1957V11.5073C6.65725 11.356 6.71949 11.2119 6.82759 11.1059C6.93568 11 7.08101 10.9407 7.23236 10.9407C7.38372 10.9407 7.52904 11 7.63713 11.106C7.74521 11.2119 7.80745 11.356 7.81047 11.5074V15.1958C7.80574 16.7107 10.3256 16.706 10.3195 15.1899V11.49C10.3195 11.3367 10.3804 11.1896 10.4889 11.0812C10.5973 10.9728 10.7443 10.9119 10.8977 10.9119C11.051 10.9119 11.198 10.9728 11.3065 11.0812C11.4149 11.1896 11.4758 11.3367 11.4758 11.49V15.19ZM17.1588 11.8253L15.3666 14.2997L16.9102 16.5775C16.9921 16.7048 17.021 16.8592 16.9905 17.0075C16.9601 17.1558 16.8727 17.2863 16.7472 17.371C16.6217 17.4556 16.468 17.4878 16.3191 17.4605C16.1701 17.4332 16.0378 17.3487 15.9505 17.225L14.6439 15.2941L13.2333 17.2424C13.1424 17.366 13.0064 17.4488 12.8548 17.4726C12.7032 17.4964 12.5483 17.4594 12.4239 17.3696C12.362 17.3251 12.3096 17.2687 12.2697 17.2038C12.2298 17.1389 12.2031 17.0667 12.1913 16.9914C12.1795 16.9161 12.1827 16.8393 12.2008 16.7652C12.2189 16.6912 12.2515 16.6215 12.2967 16.5602L13.9559 14.2766L12.2852 11.8138C12.1996 11.6865 12.1678 11.5305 12.1969 11.3799C12.2259 11.2293 12.3134 11.0963 12.4402 11.01C12.567 10.9237 12.7228 10.891 12.8736 10.9192C13.0243 10.9474 13.1578 11.0342 13.2448 11.1605L14.6786 13.2764L16.2222 11.1489C16.3133 11.0285 16.4479 10.9485 16.5973 10.9261C16.7466 10.9037 16.8988 10.9407 17.0212 11.0291C17.1437 11.1176 17.2266 11.2504 17.2523 11.3992C17.278 11.548 17.2444 11.701 17.1588 11.8253ZM22.6162 10.0505L18.3844 18.9131C18.3167 19.049 18.1984 19.1529 18.0549 19.2025C17.9114 19.2521 17.7542 19.2434 17.6171 19.1782C17.48 19.1131 17.3739 18.9967 17.3217 18.8541C17.2695 18.7116 17.2754 18.5542 17.338 18.4159L21.5698 9.55329C21.6382 9.41859 21.7565 9.31591 21.8995 9.26713C22.0424 9.21835 22.1988 9.22733 22.3352 9.29216C22.4717 9.35699 22.5774 9.47254 22.6299 9.61419C22.6824 9.75584 22.6775 9.91239 22.6162 10.0505ZM28.1316 15.19C28.0772 18.2359 23.3648 18.2477 23.31 15.1957V11.5073C23.313 11.356 23.3753 11.2119 23.4834 11.1059C23.5915 11 23.7368 10.9407 23.8881 10.9407C24.0395 10.9407 24.1848 11 24.2929 11.106C24.401 11.2119 24.4632 11.356 24.4662 11.5074V15.1958C24.4659 16.7109 26.9809 16.7055 26.9753 15.1899V11.49C26.9753 11.3367 27.0362 11.1896 27.1446 11.0812C27.253 10.9728 27.4001 10.9119 27.5534 10.9119C27.7067 10.9119 27.8538 10.9728 27.9622 11.0812C28.0706 11.1896 28.1315 11.3367 28.1315 11.49L28.1316 15.19ZM30.3458 16.9013C30.3435 17.0531 30.2816 17.198 30.1734 17.3045C30.0653 17.4111 29.9195 17.4709 29.7676 17.4709C29.6158 17.4709 29.47 17.4111 29.3618 17.3045C29.2537 17.1979 29.1918 17.0531 29.1895 16.9012V11.49C29.1923 11.3385 29.2545 11.1942 29.3626 11.088C29.4707 10.9819 29.6162 10.9224 29.7677 10.9225C29.9192 10.9225 30.0646 10.9819 30.1727 11.0881C30.2809 11.1942 30.343 11.3385 30.3458 11.49V16.9013Z" fill="white"/>
<path d="M3.46875 23.2837H2.3125V24.8562C2.31362 25.4738 2.55944 26.0657 2.99613 26.5024C3.43282 26.9391 4.02477 27.1849 4.64234 27.186H15.9678C16.0314 28.562 13.7305 30.9785 11.9036 32.3949C11.8076 32.4683 11.7371 32.5699 11.7019 32.6855C11.6668 32.8011 11.6689 32.9248 11.7078 33.0392C11.7468 33.1535 11.8207 33.2527 11.9191 33.3228C12.0175 33.3929 12.1354 33.4303 12.2563 33.4298H24.7437C24.8651 33.4267 24.9826 33.3858 25.0797 33.3129C25.1768 33.24 25.2488 33.1387 25.2856 33.023C25.3225 32.9072 25.3224 32.7829 25.2854 32.6673C25.2484 32.5516 25.1762 32.4504 25.079 32.3776C25.0386 32.3487 21.4658 29.776 21.1767 27.186H32.3577C32.9752 27.1849 33.5672 26.9391 34.0039 26.5024C34.4406 26.0657 34.6864 25.4738 34.6875 24.8562V23.2837H3.46875ZM17.0431 23.9138H19.7834C19.9353 23.9161 20.0801 23.978 20.1867 24.0862C20.2933 24.1944 20.3531 24.3401 20.3531 24.492C20.3531 24.6438 20.2933 24.7896 20.1867 24.8978C20.0801 25.0059 19.9353 25.0678 19.7834 25.0701H17.0431C16.8913 25.0677 16.7466 25.0058 16.6401 24.8976C16.5336 24.7895 16.4739 24.6438 16.4739 24.492C16.4739 24.3402 16.5336 24.1945 16.6401 24.0863C16.7466 23.9782 16.8913 23.9162 17.0431 23.9138Z" fill="white"/>
</svg>
